<svg xmlns="http://www.w3.org/2000/svg" viewBox="0 0 68.29 57.73"><defs><style>.cls-1{fill:#db8327;}</style></defs><g id="Layer_2" data-name="Layer 2"><g id="Amenities"><path class="cls-1" d="M68.29,29l0-.31V22.26q0-8.38,0-16.76C68.27,1.91,66.39,0,62.82,0H49.48c-6,0-12.21,0-18.31,0a5.34,5.34,0,0,0-4,1.48A5.13,5.13,0,0,0,25.81,5.3c.08,3.32.06,6.69,0,10,0,1.38,0,2.81,0,4.21v7.25c0,8.51,0,17.31,0,26a4.82,4.82,0,0,0,1,3.22A5.11,5.11,0,0,0,31,57.73H62.84c3.56,0,5.45-1.9,5.45-5.49V29ZM66.21,52.51a3.28,3.28,0,0,1-.79,2.41,3.24,3.24,0,0,1-2.37.81H56.34c-8.33,0-16.94,0-25.41,0-2.2,0-3.14-1-3.14-3.21q0-23.66,0-47.3c0-2.29,1-3.27,3.29-3.27h6L62.9,2c2.37,0,3.29.93,3.29,3.34V28.64h0V29q0,3.3,0,6.58C66.16,41.1,66.16,46.85,66.21,52.51Z"/><path class="cls-1" d="M23.32,54.33l-.2.1-.13.06A12.54,12.54,0,0,1,5.32,43.2c0-2.54,0-5.13,0-7.64V33.27a2.63,2.63,0,0,1,.07-.89,2.43,2.43,0,0,1,.9-.08H22.15c.27,0,.55,0,.83,0,.93-.09,1-.7,1-1,0-.57-.39-.92-1.05-.95H5.1a4.51,4.51,0,0,1-1.61-.19A2.16,2.16,0,0,1,2,28.59a2.31,2.31,0,0,1,.39-2,2.63,2.63,0,0,1,2.13-.92H22.14c.29,0,.6,0,.91,0a.92.92,0,0,0,1-.92.94.94,0,0,0-.93-.95,5.43,5.43,0,0,0-.8,0H10.72c-2.11,0-4.3,0-6.46,0A4.23,4.23,0,0,0,2.86,32c.46.16.53.36.53.87,0,3.14,0,6.33,0,9.41v1.19a10,10,0,0,0,.05,1.22A14.53,14.53,0,0,0,22.2,56.91a13.59,13.59,0,0,0,1.8-.74l.19-.09a1.21,1.21,0,0,0,.71-.65.87.87,0,0,0-.06-.7C24.65,54.33,24.23,53.93,23.32,54.33Z"/><path class="cls-1" d="M23.74,40.48a.91.91,0,0,0,.32-.71,1.42,1.42,0,0,0-.63-.94l-.09-.08a7.9,7.9,0,0,0-5.9-2.07,8.42,8.42,0,0,0-6.13,3.18,8.3,8.3,0,0,0-1.62,6.62,7.82,7.82,0,0,0,5.62,6.43,8.85,8.85,0,0,0,2.72.45,8.16,8.16,0,0,0,5.53-2.27,1.36,1.36,0,0,0,.5-.87,1,1,0,0,0-.28-.69,1,1,0,0,0-1.47,0l-.24.19-.13.11a6.06,6.06,0,0,1-6.74.89A5.92,5.92,0,0,1,11.55,45v-.18a6.2,6.2,0,0,1,.18-1.57,6.39,6.39,0,0,1,10.32-3l.1.09C22.49,40.59,23.11,41.13,23.74,40.48Z"/><polygon class="cls-1" points="17.91 40.49 17.91 40.49 17.91 40.49 17.91 40.49"/><path class="cls-1" d="M13.32,44.93a4.61,4.61,0,0,0,4.51,4.67h.06A4.46,4.46,0,0,0,21,48.29,4.62,4.62,0,0,0,22.44,45a4.42,4.42,0,0,0-1.3-3.16,4.54,4.54,0,0,0-3.23-1.36A4.48,4.48,0,0,0,13.32,44.93Zm4.57-2.49h0a2.56,2.56,0,0,1,2.57,2.62,2.71,2.71,0,0,1-2.6,2.57h0A2.58,2.58,0,0,1,16,46.85,2.52,2.52,0,0,1,15.28,45,2.57,2.57,0,0,1,17.89,42.44Z"/><path class="cls-1" d="M63.13,31.2c0-1.55,0-3.11,0-4.66v-4.8c0-3.77,0-7.66,0-11.49,0-3.19-1.9-5.09-5.07-5.09-8.43,0-15.45,0-22.09,0-3.12,0-5,1.87-5,5q0,6.54,0,13.07c0,3.19,0,6.38,0,9.57,0,.2,0,.4,0,.59,0,.59,0,1.2,0,1.78-.15,2-.12,4-.09,5.94,0,.58,0,1.15,0,1.72a5,5,0,0,0,1.39,3.61A5.32,5.32,0,0,0,36,47.85h.1c8-.11,15.12-.11,21.71,0H58a5.17,5.17,0,0,0,3.75-1.4,5.35,5.35,0,0,0,1.46-3.92C63.1,38.77,63.12,34.92,63.13,31.2ZM32.92,26.13v-16c0-2.07,1-3,3-3.05H58c2.12,0,3.14,1,3.15,3.18,0,10.82,0,21.65,0,32.21,0,2.4-.93,3.33-3.31,3.33H36c-2.2,0-3.1-.9-3.1-3.11V26.13Z"/><path class="cls-1" d="M17.67,44.59a.89.89,0,0,1,.65.67.89.89,0,0,0,.84.65.73.73,0,0,0,.25,0,1,1,0,0,0,.74-1.09A2.36,2.36,0,0,0,18,42.73h0a.93.93,0,0,0-1,.7A.91.91,0,0,0,17.67,44.59Z"/><path class="cls-1" d="M37.72,25.57H37c-.79.05-1,.49-1,.85a1,1,0,0,0,1,1.05,6.33,6.33,0,0,0,.87,0H56.77a1.33,1.33,0,0,0,.95-.28,1,1,0,0,0,.28-.71.93.93,0,0,0-.27-.75,1.53,1.53,0,0,0-1.18-.24l-.3,0H37.72Z"/><path class="cls-1" d="M57.75,36.83h0c-.29,0-1,.12-1,1.13,0,.67,0,1.32,0,1.94s-.28,1-1,1H55.6c-.61,0-1.23,0-1.85.06a1.31,1.31,0,0,0-1,.39,1,1,0,0,0-.2.7,1.05,1.05,0,0,0,1.18.93h.45l.86,0c.37,0,.74,0,1.11,0a2.71,2.71,0,0,0,2.53-2.77c0-.21,0-.43,0-.64a2.71,2.71,0,0,1,0-.29V38C58.7,37,58,36.83,57.75,36.83Z"/><path class="cls-1" d="M53.93,12.05h1.75c.85,0,1,.23,1.08,1.09,0,.31,0,.62,0,.92s0,.73,0,1.1a1,1,0,0,0,1,1h0a.94.94,0,0,0,.92-1c0-.18,0-.35,0-.53a15.41,15.41,0,0,0-.06-2.35,2.55,2.55,0,0,0-2.43-2.2,7.88,7.88,0,0,0-.84,0H53.9c-.3,0-1.24,0-1.26.92S53.57,12,53.93,12.05Z"/><path class="cls-1" d="M40.29,41h-.78c-.37,0-.76,0-1.14,0-.83-.06-1.09-.31-1.14-1.14,0-.36,0-.74,0-1.11s0-.47,0-.71,0-1.16-.9-1.18c-.3,0-1,.1-1,1.19v.2a17.38,17.38,0,0,0,0,2A2.8,2.8,0,0,0,37.93,43a3.31,3.31,0,0,0,.44,0h1.08a7.26,7.26,0,0,0,.93,0,1,1,0,0,0,1-1C41.36,41.53,41.16,41.05,40.29,41Z"/><path class="cls-1" d="M35.33,15.29a1,1,0,0,0,.34.69.93.93,0,0,0,.57.19h.13a.91.91,0,0,0,.8-.95c0-.37,0-.73,0-1.08s0-.45,0-.68c0-1.18.22-1.38,1.38-1.39H39c.47,0,1,0,1.43-.05a.94.94,0,0,0,.92-1c0-.25-.11-.85-1-.89-.31,0-.62,0-.92,0H38.7c-.28,0-.56,0-.85,0a2.55,2.55,0,0,0-2.37,1.74A7.37,7.37,0,0,0,35.3,15Z"/></g></g></svg>