<svg xmlns="http://www.w3.org/2000/svg" viewBox="0 0 56.78 56.78"><defs><style>.cls-1{fill:#db8327;}</style></defs><g id="Layer_2" data-name="Layer 2"><g id="Amenities"><path class="cls-1" d="M50.12,56.77a1.39,1.39,0,0,1-.49-1.23c0-.86,0-1.73,0-2.6,0-.44-.14-.58-.58-.57-1.85,0-3.69,0-5.54,0A4.42,4.42,0,0,1,39,47.86c0-.79,0-.79-.81-.81a1.77,1.77,0,0,1-1.85-1.85c0-.83,0-1.67,0-2.5a1.77,1.77,0,0,1,1.93-1.93c.62,0,.62,0,.33-.58a4.29,4.29,0,0,1-.29-3.33c.1-.33.06-.44-.32-.46A4.42,4.42,0,0,1,33.88,33c-.21-.75-.21-.76-1-.56-6.08,1.56-12.16,3.1-18.23,4.69a3.6,3.6,0,0,1-3.18-.67,11.6,11.6,0,0,1-3.21-3.92,35.37,35.37,0,0,1-4-12.25c-.14-.95-.22-1.91-.31-2.86a.51.51,0,0,0-.32-.52A5.49,5.49,0,0,1,.25,12.66c-.06-.27-.17-.53-.25-.8v-1a1.91,1.91,0,0,1,1.09-.6q7.62-1.95,15.23-3.9c.46-.12.61-.29.45-.76a17.49,17.49,0,0,1-.46-1.76,1,1,0,0,1,.78-1.34c2.21-.58,4.43-1.16,6.65-1.72A.94.94,0,0,1,25,1.51c.17.58.31,1.17.46,1.76s.18.68.89.52C31.68,2.57,36.89.71,42.36,0h.55c.15,0,.29.06.44.07A13.18,13.18,0,0,1,54,6.45a18.9,18.9,0,0,1,2.19,6.23.94.94,0,0,1-.78,1.16,17.29,17.29,0,0,1-1.72.43c-.54.09-.69.29-.52.85.33,1.13.59,2.28.88,3.43a8,8,0,0,1-5.81,10c-.72.19-.72.19-.55.92a4.43,4.43,0,0,1-1.89,4.92c-.44.27-.35.4-.05.7a4.38,4.38,0,0,1,.8,5.11c-.3.59-.3.59.39.61a1.77,1.77,0,0,1,1.85,1.85c0,.48,0,1,0,1.44,0,1.32-.18,1.13,1.15,1.14s1.43-.24,1.43-1.42V32.14c0-.83.31-1.13,1.14-1.13,1,0,2,0,3,0a1.42,1.42,0,0,1,1.23.49q0,12.42,0,24.84c0,.38-.07.46-.45.45C54.26,56.76,52.19,56.77,50.12,56.77ZM52.44,20.7c0-.15,0-.3,0-.45a38.2,38.2,0,0,0-1.15-4.95c-.08-.36-.35-.29-.62-.24-.72.15-1.18-.09-1.33-.64s.19-1,.88-1.19c1.14-.3,2.28-.61,3.43-.87.45-.1.52-.31.39-.7s-.24-.89-.36-1.33A11.41,11.41,0,0,0,40.11,2.24C35,3.47,30,4.83,24.87,6.13Q13.74,9,2.6,11.83c-.46.12-.54.29-.43.73a3.53,3.53,0,0,0,4.58,2.67l17.71-4.54a5.32,5.32,0,0,1,4.67.91,5.56,5.56,0,0,1,2,2.94A3.48,3.48,0,0,0,35.51,17l3.06-.79,2.79-.71a1,1,0,0,1,1,.31.92.92,0,0,1,.14.94,1.08,1.08,0,0,1-.86.62c-2,.52-4.08,1.05-6.12,1.56a4.59,4.59,0,0,1-2.3,0,5.2,5.2,0,0,1-3.94-3.68,3.75,3.75,0,0,0-2.1-2.56,4.67,4.67,0,0,0-3.15.06c-.33.09-.41.21-.27.54a36.84,36.84,0,0,1,3,11.18,19.34,19.34,0,0,1-.36,7.15c-.15.55-.13.58.45.43q10.44-2.67,20.87-5.36A6,6,0,0,0,52.44,20.7ZM25.05,27.22a25.82,25.82,0,0,0-.58-5.61A34.46,34.46,0,0,0,22,13.77c-.12-.25-.2-.44-.56-.34q-3.41.88-6.82,1.74c-.33.08-.35.23-.23.51a36.69,36.69,0,0,1,3,11.3A18.49,18.49,0,0,1,17,34c-.16.58-.15.59.42.45,1.77-.45,3.53-1,5.32-1.34a2.22,2.22,0,0,0,1.75-1.64A12,12,0,0,0,25.05,27.22ZM55,41.71V33.85c0-1.1.12-1-1-1-.72,0-.73,0-.73.74V44.13a2.67,2.67,0,0,1-2.92,2.92c-3,0-6,0-8.92,0-.42,0-.59.1-.59.56a2.71,2.71,0,0,0,2.91,2.91c3.51,0,7,0,10.53,0,.59,0,.71-.2.7-.73C55,47.11,55,44.41,55,41.71ZM15.61,29.46c0-.47,0-1.17-.09-1.87A35,35,0,0,0,12.8,16.85c-.57-1.33-.3-1.1-1.67-.79-.32.07-.44.17-.27.52a32.76,32.76,0,0,1,2.75,9,20.9,20.9,0,0,1,.28,6,1,1,0,0,1-.68.91.93.93,0,0,1-1.07-.4,5.28,5.28,0,0,1-.37-.55A29.78,29.78,0,0,1,8.18,22a30.92,30.92,0,0,1-.64-4.49c0-.36-.12-.47-.5-.39-1.13.24-1.14.22-1,1.38A34.11,34.11,0,0,0,9.45,30.71a12.85,12.85,0,0,0,2.78,3.91c1.33,1.2,2.24,1,2.83-.73A12.77,12.77,0,0,0,15.61,29.46Zm30.37,1c0-.14-.08-.43-.12-.72s-.23-.55-.68-.43c-1.15.33-2.32.61-3.48.91-1.9.48-3.79,1-5.69,1.46-.18,0-.45,0-.43.37a2.63,2.63,0,0,0,3,2.44c1.88-.4,3.73-.89,5.58-1.4A2.57,2.57,0,0,0,46,30.44Zm-3.4,12.18c-1.29,0-2.59,0-3.88,0-.38,0-.54.12-.52.51s0,1.07,0,1.61c0,.31.08.48.44.48h7.92c.36,0,.45-.17.44-.48,0-.54,0-1.07,0-1.61s-.14-.51-.52-.51C45.17,42.63,43.87,42.62,42.58,42.62Zm0-7.09a2.62,2.62,0,1,0,2.61,2.63A2.67,2.67,0,0,0,42.58,35.53ZM53.18,55h1.33c.29,0,.46-.08.45-.4,0-.6,0-1.19,0-1.78,0-.27-.1-.41-.39-.4H51.91c-.31,0-.43.13-.42.44,0,.57,0,1.14,0,1.72,0,.35.16.44.47.43ZM23.71,4.19a6.3,6.3,0,0,1-.18-.75c-.08-.49-.32-.57-.78-.44-1.09.31-2.2.58-3.31.86s-1.14.29-.8,1.43l0,.11c0,.26.2.31.44.25l4.33-1.12C23.62,4.48,23.76,4.41,23.71,4.19ZM11.91,27.48a29.59,29.59,0,0,0-2.31-9A29.09,29.09,0,0,0,11.91,27.48Z"/><path class="cls-1" d="M47.94,15.09a.84.84,0,0,1-.62.81c-.63.19-1.27.36-1.92.5a.9.9,0,0,1-1-.63.88.88,0,0,1,.52-1.14,14.8,14.8,0,0,1,2-.53A.91.91,0,0,1,47.94,15.09Z"/><path class="cls-1" d="M42.58,39.06a.92.92,0,1,1,0-1.84.92.92,0,1,1,0,1.84Z"/></g></g></svg>