<svg xmlns="http://www.w3.org/2000/svg" viewBox="0 0 56.77 56.77"><defs><style>.cls-1{fill:#db8327;}</style></defs><g id="Layer_2" data-name="Layer 2"><g id="Amenities"><path class="cls-1" d="M29.05,0a15.56,15.56,0,0,1,4.22,2.05c1.58.88,3.14,1.8,4.7,2.72a1.17,1.17,0,1,1-1.18,2C35.47,6,34.16,5.26,32.85,4.5L30.06,2.9a3.74,3.74,0,0,0-5.44,1.48Q18.2,15.49,11.79,26.61a3.76,3.76,0,0,0,1.47,5.57L20,36.06c.08,0,.17.08.39.19L20,35.41a24.48,24.48,0,0,1-1.45-3.88A4,4,0,0,1,22,26.22a3.74,3.74,0,0,1,3.53,1.57c.42.55.78,1.16,1.19,1.8a1,1,0,0,0,.09-.63c0-4.06,0-8.13,0-12.19A3.65,3.65,0,0,1,30.15,13a2.42,2.42,0,0,1,1,.1c.42.13.57,0,.72-.4a3.54,3.54,0,0,1,4.68-2.08,3.44,3.44,0,0,1,2,2.14c.1.3.22.46.59.36a3.6,3.6,0,0,1,4.48,3.61c0,.76,0,1.52,0,2.27,0,.37.13.43.47.38a3.54,3.54,0,0,1,4.33,3.69c0,2.43,0,4.87,0,7.48l1.29-2.21c1.37-2.37,2.73-4.74,4.1-7.1a3.75,3.75,0,0,0-1.41-5.39c-2.15-1.26-4.31-2.5-6.47-3.75a3.51,3.51,0,0,1-.61-.39,1.15,1.15,0,0,1-.24-1.46,1.1,1.1,0,0,1,1.39-.48,15.78,15.78,0,0,1,1.46.79c1.79,1,3.56,2.1,5.38,3.09a6.59,6.59,0,0,1,3.39,4.43v2.11a9,9,0,0,1-1,2.45Q52,29.1,48.3,35.58a2.49,2.49,0,0,0-.3.71,18.41,18.41,0,0,1-4.19,8.07,1.68,1.68,0,0,0-.46,1.24c0,3.19,0,6.39,0,9.58a1.57,1.57,0,0,1-.78,1.59h-.89A1.51,1.51,0,0,1,41,55.32c0-3.35,0-6.69,0-10A3.08,3.08,0,0,1,41.89,43a15.25,15.25,0,0,0,4.16-9.4c.26-3.57.08-7.17.07-10.75a1.14,1.14,0,0,0-1.2-1.18,1.16,1.16,0,0,0-1.21,1.23c0,1.2,0,2.41,0,3.61a3.35,3.35,0,0,1-.07.71,1.17,1.17,0,0,1-1.18,1A1.21,1.21,0,0,1,41.34,27a5.19,5.19,0,0,1,0-.56V17.06a4.15,4.15,0,0,0,0-.61,1.24,1.24,0,0,0-1.19-1.11,1.25,1.25,0,0,0-1.26,1.09,4.15,4.15,0,0,0,0,.61v9.48a4.15,4.15,0,0,1,0,.61,1.17,1.17,0,0,1-1.08,1,1.14,1.14,0,0,1-1.18-.89,4.3,4.3,0,0,1-.08-.88v-12c0-1.08-.4-1.64-1.19-1.66S34,13.25,34,14.35V26.27a5.44,5.44,0,0,1-.09,1,1,1,0,0,1-.74.82,1.17,1.17,0,0,1-1.53-1.23c0-2.74,0-5.47,0-8.2,0-.69,0-1.37,0-2.06a1.24,1.24,0,1,0-2.48,0V33.24c0,.2,0,.41,0,.61a1.16,1.16,0,0,1-.87,1,1.06,1.06,0,0,1-1.22-.42,5.5,5.5,0,0,1-.43-.64c-.95-1.48-1.88-3-2.85-4.43A1.66,1.66,0,0,0,21,29.25,1.88,1.88,0,0,0,20.82,31a23.29,23.29,0,0,0,8.55,12.29,1.75,1.75,0,0,1,.8,1.49q0,5.29,0,10.59a1.45,1.45,0,0,1-.79,1.41H28.5a1.56,1.56,0,0,1-.71-1.46c0-3.22,0-6.43,0-9.65a1.16,1.16,0,0,0-.5-1,22.73,22.73,0,0,1-3.7-3.57,2.7,2.7,0,0,0-.8-.67c-3.5-2-7-4.07-10.51-6.06A6.39,6.39,0,0,1,8.92,30a5.92,5.92,0,0,1,.71-4.37c.78-1.38,1.59-2.75,2.38-4.13.36-.62.36-.62-.37-.8a14.9,14.9,0,0,0-2.9-.41c-.79,0-1.33-.54-1.29-1.21S8,18,8.84,18A14.19,14.19,0,0,1,13,18.7c.39.12.6.07.8-.29q3.34-5.82,6.71-11.62c.24-.41.22-.58-.29-.7A31.92,31.92,0,0,0,14,5.25a1.34,1.34,0,0,1-1.23-.59,1.08,1.08,0,0,1,0-1.16,1.23,1.23,0,0,1,1.22-.61A32.49,32.49,0,0,1,21.47,4c.43.12.67.07.88-.36A6.43,6.43,0,0,1,26.94,0Z"/><path class="cls-1" d="M0,13.2a1.87,1.87,0,0,1,1-.72,24.24,24.24,0,0,1,7.7-1.66,25.61,25.61,0,0,1,3.92.12c.85.1,1.29.59,1.2,1.34s-.64,1.07-1.46,1A21.91,21.91,0,0,0,1.93,14.61C.92,15,.56,14.9,0,14.08Z"/><path class="cls-1" d="M0,6a1.87,1.87,0,0,1,.94-.74,33.56,33.56,0,0,1,6.8-1.92,1.75,1.75,0,0,1,1,0,1.07,1.07,0,0,1,.7,1.14,1.1,1.1,0,0,1-.92,1c-1,.21-2,.37-3,.63A31.65,31.65,0,0,0,1.8,7.43,1.27,1.27,0,0,1,0,6.87Z"/><path class="cls-1" d="M0,20.51A6.43,6.43,0,0,1,3,19a1.1,1.1,0,0,1,1.26.68A1.08,1.08,0,0,1,3.82,21,19.65,19.65,0,0,1,1.3,22.15c-.55.2-1-.21-1.3-.64Z"/><path class="cls-1" d="M41.82,9.49a1.15,1.15,0,0,1-1.15-1.17,1.17,1.17,0,0,1,1.19-1.14A1.16,1.16,0,0,1,43,8.33,1.14,1.14,0,0,1,41.82,9.49Z"/></g></g></svg>