<svg xmlns="http://www.w3.org/2000/svg" viewBox="0 0 60.48 60.48"><defs><style>.cls-1{fill:#db8327;}</style></defs><g id="Layer_2" data-name="Layer 2"><g id="Amenities"><path class="cls-1" d="M6.66,60.48a8,8,0,0,1-5.22-3.26A7.43,7.43,0,0,1,0,52.93c0-1,.43-1.46,1.42-1.46H9.18l-.89-.82A24.61,24.61,0,0,1,.16,35.17,25.87,25.87,0,0,1,0,31.76c0-3.17,0-6.33,0-9.5,0-1.13.44-1.59,1.56-1.59,2.84,0,5.67,0,8.5,0,.95,0,1.52.53,1.46,1.32a1.16,1.16,0,0,1-.84,1.09,3,3,0,0,1-1,.11c-2.19,0-4.37,0-6.55,0-.55,0-.71.17-.7.71,0,2.68,0,5.35,0,8A22.5,22.5,0,0,0,8.92,47.85a21.69,21.69,0,0,0,4.29,3.4,1.41,1.41,0,0,0,.77.22H35.7a1.45,1.45,0,0,0,.78-.23A22.28,22.28,0,0,0,47,35.31a31.27,31.27,0,0,0,.27-5.12c0-2.08,0-4.17,0-6.25,0-.62-.2-.76-.78-.76-7.57,0-15.15,0-22.72,0a4.21,4.21,0,0,1-1.06-.08,1.21,1.21,0,0,1-.95-1.19,1.17,1.17,0,0,1,.9-1.17,2.79,2.79,0,0,1,.7-.08H48.06c1.17,0,1.6.44,1.61,1.6,0,.47,0,.94,0,1.41s.18.67.68.66c2.79,0,5.59,0,8.38,0a2,2,0,0,1,1.76.74V35.46c0,.15-.07.3-.09.45A11.5,11.5,0,0,1,51,45.3a30.15,30.15,0,0,1-4.65.19,1,1,0,0,0-.92.48c-.4.61-.85,1.19-1.29,1.76a23.5,23.5,0,0,1-3.61,3.65,1.11,1.11,0,0,0,.68.08h9.84a1.23,1.23,0,0,1,1.41,1.41,7.4,7.4,0,0,1-1.43,4.35,8,8,0,0,1-5.21,3.25Zm19.66-6.57H3.61c-.18,0-.36,0-.53,0-.32,0-.42.12-.32.44A5.1,5.1,0,0,0,4,56.4a5.77,5.77,0,0,0,4.45,1.68H43.29A15.75,15.75,0,0,0,45.23,58a5.19,5.19,0,0,0,4.39-3.29c.32-.73.26-.79-.53-.79Zm27.59-27H51.14c-1.49,0-1.46,0-1.49,1.51,0,.55.17.71.71.7,1.31,0,2.63,0,4,0,1,0,1.49.49,1.49,1.48q0,1.83,0,3.66a6.52,6.52,0,0,1-5.93,6.45c-1.31.08-2.13.44-2.4,1.76a.6.6,0,0,1-.08.16c-.17.3-.08.42.26.41a22.24,22.24,0,0,0,2.94-.12,9,9,0,0,0,7.4-8c.18-2.5,0-5,.1-7.49,0-.39-.15-.52-.53-.51C56.34,26.87,55.13,26.86,53.91,26.86Zm-2.26,4.72c-.55,0-1,0-1.46,0s-.54.11-.53.51A22.06,22.06,0,0,1,49,37.81c-.09.37,0,.47.38.43a4.33,4.33,0,0,0,4-4.84c0-.57.24-1.28-.12-1.66S52.12,31.66,51.65,31.58Z"/><path class="cls-1" d="M19.09,3.87a1.42,1.42,0,0,1-.28.82,3.12,3.12,0,0,0,.31,4.06,7.45,7.45,0,0,1,1.49,2.66,6.48,6.48,0,0,1-1.22,5.94,6.94,6.94,0,0,1-.6.72,1.22,1.22,0,0,1-1.65.16,1.19,1.19,0,0,1-.29-1.63c.23-.37.52-.69.76-1.05a3.93,3.93,0,0,0,0-4.63,11.78,11.78,0,0,1-1.51-2.31,5.35,5.35,0,0,1,.73-5.4,1.22,1.22,0,0,1,2.24.66Z"/><path class="cls-1" d="M29.75,17.11a1.8,1.8,0,0,1,.58-1.06,4.16,4.16,0,0,0,1-4,5.69,5.69,0,0,0-1.19-2,5.51,5.51,0,0,1-.3-6.73,1.25,1.25,0,1,1,2.09,1.34,3.05,3.05,0,0,0,.3,4A6.49,6.49,0,0,1,33.31,16a7.81,7.81,0,0,1-1.45,2.07,1.16,1.16,0,0,1-1.4.29A1.22,1.22,0,0,1,29.75,17.11Z"/><path class="cls-1" d="M24.92,10.49a4.3,4.3,0,0,0-1.19-2.83,5.89,5.89,0,0,1-1.34-2.6,5.39,5.39,0,0,1,1-4.46A1.23,1.23,0,0,1,25.06.19a1.19,1.19,0,0,1,.35,1.75,3.33,3.33,0,0,0,.35,4.31,6.59,6.59,0,0,1-.38,9.13,1.27,1.27,0,0,1-1.71.19,1.21,1.21,0,0,1-.25-1.68c.25-.39.56-.75.83-1.14A3.78,3.78,0,0,0,24.92,10.49Z"/><path class="cls-1" d="M44,32.93a19.34,19.34,0,0,1-5.42,12.6,1.26,1.26,0,0,1-1.79.2,1.21,1.21,0,0,1-.06-1.83A18.63,18.63,0,0,0,40,39.1a16.16,16.16,0,0,0,1.48-6A8.34,8.34,0,0,1,41.58,32,1.22,1.22,0,0,1,44,32C44,32.34,44,32.63,44,32.93Z"/><path class="cls-1" d="M34.91,47.73A1.23,1.23,0,0,1,33.7,49a1.21,1.21,0,0,1-1.23-1.24,1.25,1.25,0,0,1,1.25-1.23A1.2,1.2,0,0,1,34.91,47.73Z"/><path class="cls-1" d="M18.16,21.91A1.21,1.21,0,0,1,17,23.14a1.25,1.25,0,0,1-1.26-1.22,1.27,1.27,0,0,1,1.19-1.23A1.22,1.22,0,0,1,18.16,21.91Z"/></g></g></svg>