<svg xmlns="http://www.w3.org/2000/svg" viewBox="0 0 56.4 56.77"><defs><style>.cls-1{fill:#db8327;}</style></defs><g id="Layer_2" data-name="Layer 2"><g id="Amenities"><path class="cls-1" d="M8,0h2.55a9.11,9.11,0,0,1,4.67,2.26,8.75,8.75,0,0,1,.82,12c-.32.39-.33.62,0,1s.91.88,1.34,1.33c.24.26.43.31.73.05A15.51,15.51,0,0,1,26,13.12c1.29-.19,1.27-.21,1.29-1.54a.78.78,0,0,0-.64-.91,5.07,5.07,0,0,1-3.6-5,5.15,5.15,0,1,1,7.27,4.76C29,11,29,11,29.11,12.45v.12c0,.32.18.45.49.47a15.37,15.37,0,0,1,8.65,3.6c.26.22.43.21.65,0,.45-.47.89-.94,1.37-1.37s.39-.55.06-1a8.72,8.72,0,0,1-.51-10.47,8.9,8.9,0,0,1,6-3.82h2.55l.38.09a8.77,8.77,0,1,1-6.1,16.18c-.44-.26-.71-.24-1,.13a15.83,15.83,0,0,1-1.28,1.31c-.38.34-.43.59-.07,1A10.56,10.56,0,0,1,41.86,21a.85.85,0,0,1-.29,1.17.9.9,0,0,1-1.23-.27c-.2-.29-.37-.6-.56-.89a13.77,13.77,0,0,0-18.37-4.47c-5.19,3.06-7.52,7.72-6.93,13.74a13.1,13.1,0,0,0,3.68,7.83c.25.27.42.43.54-.09A4.49,4.49,0,0,1,21.28,35a15.26,15.26,0,0,1,2.62-.89c.24-.07.55-.1.61-.41s-.26-.37-.43-.51a7.67,7.67,0,0,1-3-4.8,14.88,14.88,0,0,1,.13-4.8,7.2,7.2,0,0,1,.89-2.32c.34-.58.81-.75,1.28-.5a.93.93,0,0,1,.29,1.35c-.12.25-.26.49-.37.75A4,4,0,0,0,23,24.47l.85-.78A2.19,2.19,0,0,1,26,23.12c.36.1.72.16,1.07.27a3.52,3.52,0,0,0,2.29,0c.29-.09.61-.15.91-.24a2.35,2.35,0,0,1,2.48.68,1.52,1.52,0,0,0,.68.53,5.35,5.35,0,0,0-4.69-4.82A6.21,6.21,0,0,0,26,20a.85.85,0,0,1-1.15-.46.88.88,0,0,1,.46-1.16,3.27,3.27,0,0,1,.51-.22A7,7,0,0,1,34.65,22a12.29,12.29,0,0,1,.57,6.49,7.43,7.43,0,0,1-2.91,4.64c-.17.15-.49.22-.44.51s.4.36.66.43a14.23,14.23,0,0,1,2.66.93,4.41,4.41,0,0,1,2.49,3c.11.49.26.41.54.12a13.83,13.83,0,0,0,3.24-5.61,14.28,14.28,0,0,0,.21-7.17.87.87,0,0,1,.68-1.14.88.88,0,0,1,1,.74c.11.47.19.94.26,1.42.2,1.31.2,1.29,1.52,1.32a.83.83,0,0,0,1-.67,5.07,5.07,0,0,1,4.94-3.57,5.15,5.15,0,1,1-4.9,6.83A1,1,0,0,0,45,29.51c-1.15,0-1.17,0-1.33,1.14a15.58,15.58,0,0,1-3.53,8c-.25.3-.24.49,0,.74.49.46,1,.92,1.41,1.42.31.35.54.36.92.08a8.3,8.3,0,0,1,6.24-1.53A8.78,8.78,0,0,1,54.11,53.9a9,9,0,0,1-5.18,2.87H46.27l-.75-.19A8.51,8.51,0,0,1,41.14,54a8.68,8.68,0,0,1-.67-11.06c.25-.36.22-.56-.08-.83-.5-.47-1-1-1.44-1.46-.25-.26-.43-.31-.73,0a15.53,15.53,0,0,1-7.84,3.51c-1.29.19-1.26.21-1.29,1.54a.79.79,0,0,0,.66.9,5.16,5.16,0,1,1-3.17,0,.85.85,0,0,0,.71-1c0-1.28,0-1.3-1.24-1.48a15.71,15.71,0,0,1-7.93-3.55c-.26-.23-.43-.19-.65,0-.44.47-.89.95-1.37,1.37S15.71,42.6,16,43a8.7,8.7,0,0,1-1.2,11.36,9,9,0,0,1-5,2.37h-2l-.38-.08a8.49,8.49,0,0,1-7.1-6.56,8.31,8.31,0,0,1,3.11-9,8.57,8.57,0,0,1,10.33-.31c.48.33.76.29,1.12-.11s.85-.88,1.29-1.3a.45.45,0,0,0,.05-.74,15.4,15.4,0,0,1-3.51-7.89c-.18-1.23-.2-1.2-1.47-1.24-.59,0-.82.19-1,.75a5.13,5.13,0,0,1-5.6,3.46,5.16,5.16,0,0,1,0-10.21,5.1,5.1,0,0,1,5.61,3.43.93.93,0,0,0,1.1.77c1.18,0,1.2,0,1.36-1.17a15.65,15.65,0,0,1,3.52-7.95c.24-.29.25-.48,0-.74-.51-.48-1-1-1.49-1.49a.61.61,0,0,0-.9-.12,8.54,8.54,0,0,1-5.25,1.22A8.78,8.78,0,0,1,2,3.91,8.89,8.89,0,0,1,8,0ZM28.3,42.45a13.49,13.49,0,0,0,7.24-2.1.94.94,0,0,0,.5-.9c0-1.65-.67-2.52-2.42-3.16a1.15,1.15,0,0,0-1,.09c-1,.63-2.1,1.23-3.15,1.85a2.19,2.19,0,0,1-2.45,0c-1-.63-2.1-1.23-3.16-1.85a.86.86,0,0,0-.67-.2c-1.6.45-2.79,1.23-2.8,3.14a1.09,1.09,0,0,0,.59,1.08A13.86,13.86,0,0,0,28.3,42.45ZM22.8,27.18A6.55,6.55,0,0,0,27.67,33a2.36,2.36,0,0,0,.38,0c2.78.07,5.93-3.5,5.53-6.24a.53.53,0,0,0-.41-.46,3,3,0,0,1-1.34-.85A1.35,1.35,0,0,0,30.11,25a5.1,5.1,0,0,1-3.63.06C26.31,25,26.12,25,26,25a1,1,0,0,0-1.19.31,3,3,0,0,1-1.3.93C22.9,26.37,22.69,26.7,22.8,27.18ZM52.74,12.74a6.87,6.87,0,0,0-1-9.21,7,7,0,0,0-9.7.36,6.84,6.84,0,0,0-.59,8.81,5.91,5.91,0,0,1,1.62-2.35c.42-.34.43-.6.2-1.06a4.21,4.21,0,1,1,7.6.08c-.1.22-.36.45-.06.69A6.63,6.63,0,0,1,52.74,12.74Zm-37.81,0a6.9,6.9,0,0,0-1.07-9.3,7,7,0,0,0-9.66.48,6.84,6.84,0,0,0-.55,8.77,5.86,5.86,0,0,1,1.63-2.36c.41-.33.42-.6.19-1.06A4.21,4.21,0,0,1,11.65,4a4.22,4.22,0,0,1,1.4,5.4c-.1.2-.31.41,0,.64A6.41,6.41,0,0,1,14.93,12.75Zm25.7,35.4a6.41,6.41,0,0,0,.94,3.44c.08.13.13.35.31.36s.21-.23.28-.37a5.73,5.73,0,0,1,1.53-2,.54.54,0,0,0,.14-.8,4,4,0,0,1-.3-3.06,4.21,4.21,0,1,1,7.85,3c-.2.42-.23.66.17,1a5.38,5.38,0,0,1,1.48,2c.06.13.07.33.24.34s.22-.18.29-.3a6.8,6.8,0,0,0,1-4.42,7,7,0,0,0-13.89.92ZM15.78,48a11.32,11.32,0,0,0-.09-1.16A7,7,0,1,0,2.78,51.54c.08.13.13.34.32.33s.23-.23.29-.37a5.54,5.54,0,0,1,1.42-1.89.65.65,0,0,0,.21-1,4.21,4.21,0,1,1,7.49.14c-.15.31-.14.48.14.7a5.88,5.88,0,0,1,1.6,2.09c.06.13.06.34.23.35s.24-.21.32-.35A6.77,6.77,0,0,0,15.78,48ZM28.16,2.44a3.27,3.27,0,0,0-3.3,3.35,3.33,3.33,0,1,0,6.66,0A3.26,3.26,0,0,0,28.16,2.44ZM54.35,28.63A3.26,3.26,0,0,0,51,25.28a3.35,3.35,0,0,0-3.4,3.35A3.41,3.41,0,0,0,51,32,3.33,3.33,0,0,0,54.35,28.63ZM31.52,51.45a3.33,3.33,0,1,0-3.33,3.33A3.27,3.27,0,0,0,31.52,51.45ZM2,28.59A3.32,3.32,0,0,0,5.33,32a3.42,3.42,0,0,0,3.41-3.36,3.34,3.34,0,0,0-3.36-3.33A3.25,3.25,0,0,0,2,28.59ZM9.27,15.71A7.24,7.24,0,0,0,13,14.64a.64.64,0,0,0,.38-.77,4.3,4.3,0,0,0-1.54-2.42.69.69,0,0,0-.77-.11,4.12,4.12,0,0,1-3.53,0,.74.74,0,0,0-.86.14,4.36,4.36,0,0,0-1.45,2.24.71.71,0,0,0,.36.92A7.28,7.28,0,0,0,9.27,15.71Zm37.84,0a7.28,7.28,0,0,0,3.72-1.08.67.67,0,0,0,.34-.84,4.33,4.33,0,0,0-1.5-2.33.73.73,0,0,0-.82-.11,4.08,4.08,0,0,1-3.48,0,.77.77,0,0,0-.91.15A4.42,4.42,0,0,0,43,13.76a.71.71,0,0,0,.35.88A7.24,7.24,0,0,0,47.11,15.71ZM8.8,55a6.66,6.66,0,0,0,3.74-1.07c.24-.15.44-.29.36-.65a4.25,4.25,0,0,0-1.61-2.57.57.57,0,0,0-.66-.08,4.1,4.1,0,0,1-3.63,0,.62.62,0,0,0-.72.08,4.17,4.17,0,0,0-1.56,2.47.59.59,0,0,0,.32.73A6.79,6.79,0,0,0,8.8,55Zm38.89.07a7.22,7.22,0,0,0,3.7-1.14.6.6,0,0,0,.27-.75,4.21,4.21,0,0,0-1.57-2.42.62.62,0,0,0-.71-.07,4.24,4.24,0,0,1-3.6,0,.62.62,0,0,0-.71.09,4.28,4.28,0,0,0-1.56,2.42.63.63,0,0,0,.33.78A7.46,7.46,0,0,0,47.69,55.05ZM11.2,46.82a2.38,2.38,0,0,0-2.41-2.43,2.42,2.42,0,0,0-2.41,2.44,2.36,2.36,0,0,0,2.39,2.38A2.34,2.34,0,0,0,11.2,46.82ZM47.11,5.12a2.43,2.43,0,0,0-2.46,2.4,2.45,2.45,0,0,0,4.89,0A2.43,2.43,0,0,0,47.11,5.12ZM45.18,46.83a2.41,2.41,0,1,0,2.44-2.42A2.44,2.44,0,0,0,45.18,46.83ZM9.3,5.12a2.43,2.43,0,0,0-2.46,2.4,2.45,2.45,0,0,0,4.89,0A2.43,2.43,0,0,0,9.3,5.12Zm19,31.65c.08,0,.24-.1.38-.18.56-.32,1.12-.64,1.67-1,.16-.1.52-.16.32-.45s-.27-.77-.72-.63a5.52,5.52,0,0,1-3.48,0c-.46-.15-.54.36-.73.61s.14.36.3.46c.55.34,1.11.66,1.67,1A.94.94,0,0,0,28.29,36.77Z"/></g></g></svg>