<svg xmlns="http://www.w3.org/2000/svg" viewBox="0 0 60.49 60.48"><defs><style>.cls-1{fill:#db8327;}</style></defs><g id="Layer_2" data-name="Layer 2"><g id="Amenities"><path class="cls-1" d="M4.18,60.48a4.73,4.73,0,0,1-3.12-1.6A4.48,4.48,0,0,1,.83,53.4a4.44,4.44,0,0,1,5.25-1.54.85.85,0,0,0,1.12-.23q3.87-4,7.78-7.91a.59.59,0,0,0,0-1,19.34,19.34,0,0,1-4.49-13.63A19.13,19.13,0,0,1,15,17.73c.32-.39.32-.6,0-1q-3.89-3.91-7.74-7.86a.75.75,0,0,0-1-.21A4.4,4.4,0,0,1,.22,6,4.42,4.42,0,0,1,3.46.3,4.21,4.21,0,0,1,7.89,1.84a4.21,4.21,0,0,1,.55,4.75.76.76,0,0,0,.16,1q3.86,3.87,7.66,7.78c.35.36.58.42.95,0a7.85,7.85,0,0,1,1.14-.93.94.94,0,0,1,1.33.11.88.88,0,0,1-.14,1.31A34.67,34.67,0,0,0,17,18.35a18.31,18.31,0,0,0-3.37,5.5,4.32,4.32,0,0,0-.16.51.45.45,0,0,0,.06.13,1.67,1.67,0,0,0,.2-.08,19,19,0,0,1,6.37-3.25,1.08,1.08,0,0,0,.78-.78,19,19,0,0,1,3.42-6.68,2.82,2.82,0,0,0,.13-.28,9.13,9.13,0,0,0-1.48.54,1,1,0,0,1-1.36-.42,1,1,0,0,1,.63-1.32,19.53,19.53,0,0,1,17.93.94,16.41,16.41,0,0,1,3.19,2.31c.32.3.54.34.87,0,2.6-2.67,5.21-5.31,7.82-8a.59.59,0,0,0,.13-.82A4.47,4.47,0,0,1,56,.16,4.54,4.54,0,0,1,60.25,3.1c.07.2.16.4.24.6V5.47c0,.11-.09.22-.12.33a4.43,4.43,0,0,1-6.26,2.82c-.4-.18-.57,0-.79.24l-7.63,7.8c-.58.59-.58.59-.07,1.22A19.19,19.19,0,0,1,50,29.79a19.14,19.14,0,0,1-4.44,12.87c-.36.45-.36.71.05,1.12,2.61,2.62,5.19,5.27,7.77,7.92a.78.78,0,0,0,1,.19,4.3,4.3,0,0,1,3.81.2,4.71,4.71,0,0,1,2.3,3.08v1.77a8.35,8.35,0,0,1-.88,1.77,4.78,4.78,0,0,1-3.26,1.77h-.59l-.28-.08a4.42,4.42,0,0,1-3.35-6.46A.66.66,0,0,0,52,53c-2.5-2.51-5-5-7.46-7.56-.92-.93-.62-.91-1.63-.08a19.36,19.36,0,0,1-14.82,4.5A19,19,0,0,1,17.22,45c-.33-.29-.53-.32-.86,0q-3.94,4-7.91,8a.56.56,0,0,0-.09.81,4.28,4.28,0,0,1-.09,4.38,4.55,4.55,0,0,1-3.5,2.22ZM31.23,44.34c0,1,0,2,0,3.07,0,.45.16.56.57.4a6.69,6.69,0,0,0,2.3-1.52,15.38,15.38,0,0,0,3.43-5.78c.15-.4,0-.45-.34-.36a6.83,6.83,0,0,1-1,.17c-.65.06-1.06-.22-1.15-.75a.94.94,0,0,1,.83-1.09c.63-.16,1.27-.29,1.9-.4a.7.7,0,0,0,.64-.63,34.38,34.38,0,0,0,0-14.39.77.77,0,0,0-.68-.69,36.2,36.2,0,0,0-3.89-.62,34.29,34.29,0,0,0-11,.61.88.88,0,0,0-.78.8,34.52,34.52,0,0,0,0,14.1,1,1,0,0,0,.9.88,34.59,34.59,0,0,0,8.9.72,3.22,3.22,0,0,1,.88,0,.92.92,0,0,1,.06,1.8,2.25,2.25,0,0,1-.81.09c-.62-.06-.78.21-.76.79C31.26,42.49,31.23,43.42,31.23,44.34ZM36,47.09C41.45,45.4,46,40.29,47.05,36c0,0-.09,0-.11,0a19.85,19.85,0,0,1-6.73,3.42.71.71,0,0,0-.49.53A20.11,20.11,0,0,1,36,47.09ZM24.39,47a20.64,20.64,0,0,1-3.53-6.89,1.13,1.13,0,0,0-.84-.86c-.66-.2-1.3-.45-1.94-.7a18.46,18.46,0,0,1-4.71-2.72A17.58,17.58,0,0,0,24.39,47ZM47.15,24.62A17.9,17.9,0,0,0,36,13.34a1.24,1.24,0,0,0,.13.28A18.16,18.16,0,0,1,39.53,20a1.77,1.77,0,0,0,1.29,1.32A18.46,18.46,0,0,1,47.15,24.62Zm-24.3-4.3a2.09,2.09,0,0,0,.36,0,33.44,33.44,0,0,1,5.56-.62c.45,0,.53-.28.53-.67,0-1.71,0-3.42,0-5.13,0-.43.24-1.07-.12-1.26s-.93.2-1.34.46C25.14,14.78,23.93,17.46,22.85,20.32Zm6.44,24.09c0-1,0-2,0-3.06,0-.4-.13-.55-.54-.56a32.49,32.49,0,0,1-5.38-.62c-.45-.09-.53,0-.37.42a18,18,0,0,0,2.19,4.28,8,8,0,0,0,3.47,2.92c.46.18.65.1.63-.43C29.27,46.38,29.29,45.4,29.29,44.41Zm8.13-24c.19.05.22-.09.12-.37a16.69,16.69,0,0,0-2.82-5.13,6.89,6.89,0,0,0-2.83-2.15c-.56-.21-.66-.15-.66.46,0,2,0,3.93,0,5.89,0,.45.18.64.62.65s1.06.05,1.59.08A31.91,31.91,0,0,1,37.42,20.36Zm7.06,8.92c1,0,2,0,3,0,.48,0,.54-.19.38-.57a6.42,6.42,0,0,0-1.49-2.18,14.76,14.76,0,0,0-5.43-3.22c-.54-.21-.44.14-.39.45a27.59,27.59,0,0,1,.54,5c0,.4.14.55.55.55C42.56,29.27,43.52,29.28,44.48,29.28ZM16,29.28c.89,0,1.77,0,2.65,0,.61,0,.82-.2.83-.76A28.12,28.12,0,0,1,20,23.68c.08-.42,0-.52-.41-.37a16.42,16.42,0,0,0-4.73,2.6,6.94,6.94,0,0,0-2.12,2.71c-.23.57-.17.66.42.66Zm0,1.93c-.67,0-1.34,0-2,0-.46,0-1.11-.24-1.31.17s.24,1,.52,1.36c1.59,2.32,4,3.49,6.5,4.45.34.12.37-.05.32-.32s-.14-.69-.19-1A27.88,27.88,0,0,1,19.47,32c0-.5-.14-.81-.75-.78C17.82,31.25,16.91,31.21,16,31.21Zm28.49,0H41.61c-.39,0-.57.12-.57.54a26.43,26.43,0,0,1-.56,5c-.08.44,0,.53.46.37a16.66,16.66,0,0,0,4.49-2.42,7.17,7.17,0,0,0,2.29-2.8c.27-.64.23-.7-.45-.71ZM58.59,56a2.53,2.53,0,1,0-5.05.06A2.53,2.53,0,1,0,58.59,56Zm0-51.35a2.53,2.53,0,1,0-5.05,0,2.53,2.53,0,1,0,5.05,0ZM7,56a2.55,2.55,0,0,0-2.5-2.61,2.56,2.56,0,0,0-.08,5.12A2.53,2.53,0,0,0,7,56ZM7,4.67A2.53,2.53,0,0,0,4.48,2.08,2.57,2.57,0,0,0,1.89,4.6,2.6,2.6,0,0,0,4.42,7.2,2.55,2.55,0,0,0,7,4.67Z"/><path class="cls-1" d="M29.32,60.48a6.4,6.4,0,0,1-2-1,4.45,4.45,0,1,1,4.35.83l-.49.2Zm1-6.94a2.51,2.51,0,0,0-2.58,2.51,2.56,2.56,0,1,0,5.12.05A2.54,2.54,0,0,0,30.28,53.54Z"/><path class="cls-1" d="M60.49,31.2c-.08.2-.17.4-.24.6a4.46,4.46,0,1,1,0-3c.06.18.14.36.22.54Zm-1.9-.93a2.53,2.53,0,1,0-2.53,2.55A2.49,2.49,0,0,0,58.59,30.27Z"/><path class="cls-1" d="M34.7,4.48A4.46,4.46,0,1,1,30.39,0,4.44,4.44,0,0,1,34.7,4.48ZM30.24,7a2.54,2.54,0,0,0,2.58-2.53,2.6,2.6,0,0,0-2.55-2.57A2.57,2.57,0,0,0,27.7,4.43,2.52,2.52,0,0,0,30.24,7Z"/><path class="cls-1" d="M0,30.23a4.48,4.48,0,0,1,4.43-4.44,4.47,4.47,0,1,1,0,8.93A4.46,4.46,0,0,1,0,30.23Zm7,.06A2.54,2.54,0,0,0,4.43,27.7a2.56,2.56,0,0,0,0,5.12A2.55,2.55,0,0,0,7,30.29Z"/><path class="cls-1" d="M38.11,27.69a.93.93,0,0,1-.48,1,.91.91,0,0,1-1.05-.11,16.55,16.55,0,0,0-1.81-1.41,8.86,8.86,0,0,0-10.42,1l-.32.26a1,1,0,0,1-1.42,0,1,1,0,0,1,.17-1.42,10.47,10.47,0,0,1,5.66-2.83,10.63,10.63,0,0,1,9.1,2.75C37.83,27.12,38.12,27.4,38.11,27.69Z"/><path class="cls-1" d="M30.1,29.21a5.38,5.38,0,0,0-3.42,1.28,3,3,0,0,1-.57.42.88.88,0,0,1-1.17-.21.85.85,0,0,1,0-1.18,4.86,4.86,0,0,1,1.26-1.05,7.41,7.41,0,0,1,8.84.62,3.38,3.38,0,0,1,.53.54.87.87,0,0,1,0,1.19.88.88,0,0,1-1.23.12c-.47-.31-.87-.73-1.37-1A5.8,5.8,0,0,0,30.1,29.21Z"/><path class="cls-1" d="M33.49,32.5a.91.91,0,0,1-1.36.78,3.19,3.19,0,0,1-.47-.35,2.3,2.3,0,0,0-2.79-.09l-.43.31A.86.86,0,0,1,27.22,33a.88.88,0,0,1,0-1.27,4.23,4.23,0,0,1,6,.11A1,1,0,0,1,33.49,32.5Z"/><path class="cls-1" d="M31.13,34.67a1,1,0,0,1-1,1,1,1,0,0,1-.05-2A1,1,0,0,1,31.13,34.67Z"/></g></g></svg>