<svg xmlns="http://www.w3.org/2000/svg" viewBox="0 0 60.5 60.08"><defs><style>.cls-1{fill:#db8327;}</style></defs><g id="Layer_2" data-name="Layer 2"><g id="Amenities"><path class="cls-1" d="M60.5,32.4a35.92,35.92,0,0,1-1,5.74,30.18,30.18,0,0,1-4.63,9.75,1.23,1.23,0,0,1-1.78.46,1.28,1.28,0,0,1-.25-1.88,30.3,30.3,0,0,0,3.31-6A28.31,28.31,0,0,0,58,32.25,27.61,27.61,0,0,0,49,9.71,26.88,26.88,0,0,0,34.62,2.89a27.54,27.54,0,0,0-19.37,4A12.64,12.64,0,0,1,14,7.61a1.21,1.21,0,0,1-1.61-.42,1.18,1.18,0,0,1,.31-1.63A24.7,24.7,0,0,1,15,4.08,29.69,29.69,0,0,1,25,.47,29.84,29.84,0,0,1,44.24,3.41,29.65,29.65,0,0,1,59.63,22.76a37.26,37.26,0,0,1,.87,4.92Z"/><path class="cls-1" d="M40.35,12.91c0,1.16,0,2.32,0,3.48a.6.6,0,0,0,.51.71,4.51,4.51,0,0,1,.54,8.58.66.66,0,0,0-.46.71c0,1.73.05,3.47,0,5.19a10.47,10.47,0,0,1-6.25,9.53.84.84,0,0,0-.59.93c0,.43,0,.86,0,1.3a2.42,2.42,0,0,1-1.89,2.4.73.73,0,0,0-.65.85c0,2.52.07,5,0,7.56a3.22,3.22,0,0,0,4.1,3.33,27.61,27.61,0,0,0,10.41-4.4,3.79,3.79,0,0,1,.45-.29,1.24,1.24,0,1,1,1.36,2.06,28,28,0,0,1-2.78,1.79A30,30,0,0,1,35.87,60a5.65,5.65,0,0,1-6.81-5.64c0-2.58,0-5.15,0-7.73,0-.49-.11-.73-.64-.84a2.31,2.31,0,0,1-1.94-2.45A2.41,2.41,0,0,0,25,40.62a10.13,10.13,0,0,1-5.34-7.83,6,6,0,0,1-.07-.94c0-1.79,0-3.58,0-5.37a.77.77,0,0,0-.54-.84,4.31,4.31,0,0,1-2.75-3.75,4.37,4.37,0,0,1,2.21-4.32,2.52,2.52,0,0,1,1-.41c.61-.1.71-.44.71-1q0-3.28,0-6.55a3.41,3.41,0,0,1,2.1-3.23,3.39,3.39,0,0,1,3.8.54,3.34,3.34,0,0,1,1.26,2.63c0,2.23,0,4.45,0,6.67,0,.51.14.69.66.68,1.52,0,3,0,4.55,0,.5,0,.63-.18.63-.65,0-2.2,0-4.41,0-6.61a3.58,3.58,0,0,1,7.07-.82,3.7,3.7,0,0,1,.09.88C40.36,10.78,40.35,11.84,40.35,12.91Zm-10,13.14c-2.56,0-5.11,0-7.67,0-.45,0-.64.13-.62.61s0,1.22,0,1.83a24.33,24.33,0,0,0,.17,4.35,8.17,8.17,0,0,0,16.19-.7c.14-1.79,0-3.58.09-5.36,0-.58-.18-.74-.74-.73C35.3,26.06,32.82,26.05,30.34,26.05Zm-.12-2.53h3.37c2,0,4.09,0,6.13,0a2,2,0,0,0,2-2.65,2,2,0,0,0-2.19-1.42H21.07a4.78,4.78,0,0,0-.53,0,2,2,0,0,0-1.67,1.46,2,2,0,0,0,2,2.6C24,23.53,27.11,23.52,30.22,23.52ZM24.93,13.16v-.64c0-.89,0-1.77,0-2.65s-.46-1.27-1.11-1.28-1.1.46-1.16,1.29c0,.15,0,.31,0,.47v4.94c0,1.67,0,1.66,1.7,1.63.43,0,.59-.13.58-.58C24.91,15.28,24.93,14.22,24.93,13.16Zm13,0v-.64c0-.89,0-1.77,0-2.65s-.45-1.27-1.1-1.28-1.11.46-1.16,1.29c0,.15,0,.31,0,.47v4.94c0,1.67,0,1.66,1.71,1.63.42,0,.59-.13.58-.58C37.89,15.28,37.91,14.22,37.91,13.16ZM30.24,43.35h.94c.68,0,.43-.5.47-.84s-.13-.55-.51-.5a5.06,5.06,0,0,1-1.4,0c-.8-.13-.83-.06-.84.73,0,.43.13.62.57.58C29.73,43.34,30,43.35,30.24,43.35Z"/><path class="cls-1" d="M9.9,55.8a5.07,5.07,0,0,1-4.58-7.46.91.91,0,0,0-.06-1.11A28.91,28.91,0,0,1,.44,35.36,30.09,30.09,0,0,1,2.55,18.05a32,32,0,0,1,2.94-5.23,1.28,1.28,0,0,1,1.42-.61,1.16,1.16,0,0,1,.9,1,1.5,1.5,0,0,1-.38,1.2,29,29,0,0,0-2.67,4.85,27.42,27.42,0,0,0-2.06,7.9A27.9,27.9,0,0,0,7.29,45.82c.22.34.43.27.74.17a5,5,0,1,1,2.7,9.7C10.4,55.75,10.07,55.78,9.9,55.8Zm-.16-2.52a2.5,2.5,0,0,0,2.56-2.52,2.57,2.57,0,0,0-2.58-2.59,2.6,2.6,0,0,0-2.54,2.59A2.53,2.53,0,0,0,9.74,53.28Z"/><path class="cls-1" d="M9.6,8.6a1.23,1.23,0,0,1,1.23,1.18,1.27,1.27,0,0,1-1.26,1.28,1.23,1.23,0,0,1-1.2-1.21A1.25,1.25,0,0,1,9.6,8.6Z"/><path class="cls-1" d="M49.6,50.75A1.22,1.22,0,1,1,50.77,52,1.21,1.21,0,0,1,49.6,50.75Z"/><path class="cls-1" d="M31.32,30.2c2,.35,2.24,1,1.32,2.61-.67,1.19-1.33,2.37-2,3.54a1.24,1.24,0,1,1-2.18-1.16c.36-.66.73-1.31,1.1-2,.19-.32.15-.46-.25-.44a5.63,5.63,0,0,1-.71,0,1.2,1.2,0,0,1-.95-1.9c1-1.38,2.09-2.71,3.18-4a1.19,1.19,0,0,1,1.66-.13,1.21,1.21,0,0,1,.24,1.64C32.29,29,31.81,29.55,31.32,30.2Z"/></g></g></svg>