<svg xmlns="http://www.w3.org/2000/svg" viewBox="0 0 46 46"><defs><style>.cls-1{fill:#1f325c;}.cls-2{fill:#fff;}</style></defs><g id="Layer_2" data-name="Layer 2"><g id="Navigation"><path class="cls-1" d="M46,23c0,.75,0,1.5-.11,2.25s-.19,1.5-.33,2.24S45.23,29,45,29.68a22.25,22.25,0,0,1-.76,2.12,23.78,23.78,0,0,1-2.13,4,19.67,19.67,0,0,1-1.34,1.81,24,24,0,0,1-3.19,3.19,22.94,22.94,0,0,1-3.75,2.5,21.17,21.17,0,0,1-2,1,22.25,22.25,0,0,1-2.12.76c-.72.22-1.45.4-2.19.55a21.22,21.22,0,0,1-2.24.33C24.5,46,23.75,46,23,46s-1.5,0-2.25-.11a21.22,21.22,0,0,1-2.24-.33c-.74-.15-1.47-.33-2.19-.55a22.25,22.25,0,0,1-2.12-.76,21.17,21.17,0,0,1-2-1,22.94,22.94,0,0,1-3.75-2.5,24,24,0,0,1-3.19-3.19,19.67,19.67,0,0,1-1.34-1.81,23.78,23.78,0,0,1-2.13-4A22.25,22.25,0,0,1,1,29.68C.77,29,.59,28.23.44,27.49a21.22,21.22,0,0,1-.33-2.24C0,24.5,0,23.75,0,23s0-1.5.11-2.25a21.22,21.22,0,0,1,.33-2.24C.59,17.77.77,17,1,16.32a22.25,22.25,0,0,1,.76-2.12,21.17,21.17,0,0,1,1-2,22.94,22.94,0,0,1,2.5-3.75A24,24,0,0,1,8.41,5.22a22.94,22.94,0,0,1,3.75-2.5,21.17,21.17,0,0,1,2-1A22.25,22.25,0,0,1,16.32,1C17,.77,17.77.59,18.51.44S20,.19,20.75.11,22.25,0,23,0s1.5,0,2.25.11,1.5.19,2.24.33S29,.77,29.68,1a22.25,22.25,0,0,1,2.12.76,23.78,23.78,0,0,1,4,2.13,21.13,21.13,0,0,1,1.81,1.34,24,24,0,0,1,3.19,3.19,22.94,22.94,0,0,1,2.5,3.75,21.17,21.17,0,0,1,1,2A22.25,22.25,0,0,1,45,16.32c.22.72.4,1.45.55,2.19s.26,1.49.33,2.24S46,22.25,46,23Z"/><path class="cls-2" d="M27.14,17a2.25,2.25,0,0,1,2.25,2.25v7.5A2.25,2.25,0,0,1,27.14,29H25.67V24.35h1.56l.23-1.81H25.67V21.38a.94.94,0,0,1,.19-.65.89.89,0,0,1,.71-.22h.95V18.88a11.69,11.69,0,0,0-1.39-.07,2.32,2.32,0,0,0-1.7.63,2.37,2.37,0,0,0-.63,1.76v1.34H22.23v1.81H23.8V29H19.64a2.25,2.25,0,0,1-2.25-2.25v-7.5A2.25,2.25,0,0,1,19.64,17Z"/></g></g></svg>