<svg xmlns="http://www.w3.org/2000/svg" viewBox="0 0 59.66 59.64"><defs><style>.cls-1{fill:#db8327;}</style></defs><g id="Layer_2" data-name="Layer 2"><g id="Amenities"><path class="cls-1" d="M27.52,59.64c-1-.18-2-.29-3-.53a17.67,17.67,0,0,1-11.91-9.28A28.12,28.12,0,0,1,9.43,39.25c-.06-.49-.08-1-.12-1.45a2.78,2.78,0,0,1,1.27-2.59,13,13,0,0,1,4.73-2,48.62,48.62,0,0,1,8.91-1.31c1.74-.12,3.48-.21,5.23-.21a1.7,1.7,0,0,1,.74.09.9.9,0,0,1,.62.89.89.89,0,0,1-.64.94,1.86,1.86,0,0,1-.62.09,69.42,69.42,0,0,0-9.34.6,31.26,31.26,0,0,0-6.89,1.62,6,6,0,0,0-1.55.8c-.61.47-.61.83,0,1.27a6.25,6.25,0,0,0,1,.57,26.14,26.14,0,0,0,6.62,1.72A68.74,68.74,0,0,0,32.25,41,48.78,48.78,0,0,0,45.46,39.1a9.76,9.76,0,0,0,2.13-.91c1-.62,1-1,0-1.59a14.93,14.93,0,0,0-4.19-1.37c-1.09-.23-2.21-.4-3.31-.6a1,1,0,0,1-.92-1.14,1,1,0,0,1,1.1-.87A31,31,0,0,1,48,34.51l0,0c2,.9,2.53,1.74,2.35,3.89a29.08,29.08,0,0,1-2.83,10.62,18.35,18.35,0,0,1-8.11,8.54,19.28,19.28,0,0,1-6.72,2l-.51.09Zm2.75-1.91c.59,0,1.62-.09,2.64-.23a15.72,15.72,0,0,0,9.31-4.34,19.85,19.85,0,0,0,4.77-8c.06-.17.21-.41.09-.54s-.39,0-.59.08-.33.1-.5.14a54.47,54.47,0,0,1-13.68,1.74c-2.74.06-5.47.07-8.2-.12-1.68-.11-3.36-.27-5-.51A37.53,37.53,0,0,1,13,44.65c-.33-.11-.45,0-.32.31s.29.88.46,1.31a17.69,17.69,0,0,0,6.33,8.5C22.55,57,26.1,57.67,30.27,57.73Zm-.45-13c.64,0,1.28-.08,1.92-.09a62.8,62.8,0,0,0,9.49-.74,28.42,28.42,0,0,0,6-1.52,1,1,0,0,0,.69-.83,8.6,8.6,0,0,1,.15-.86c.06-.38,0-.58-.45-.36a10.12,10.12,0,0,1-1.18.49,40.42,40.42,0,0,1-9.8,1.86,83.35,83.35,0,0,1-9.35.24,61.25,61.25,0,0,1-6.9-.52,29.33,29.33,0,0,1-8.48-2.12c-.11-.06-.24-.15-.33.07a2.28,2.28,0,0,0,.85,2,21.47,21.47,0,0,0,3.11,1A69,69,0,0,0,29.82,44.71Z"/><path class="cls-1" d="M4.93,59.64a2.88,2.88,0,0,1-2.13-3.2c0-7.06,0-14.13,0-21.19a1,1,0,0,0-.67-1.1A3.54,3.54,0,0,1,0,30.77c0-3.07,0-6.13,0-9.2a1,1,0,0,1,.72-1.06.94.94,0,0,1,1.07.41A1.26,1.26,0,0,1,2,21.7c0,1.55,0,3.11,0,4.66,0,.52.17.68.67.65a8.78,8.78,0,0,1,1.45,0c.45,0,.61-.13.61-.6,0-1.63,0-3.26,0-4.89a1,1,0,0,1,.65-1,.94.94,0,0,1,1.06.29,1.12,1.12,0,0,1,.23.81c0,1.59,0,3.19,0,4.78,0,.45.14.62.6.6a9.52,9.52,0,0,1,1.51,0c.5,0,.62-.18.61-.65,0-1.61,0-3.22,0-4.83a1,1,0,0,1,1.22-1,.91.91,0,0,1,.72.94c0,3.24.05,6.48,0,9.72a3.3,3.3,0,0,1-2.11,3,1,1,0,0,0-.67,1.1q0,10.59,0,21.19a2.89,2.89,0,0,1-2.14,3.2ZM4.74,45.09V56.32a2.17,2.17,0,0,0,.09.8.84.84,0,0,0,1.6,0,2.41,2.41,0,0,0,.09-.92V33.91c0-1,.17-1.17,1.12-1.34A1.84,1.84,0,0,0,9.27,31c.07-.51,0-1,.05-1.57,0-.35-.14-.47-.49-.47H2.43c-.34,0-.5.11-.49.47s0,.85,0,1.28a1.88,1.88,0,0,0,1.67,1.87c1,.18,1.12.37,1.12,1.35Z"/><path class="cls-1" d="M53.37,59.64a2.89,2.89,0,0,1-2.14-3.2q0-10.62,0-21.24A1.48,1.48,0,0,0,50.76,34c-3.24-3.21-2.86-8.71-.51-11.59a4.69,4.69,0,0,1,7.64,0,9.37,9.37,0,0,1,1.77,4.12v3A8.68,8.68,0,0,1,57.37,34a1.52,1.52,0,0,0-.48,1.18c0,7.08,0,14.15,0,21.23a2.89,2.89,0,0,1-2.13,3.2Zm-.19-14.31v11a2,2,0,0,0,.09.8.84.84,0,0,0,.8.57.83.83,0,0,0,.8-.58,2.28,2.28,0,0,0,.09-.86c0-7,0-14.09,0-21.13A3,3,0,0,1,56,32.57c2.39-2.16,2.29-7.1-.05-9.3a2.67,2.67,0,0,0-4.28.62,7,7,0,0,0-1.1,5.6,5.26,5.26,0,0,0,2,3.45,1.53,1.53,0,0,1,.65,1.39C53.17,38,53.18,41.66,53.18,45.33Z"/><path class="cls-1" d="M13.39,3.39a19.17,19.17,0,0,1,.14-2.27c.1-1,.67-1.33,1.58-1a62.33,62.33,0,0,0,7.78,2.38,12.9,12.9,0,0,0,1.95.28A8.46,8.46,0,0,1,31.5,6.4a7.65,7.65,0,0,1-.26,10.08A3.56,3.56,0,0,1,29,17.84a17.41,17.41,0,0,1-6.63.15,10.56,10.56,0,0,1-7.78-7.07A21.57,21.57,0,0,1,13.39,3.39Zm2,.78a17.89,17.89,0,0,0,.95,5.94,8.38,8.38,0,0,0,5.89,5.77,13.08,13.08,0,0,0,4.62.3c.17,0,.39.05.46-.16s-.15-.25-.25-.37l-4.6-5.1c-.71-.79-1.44-1.57-2.13-2.39a.94.94,0,0,1,.05-1.4,1,1,0,0,1,1.41.08c.21.2.4.42.59.64Q25.8,11.22,29.15,15c.31.35.51.37.8,0a5.73,5.73,0,0,0,1.27-3.2A6.87,6.87,0,0,0,26,4.94c-1.19-.27-2.42-.23-3.62-.51a63.87,63.87,0,0,1-6.24-1.85c-.66-.23-.66-.23-.68.48Z"/><path class="cls-1" d="M37.18,27.29a4.88,4.88,0,0,1-4.9-4.11A8,8,0,0,1,36.93,14a19.9,19.9,0,0,1,6-1.85,7.53,7.53,0,0,1,2.37.07,1,1,0,0,1,.94,1.34,60.71,60.71,0,0,0-.94,7.72,5.87,5.87,0,0,1-3.7,5A11.3,11.3,0,0,1,37.18,27.29Zm-3.12-5.94a5.13,5.13,0,0,0,.4,2c.07.17.1.43.31.46s.27-.24.38-.39c1.23-1.71,2.45-3.44,3.69-5.15A1,1,0,0,1,40.3,18a1,1,0,0,1,.15,1.45,4,4,0,0,1-.23.34l-3.51,4.92c-.09.12-.25.25-.19.4s.3.14.46.13a8.65,8.65,0,0,0,4.19-1,3.9,3.9,0,0,0,2.18-3.45c0-.74.11-1.47.16-2.21.1-1.37.3-2.73.53-4.08,0-.22.12-.42-.27-.4a14.65,14.65,0,0,0-7.05,2.32A5.9,5.9,0,0,0,34.06,21.35Z"/><path class="cls-1" d="M31.67,33.57c0-.89,0-1.78,0-2.67s.35-1.1,1.11-1.1c1.14,0,2.29,0,3.43,0a1.08,1.08,0,0,1,1.13.73c.59,1.47,1.19,2.94,1.76,4.42a1,1,0,0,1-.8,1.48c-1.77.33-3.55.63-5.33.88-.9.13-1.29-.26-1.3-1.18Zm1.95-.13c0,.43,0,.85,0,1.28s.11.46.46.39c.7-.13,1.41-.27,2.12-.34s.65-.31.4-.78a9.29,9.29,0,0,1-.37-.92c-.55-1.36-.55-1.36-2-1.33H34c-.3,0-.42.13-.41.42Z"/><path class="cls-1" d="M22.33,24.48c0-.69.22-1.06.71-1.19,1.23-.33,2.47-.64,3.71-.94a1,1,0,0,1,1.16.47c.59.88,1.19,1.76,1.77,2.66a1,1,0,0,1-.31,1.5q-2.28,1.41-4.59,2.75a1,1,0,0,1-1.46-.54C22.94,27.57,22.63,25.93,22.33,24.48Zm2.22.8c.12.57.22,1.14.35,1.71.05.25.22.23.4.12L27.19,26c.21-.12.23-.24.11-.47-.54-1-.58-1.07-1.74-.78l-.73.19C24.65,25,24.52,25.06,24.55,25.28Z"/><path class="cls-1" d="M24.22,37.23A2.84,2.84,0,1,1,27,40.12,2.79,2.79,0,0,1,24.22,37.23Zm3.7.08a.87.87,0,1,0-.89.84A.93.93,0,0,0,27.92,37.31Z"/><path class="cls-1" d="M24.3,54a1,1,0,0,1-1.44.89,10,10,0,0,1-6-6,1,1,0,0,1,.54-1.4,1,1,0,0,1,1.31.72A8.17,8.17,0,0,0,23.37,53C23.85,53.19,24.29,53.42,24.3,54Z"/><path class="cls-1" d="M27.1,55c0,.94,0,.94-1,.94s-.94,0-.94-1S25.08,54,26.22,54C27.1,54,27.1,54,27.1,55Z"/></g></g></svg>