<svg xmlns="http://www.w3.org/2000/svg" viewBox="0 0 46 46"><defs><style>.cls-1{fill:#1f325c;}.cls-2{fill:#fff;}</style></defs><g id="Layer_2" data-name="Layer 2"><g id="Navigation"><path class="cls-1" d="M46,23c0,.75,0,1.5-.11,2.25a21.22,21.22,0,0,1-.33,2.24c-.15.74-.33,1.47-.55,2.19a22.25,22.25,0,0,1-.76,2.12,23.78,23.78,0,0,1-2.13,4,19.67,19.67,0,0,1-1.34,1.81,24,24,0,0,1-3.19,3.19,22.94,22.94,0,0,1-3.75,2.5,21.17,21.17,0,0,1-2,1,22.25,22.25,0,0,1-2.12.76c-.72.22-1.45.4-2.19.55a21.22,21.22,0,0,1-2.24.33C24.5,46,23.75,46,23,46s-1.5,0-2.25-.11a21.22,21.22,0,0,1-2.24-.33c-.74-.15-1.47-.33-2.19-.55a22.25,22.25,0,0,1-2.12-.76,21.17,21.17,0,0,1-2-1,22.94,22.94,0,0,1-3.75-2.5,24,24,0,0,1-3.19-3.19,19.67,19.67,0,0,1-1.34-1.81,23.78,23.78,0,0,1-2.13-4A22.25,22.25,0,0,1,1,29.68C.77,29,.59,28.23.44,27.49a21.22,21.22,0,0,1-.33-2.24C0,24.5,0,23.75,0,23s0-1.5.11-2.25a21.22,21.22,0,0,1,.33-2.24C.59,17.77.77,17,1,16.32a22.25,22.25,0,0,1,.76-2.12,21.17,21.17,0,0,1,1-2,22.94,22.94,0,0,1,2.5-3.75A24,24,0,0,1,8.41,5.22a22.94,22.94,0,0,1,3.75-2.5,21.17,21.17,0,0,1,2-1A22.25,22.25,0,0,1,16.32,1C17,.77,17.77.59,18.51.44S20,.19,20.75.11,22.25,0,23,0s1.5,0,2.25.11,1.5.19,2.24.33S29,.77,29.68,1a22.25,22.25,0,0,1,2.12.76,23.78,23.78,0,0,1,4,2.13,21.13,21.13,0,0,1,1.81,1.34,24,24,0,0,1,3.19,3.19,22.94,22.94,0,0,1,2.5,3.75,21.17,21.17,0,0,1,1,2A22.25,22.25,0,0,1,45,16.32c.22.72.4,1.45.55,2.19a21.22,21.22,0,0,1,.33,2.24C46,21.5,46,22.25,46,23Z"/><path class="cls-2" d="M28.8,18.54v8.92A1.55,1.55,0,0,1,27.26,29H18.34a1.48,1.48,0,0,1-1.09-.45,1.5,1.5,0,0,1-.45-1.09V18.54a1.5,1.5,0,0,1,.45-1.09A1.48,1.48,0,0,1,18.34,17h8.92a1.55,1.55,0,0,1,1.54,1.54Zm-1.36,8.6V22.08H26.38a3.2,3.2,0,0,1,.16,1,3.51,3.51,0,0,1-.5,1.82,3.64,3.64,0,0,1-1.36,1.31,3.82,3.82,0,0,1-4.51-.57,3.43,3.43,0,0,1-1.09-2.56,3.5,3.5,0,0,1,.15-1h-1.1v5.06a.48.48,0,0,0,.48.48H27a.49.49,0,0,0,.34-.14A.46.46,0,0,0,27.44,27.14Zm-2.93-2.51a2.28,2.28,0,0,0,0-3.31,2.47,2.47,0,0,0-3.4,0,2.28,2.28,0,0,0,0,3.31,2.46,2.46,0,0,0,3.4,0Zm2.93-4.47V18.88a.55.55,0,0,0-.54-.54H25.54a.55.55,0,0,0-.54.54v1.28a.51.51,0,0,0,.16.39.52.52,0,0,0,.38.15H26.9a.52.52,0,0,0,.38-.15A.51.51,0,0,0,27.44,20.16Z"/></g></g></svg>