<svg xmlns="http://www.w3.org/2000/svg" viewBox="0 0 49.89 46"><defs><style>.cls-1{font-size:16px;fill:#817a78;font-family:Montserrat-Regular, Montserrat;}.cls-2{fill:#1f325c;}.cls-3{fill:#fff;}</style></defs><g id="Layer_2" data-name="Layer 2"><g id="Navigation"><text class="cls-1" transform="translate(45.71 27.88)"> </text><path class="cls-2" d="M46,23c0,.75,0,1.5-.11,2.25s-.19,1.5-.33,2.24S45.23,29,45,29.68a22.25,22.25,0,0,1-.76,2.12,23.78,23.78,0,0,1-2.13,4,19.67,19.67,0,0,1-1.34,1.81,24,24,0,0,1-3.19,3.19,22.94,22.94,0,0,1-3.75,2.5,21.17,21.17,0,0,1-2,1,22.25,22.25,0,0,1-2.12.76c-.72.22-1.45.4-2.19.55a21.22,21.22,0,0,1-2.24.33C24.5,46,23.75,46,23,46s-1.5,0-2.25-.11a21.22,21.22,0,0,1-2.24-.33c-.74-.15-1.47-.33-2.19-.55a22.25,22.25,0,0,1-2.12-.76,21.17,21.17,0,0,1-2-1,22.94,22.94,0,0,1-3.75-2.5,24,24,0,0,1-3.19-3.19,19.67,19.67,0,0,1-1.34-1.81,23.78,23.78,0,0,1-2.13-4A22.25,22.25,0,0,1,1,29.68C.77,29,.59,28.23.44,27.49a21.22,21.22,0,0,1-.33-2.24C0,24.5,0,23.75,0,23s0-1.5.11-2.25a21.22,21.22,0,0,1,.33-2.24C.59,17.77.77,17,1,16.32a22.25,22.25,0,0,1,.76-2.12,21.17,21.17,0,0,1,1-2,22.94,22.94,0,0,1,2.5-3.75A24,24,0,0,1,8.41,5.22a22.94,22.94,0,0,1,3.75-2.5,21.17,21.17,0,0,1,2-1A22.25,22.25,0,0,1,16.32,1C17,.77,17.77.59,18.51.44S20,.19,20.75.11,22.25,0,23,0s1.5,0,2.25.11,1.5.19,2.24.33S29,.77,29.68,1a22.25,22.25,0,0,1,2.12.76,23.78,23.78,0,0,1,4,2.13,21.13,21.13,0,0,1,1.81,1.34,24,24,0,0,1,3.19,3.19,22.94,22.94,0,0,1,2.5,3.75,21.17,21.17,0,0,1,1,2A22.25,22.25,0,0,1,45,16.32c.22.72.4,1.45.55,2.19s.26,1.49.33,2.24S46,22.25,46,23Z"/><path class="cls-3" d="M29.23,19.18V27a2.34,2.34,0,0,1-2.34,2.33H19.11A2.34,2.34,0,0,1,16.77,27V19.18a2.25,2.25,0,0,1,.69-1.65,2.22,2.22,0,0,1,1.65-.69h7.78a2.22,2.22,0,0,1,1.65.69A2.25,2.25,0,0,1,29.23,19.18Zm-8.54.73a1,1,0,0,0-.29-.7,1.07,1.07,0,0,0-.76-.27,1.11,1.11,0,0,0-.77.27,1,1,0,0,0-.29.7.91.91,0,0,0,.29.69,1,1,0,0,0,.75.28h0a1.07,1.07,0,0,0,.77-.28A.91.91,0,0,0,20.69,19.91Zm-2,7.36h1.88V21.65H18.69Zm6.74,0h1.88V24.05a2.65,2.65,0,0,0-.6-1.89,2,2,0,0,0-1.56-.64,1.89,1.89,0,0,0-1.7.94h0v-.81H21.6c0,.35,0,2.23,0,5.62h1.87V24.13a1.3,1.3,0,0,1,.06-.46,1.22,1.22,0,0,1,.36-.48.92.92,0,0,1,.6-.2c.63,0,.94.43.94,1.28Z"/></g></g></svg>