<svg xmlns="http://www.w3.org/2000/svg" viewBox="0 0 145.08 48.67"><defs><style>.cls-1{fill:#1f325c;}</style></defs><g id="Layer_2" data-name="Layer 2"><g id="Navigation"><path class="cls-1" d="M0,35.68H5.65V.87H0V.15H8.91c1,0,2.08,0,3.15-.1s2.14,0,3.06,0C25,0,27.38,5.29,27.38,8.6c0,4.48-4.22,7.69-9,8.2v.1c4.94.41,10.69,3.41,10.69,9.26,0,6.06-4.58,10.44-14,10.44-.92,0-1.84-.05-2.85-.11s-2.09-.1-3.31-.1H0ZM10.74,16.59h4.68c3.77,0,6.36-1.63,6.36-7.89,0-7.12-4-8-7.58-8a31.57,31.57,0,0,0-3.46.16Zm0,19.09c.81,0,1.63.2,3.46.2,6.41,0,9-2.24,9-9.82,0-5.39-2.34-8.75-6.87-8.75h-5.6Z"/><path class="cls-1" d="M54.46,36H47.2V31.49h-.09c-1.09,2.43-2.93,5.18-6.9,5.18a7.86,7.86,0,0,1-4.69-1.26c-.86-.63-2.16-1.62-2.16-5.27V17.33H29.88V16.7h7.35V30.54c0,3.11.77,5.5,3.83,5.5,2.62,0,6-3.24,6-8.25V17.33H43.68V16.7H51V35.41h3.48Z"/><path class="cls-1" d="M54.23,35.41H57.7V4.17H54.23V3.53h7.35V35.41h3.47V36H54.23Z"/><path class="cls-1" d="M65,35.41h3.48V4.17H65V3.53h7.35V35.41h3.47V36H65Z"/><path class="cls-1" d="M75.78,48h3.47V17.33H75.78V16.7H83v3.79h.09a6.29,6.29,0,0,1,6.27-4.38c5.14,0,9.51,4.74,9.51,10.15S94.4,36.67,89.08,36.67a5.91,5.91,0,0,1-5.86-4.37h-.09V48H86.6v.64H75.78ZM89.21,16.74a5.35,5.35,0,0,0-4.5,2.08c-1.27,1.62-1.58,3.74-1.58,8.38,0,4,.9,8.84,5.9,8.84S94.4,32,94.4,25.72C94.4,20.22,93.41,16.74,89.21,16.74Z"/><path class="cls-1" d="M105.26,24.86c0,.59,0,1.17,0,2.12,0,4,.63,9.06,6,9.06s6.49-3.65,6.94-5.09l.68.13c-.41,1.31-1.62,5.59-7.66,5.59s-10.42-4.05-10.42-10.19a10.47,10.47,0,0,1,10.15-10.37c3.33,0,8.29,2.17,8.29,8.75Zm9.29-.63a20.43,20.43,0,0,0,.09-2.3c0-4.06-1.62-5.19-4-5.19-4.06,0-5.1,3.57-5.37,7.49Z"/><path class="cls-1" d="M119.78,35.41h3.47V17.33h-3.47V16.7H127v4.82h.09a8.12,8.12,0,0,1,7.76-5.32c4,0,6.71,1.85,6.71,6.05V35.41h3.48V36H134.26v-.63h3.47V20.85c0-2.35-1.09-4-3.43-4-3.88,0-7.17,3.6-7.17,8.38V35.41h3.47V36H119.78Z"/><path class="cls-1" d="M29.06,5.77H30.4V3.53a1.33,1.33,0,0,0,.67.13,1.28,1.28,0,0,0,.82-.26V5.77h2.45V6H31.89v5.66c0,1.3.57,1.52,1,1.52a1.58,1.58,0,0,0,1.46-1.45l.24.09a1.82,1.82,0,0,1-1.9,1.61c-1.74,0-2.32-.71-2.32-1.92V6H29.06Z"/><path class="cls-1" d="M35,13H36.3V1H35V.71h2.82V7.52h0a3.07,3.07,0,0,1,3-1.94c1.52,0,2.58.71,2.58,2.32v5h1.33v.24H40.52V13h1.34V7.36c0-.9-.42-1.54-1.32-1.54A3,3,0,0,0,37.79,9V13h1.33v.24H35Z"/><path class="cls-1" d="M47.64,8.9c0,.23,0,.45,0,.81,0,1.55.24,3.48,2.29,3.48a2.5,2.5,0,0,0,2.66-1.95l.26,0a2.76,2.76,0,0,1-2.94,2.15,3.78,3.78,0,0,1-4-3.92,4,4,0,0,1,3.9-4A3.13,3.13,0,0,1,53,8.9Zm3.57-.24c0-.33,0-.59,0-.88,0-1.56-.62-2-1.52-2-1.56,0-2,1.36-2.06,2.87Z"/></g></g></svg>