<svg xmlns="http://www.w3.org/2000/svg" viewBox="0 0 56.77 56.77"><defs><style>.cls-1{fill:#db8327;}</style></defs><g id="Layer_2" data-name="Layer 2"><g id="Amenities"><path class="cls-1" d="M34.37,0h8.76A1.9,1.9,0,0,1,44.5,1.77c0,1.35,0,2.7,0,4A1.84,1.84,0,0,1,43,7.57a6.51,6.51,0,0,1-1,.09H35.8c-.21,0-.5-.07-.61.14a1.91,1.91,0,0,0-.06,1.35c.07.36.45.24.71.24,3.2,0,6.4,0,9.59,0a11.27,11.27,0,0,1,9,4.4,11.93,11.93,0,0,1,2.35,5.49v17.3A2.37,2.37,0,0,1,54.38,38c-4.27,0-8.54,0-12.81,0-.83,0-.83,0-.83.83,0,5.17,0,10.35,0,15.52a2.44,2.44,0,0,1-1.39,2.48H29.72a2.42,2.42,0,0,1-1.39-2.47c0-5.14,0-10.27,0-15.41,0-1,0-1-.93-1H3.3A3.06,3.06,0,0,1,0,35.7V21.07a3,3,0,0,1,3.24-2.23c1.28,0,2.55,0,3.83,0,.46,0,.64-.17.75-.6A11.3,11.3,0,0,1,19.19,9.39h13c.87,0,.88,0,.88-.85,0-2,0-4.1,0-6.15A2.36,2.36,0,0,1,34.37,0ZM25.63,11.51c.06.18.23.24.35.34a11.1,11.1,0,0,1,4.33,8.84c0,4.79,0,9.57,0,14.36,0,.84,0,.84.82.84H54c.81,0,.81,0,.81-.8q0-6.87,0-13.75a11.77,11.77,0,0,0-.26-2.64,9.31,9.31,0,0,0-9.06-7.25c-6.48,0-13,0-19.45,0A.6.6,0,0,0,25.63,11.51ZM28.34,28V23.11a25.43,25.43,0,0,0-.12-3.7,9.47,9.47,0,0,0-8.31-7.94,9.36,9.36,0,0,0-9.82,6.12c-.45,1.24-.44,1.25.86,1.25,4.14,0,8.28,0,12.42,0A2.93,2.93,0,0,1,26.54,22V34.77c0,1.13,0,1.11,1.11,1.13.54,0,.71-.17.7-.7C28.33,32.8,28.34,30.39,28.34,28Zm2,18.38v7.71c0,.7.05.76.76.76H38c.71,0,.77-.06.77-.75q0-3.69,0-7.38,0-4,0-8c0-.67-.07-.74-.73-.74H35.87c-.78,0-.79,0-.79.82V51.5a3.72,3.72,0,0,1,0,.67,1,1,0,0,1-.94.86,1,1,0,0,1-1-.77,3.29,3.29,0,0,1-.08-.83V38.68c0-.7,0-.74-.77-.74H31c-.68,0-.72,0-.72.73ZM3.14,20.92c.09.11.13.17.18.22l9.22,7.8c.54.45.92.42,1.52-.09l8.59-7.26.76-.67Zm.64,14.92H22.6c0-.14-.08-.17-.13-.22-2.07-1.75-4.15-3.5-6.21-5.27a.56.56,0,0,0-.86,0,2.92,2.92,0,0,1-4.27,0,.61.61,0,0,0-1,0c-1.5,1.29-3,2.56-4.52,3.84ZM1.93,28.67c0,1.8,0,3.61,0,5.42,0,.16-.08.37.11.45s.26-.12.37-.21c2.07-1.75,4.14-3.51,6.22-5.25.36-.3.38-.48,0-.8C6.56,26.54,4.49,24.78,2.42,23c-.12-.09-.22-.31-.41-.2s-.07.27-.07.41C1.93,25.05,1.93,26.86,1.93,28.67Zm22.58.1c0-1.79,0-3.58,0-5.37,0-.18.08-.41-.13-.5s-.29.13-.41.23c-2,1.71-4.06,3.44-6.1,5.14-.37.31-.39.5,0,.81L24,34.26c.12.1.24.31.4.23s.11-.33.11-.5C24.52,32.25,24.51,30.51,24.51,28.77ZM38.81,5.62c1,0,2.1,0,3.15,0,.43,0,.59-.16.58-.59,0-.84,0-1.69,0-2.54,0-.4-.15-.56-.55-.56q-3.18,0-6.36,0c-.41,0-.57.16-.56.56,0,.85,0,1.7,0,2.54,0,.43.15.6.59.59C36.71,5.6,37.76,5.62,38.81,5.62Z"/><path class="cls-1" d="M47.35,26.45c1.22,0,2.44,0,3.65,0a1.9,1.9,0,0,1,2,2c0,1.15,0,2.29,0,3.44a2,2,0,0,1-2.14,2.2c-1.25,0-2.51,0-3.77,0-1.09,0-2.18,0-3.27,0a2.07,2.07,0,0,1-2.31-2.34c0-1.08,0-2.15,0-3.22a2,2,0,0,1,2.13-2.14Zm-.06,2c-1,0-2.1,0-3.16,0-.37,0-.53.15-.53.52q0,1.31,0,2.61c0,.39.14.56.55.56h6.26c.43,0,.6-.16.6-.58,0-.83,0-1.66,0-2.5,0-.44-.16-.63-.62-.62C49.36,28.44,48.32,28.43,47.29,28.43Z"/><path class="cls-1" d="M13.17,24.66h-2.6a1,1,0,0,1-1.16-1,1,1,0,0,1,1.09-1c1.82,0,3.65,0,5.48,0a1,1,0,0,1,1.11,1.05c0,.58-.49.95-1.21.95Z"/></g></g></svg>