<svg xmlns="http://www.w3.org/2000/svg" viewBox="0 0 264.38 269.11"><defs><style>.cls-1{isolation:isolate;}.cls-2{fill:#db8327;}.cls-3{fill:#ef993f;}.cls-4{fill:#f9af62;}.cls-11,.cls-5{fill:#f2e4cb;}.cls-10,.cls-6{fill:#e8d7b7;}.cls-7,.cls-8{fill:#fcf0d8;}.cls-10,.cls-11,.cls-12,.cls-13,.cls-14,.cls-15,.cls-16,.cls-17,.cls-18,.cls-19,.cls-20,.cls-21,.cls-22,.cls-23,.cls-24,.cls-25,.cls-26,.cls-27,.cls-28,.cls-29,.cls-30,.cls-31,.cls-32,.cls-33,.cls-34,.cls-35,.cls-36,.cls-37,.cls-38,.cls-66,.cls-67,.cls-68,.cls-69,.cls-70,.cls-71,.cls-8,.cls-89,.cls-9,.cls-90,.cls-91{fill-rule:evenodd;}.cls-86,.cls-9{fill:#fff;}.cls-12{fill:#576973;}.cls-13{fill:#f0f0f0;}.cls-14{fill:#e6e6e6;}.cls-15{fill:#fafafa;}.cls-16{fill:#425057;}.cls-17{fill:#bab8b8;}.cls-18{fill:#0a477d;}.cls-19{fill:#fff8ff;}.cls-20{fill:#126bb8;}.cls-21{fill:#0e5b9e;}.cls-22{fill:#62a4de;}.cls-23{fill:#0e4473;}.cls-24{fill:#062847;}.cls-25{fill:#08355c;}.cls-26{fill:#e9f2f2;}.cls-27{fill:#041d33;}.cls-28{fill:#057e87;}.cls-29{fill:#06b1bd;}.cls-30{fill:#0699a3;}.cls-31{fill:#3dd5e0;}.cls-32{fill:#314b4d;}.cls-33{fill:#bdbdbd;}.cls-34{fill:#dcdcda;}.cls-35{fill:#575757;}.cls-36{fill:#121212;}.cls-37{fill:#292929;}.cls-38{fill:#3d3d3d;}.cls-39{fill:#e3e5ef;mix-blend-mode:multiply;}.cls-40{fill:#76757c;}.cls-41{fill:#5c5b63;}.cls-42{fill:#c4c8d8;}.cls-43{fill:#d9dbe6;}.cls-44{fill:#2d2c37;}.cls-45{fill:#4b4a53;}.cls-46{fill:#42414b;}.cls-47{fill:#393842;}.cls-48{fill:#25242f;}.cls-49{fill:#773952;}.cls-50{fill:#504f60;}.cls-51{fill:#8e8e8e;}.cls-52{fill:#676f97;}.cls-53{fill:#8c92b0;}.cls-54{fill:#a76478;}.cls-55{fill:#ccdefb;}.cls-56{fill:#bac2d1;}.cls-57{fill:#828994;}.cls-58{fill:#98a0ad;}.cls-59{fill:#d4ddec;}.cls-60{fill:#c8d1e0;}.cls-61{fill:#c5c9d8;}.cls-62{fill:#dadae8;}.cls-63{fill:#e7e7f0;}.cls-64{fill:#f4f5fa;}.cls-65{fill:#e5e8f5;}.cls-66{fill:#bdd2d4;}.cls-67{fill:#d6e6e8;}.cls-68{fill:#f0c17d;}.cls-69{fill:#ffdba7;}.cls-70{fill:#632404;}.cls-71{fill:#ebf4f5;}.cls-72{fill:#f0c09c;}.cls-73{fill:#f9efbc;}.cls-74{fill:#ebe8d9;}.cls-75{fill:#ded9c0;}.cls-76{fill:#f9f5e0;}.cls-77{fill:#e7bc5f;}.cls-78{fill:#c9923b;}.cls-79{fill:#65a200;}.cls-80{fill:#89b83c;}.cls-81{fill:#e1e3eb;}.cls-82{fill:#b2b6c4;}.cls-83{fill:#eff0f5;}.cls-84{fill:#e7e8ed;}.cls-85{fill:#ecedf2;}.cls-87{fill:#fcfdff;}.cls-88{fill:#96c052;}.cls-89{fill:#1f4351;}.cls-90{fill:#294f5e;}.cls-91{fill:#376375;}</style></defs><g class="cls-1"><g id="Layer_2" data-name="Layer 2"><g id="Category_Section" data-name="Category Section"><polygon class="cls-2" points="264.29 183.26 264.2 192.37 132.06 269.11 132.35 260.5 264.29 183.26"/><polygon class="cls-3" points="132.35 260.5 132.06 269.11 0 191.79 0.08 183.09 132.35 260.5"/><polygon class="cls-4" points="264.29 183.26 132.35 260.5 0.08 183.09 134.08 109.5 264.29 183.26"/><polygon class="cls-5" points="132.23 110.43 132.23 5.08 259.75 79.01 259.75 186.06 132.23 110.43"/><polygon class="cls-6" points="4.71 79.01 4.71 186.2 132.23 110.43 132.23 5.08 4.71 79.01"/><polygon class="cls-6" points="264.38 183.43 259.75 186.2 259.75 79.01 264.38 76.24 264.38 183.43"/><polygon class="cls-5" points="0.09 183.43 4.71 186.2 4.71 79.01 0.09 76.24 0.09 183.43"/><polygon class="cls-7" points="264.38 76.24 131.77 0 0.09 76.24 4.71 79.01 132.23 5.08 259.75 79.01 264.38 76.24"/><polygon class="cls-8" points="169.41 62.48 216.32 89.22 216.32 151.41 169.41 124.67 169.41 62.48"/><polygon class="cls-9" points="169.41 62.48 216.32 89.22 216.32 147.06 169.41 120.33 169.41 62.48"/><polygon class="cls-10" points="169.41 62.48 172.68 64.12 172.68 122.21 169.41 124.67 169.41 62.48"/><polygon class="cls-10" points="190.14 74.49 193.41 76.12 193.41 134.02 190.14 136.48 190.14 74.49"/><polygon class="cls-11" points="190.14 74.49 185.77 71.76 185.77 133.95 190.14 136.48 190.14 74.49"/><polygon class="cls-8" points="169.41 93.03 172.68 91.4 216.32 117.04 216.32 120.31 169.41 93.03"/><polygon class="cls-8" points="169.41 88.13 172.68 86.49 216.32 112.13 216.32 115.4 169.41 88.13"/><polygon class="cls-8" points="169.41 83.76 172.68 82.12 216.32 107.76 216.32 111.04 169.41 83.76"/><polygon class="cls-8" points="169.41 79.4 172.68 77.76 216.32 103.4 216.32 106.67 169.41 79.4"/><polygon class="cls-8" points="169.41 75.03 172.68 73.4 216.32 99.03 216.32 102.31 169.41 75.03"/><polygon class="cls-8" points="169.41 70.12 172.68 68.49 216.32 94.13 216.32 97.4 169.41 70.12"/><polygon class="cls-8" points="169.41 65.76 172.68 64.12 216.32 89.76 216.32 93.03 169.41 65.76"/><polygon class="cls-12" points="127.97 131.65 96.47 149.95 79.66 140.25 79.68 134 106.34 118.5 107.16 118.97 129.16 105.59 129.05 131.77 127.97 131.65"/><polygon class="cls-13" points="96.26 123.92 96.14 151.97 79.66 142.45 79.73 114.38 79.74 114.38 96.26 123.92"/><path class="cls-14" d="M129.57,132.55l.08-28-.81-.46L96.26,123l-.12,29,33.43-19.42Zm-32,16.74.07-24.3,30.95-18-.07,24.29Z"/><polygon class="cls-15" points="129.65 104.52 96.26 123.92 79.74 114.38 113.13 94.98 129.65 104.52 129.65 104.52"/><polygon class="cls-16" points="114.45 115.21 114.34 139.53 113.87 139.81 113.98 115.48 114.45 115.21"/><path class="cls-17" d="M126.71,116.59l-10.54,6.08.2.56.1.07,0,0,10.45-6a.17.17,0,0,0,.11-.19.42.42,0,0,0,0-.18c-.07-.18-.22-.31-.32-.28Z"/><path class="cls-9" d="M116.36,122.85l0,.19.33-.2L127,116.92v0a.38.38,0,0,0-.09-.15l-10.17,5.88,0,0Z"/><path class="cls-14" d="M116.18,122.67c-.1,0-.13.19-.05.37s.21.3.32.28.12-.2,0-.38S116.28,122.64,116.18,122.67Z"/><path class="cls-17" d="M111.53,125.21,101,131.29l.21.56.1.07,0,0,10.45-6a.18.18,0,0,0,.11-.19.46.46,0,0,0,0-.19c-.07-.18-.22-.3-.32-.28Z"/><path class="cls-9" d="M101.18,131.46l0,.2.33-.21,10.25-5.92v0a.42.42,0,0,0-.09-.14l-10.17,5.87-.05,0Z"/><path class="cls-14" d="M101,131.28c-.1,0-.13.19,0,.37s.21.31.32.28.12-.19,0-.37S101.1,131.26,101,131.28Z"/><polygon class="cls-12" points="94.47 151.1 62.98 169.4 47.42 160.4 47.44 154.15 72.85 137.95 73.66 138.41 95.97 124.89 96.05 152.01 94.47 151.1"/><polygon class="cls-13" points="62.76 143.37 62.65 171.42 46.16 161.9 46.24 133.83 46.24 133.83 62.76 143.37"/><path class="cls-14" d="M96.07,152l.08-28-.8-.46L62.76,142.44l-.11,29L96.07,152Zm-32,16.75.07-24.3,31-18L95,150.75Z"/><polygon class="cls-15" points="96.15 123.97 62.76 143.37 46.24 133.83 79.63 114.43 96.15 123.96 96.15 123.97"/><polygon class="cls-16" points="80.95 134.66 80.84 158.98 80.38 159.25 80.49 134.93 80.95 134.66"/><path class="cls-17" d="M93.21,136l-10.53,6.08.2.56.1.07,0,0,10.45-6a.18.18,0,0,0,.11-.19.46.46,0,0,0,0-.19c-.07-.18-.21-.3-.32-.27Z"/><path class="cls-9" d="M82.86,142.29l0,.2.33-.21,10.25-5.91v0a.53.53,0,0,0-.08-.15l-10.18,5.87,0,0Z"/><path class="cls-14" d="M82.68,142.11c-.1,0-.12.19-.05.37s.22.31.32.28.12-.19,0-.37S82.79,142.09,82.68,142.11Z"/><path class="cls-17" d="M78,144.65,67.5,150.74l.2.55.1.07,0,0,10.45-6a.19.19,0,0,0,.12-.19.7.7,0,0,0,0-.18c-.07-.18-.21-.3-.32-.28h0Z"/><path class="cls-9" d="M67.69,150.91l0,.19.33-.2L78.31,145v0a.53.53,0,0,0-.08-.15L68,150.69l0,0Z"/><path class="cls-14" d="M67.5,150.73c-.1,0-.12.19,0,.37s.22.3.32.28.13-.2,0-.38S67.61,150.7,67.5,150.73Z"/><polygon class="cls-18" points="117.84 92.98 110.71 88.84 110.74 98.89 117.87 103.04 117.84 92.98"/><polygon class="cls-19" points="117.93 93.32 116.36 94.23 109.29 90.12 110.86 89.21 117.93 93.32"/><polygon class="cls-18" points="115.95 94.07 108.83 89.92 108.85 99.98 115.98 104.13 115.95 94.07"/><polygon class="cls-20" points="118.15 92.8 111.03 88.65 110.71 88.84 117.52 92.8 115.95 93.7 109.14 89.74 108.83 89.92 115.95 94.07 118.15 92.8"/><polygon class="cls-21" points="115.95 94.07 115.98 104.13 118.18 102.86 118.15 92.8 115.95 94.07"/><polygon class="cls-22" points="116.44 96.17 116.45 101.55 117.7 100.82 117.69 95.44 116.44 96.17"/><path class="cls-23" d="M117,101.77a.76.76,0,0,0-.44.82c.09.25.44.3.78.1a.79.79,0,0,0,.45-.82C117.69,101.61,117.34,101.57,117,101.77Z"/><path class="cls-23" d="M116.86,94.29a.79.79,0,0,0-.45.82c.09.25.45.3.79.1a.76.76,0,0,0,.44-.82C117.55,94.14,117.2,94.09,116.86,94.29Z"/><polygon class="cls-24" points="114.97 94.41 107.84 90.27 107.87 100.33 114.99 104.47 114.97 94.41"/><polygon class="cls-19" points="115.06 94.76 113.49 95.66 106.42 91.55 107.98 90.65 115.06 94.76"/><polygon class="cls-24" points="113.08 95.5 105.95 91.36 105.98 101.42 113.11 105.56 113.08 95.5"/><polygon class="cls-18" points="115.28 94.23 108.15 90.09 107.84 90.27 114.65 94.23 113.08 95.14 106.27 91.18 105.95 91.36 113.08 95.5 115.28 94.23"/><polygon class="cls-25" points="113.08 95.5 113.11 105.56 115.31 104.29 115.28 94.23 113.08 95.5"/><polygon class="cls-26" points="113.56 97.61 113.57 102.98 114.83 102.25 114.82 96.87 113.56 97.61"/><path class="cls-27" d="M114.13,103.2a.79.79,0,0,0-.45.82c.09.26.45.3.79.1s.54-.56.44-.81S114.47,103,114.13,103.2Z"/><path class="cls-27" d="M114,95.73c-.34.19-.54.56-.44.81s.44.31.78.11a.79.79,0,0,0,.45-.82C114.67,95.57,114.32,95.53,114,95.73Z"/><polygon class="cls-28" points="112.28 95.95 105.15 91.81 105.18 101.87 112.31 106.01 112.28 95.95"/><polygon class="cls-19" points="112.37 96.3 110.8 97.2 103.73 93.09 105.3 92.19 112.37 96.3"/><polygon class="cls-28" points="110.39 97.04 103.26 92.9 103.29 102.96 110.42 107.1 110.39 97.04"/><polygon class="cls-29" points="112.59 95.77 105.47 91.63 105.15 91.81 111.96 95.77 110.39 96.67 103.58 92.72 103.26 92.9 110.39 97.04 112.59 95.77"/><polygon class="cls-30" points="110.39 97.04 110.42 107.1 112.62 105.83 112.59 95.77 110.39 97.04"/><polygon class="cls-31" points="110.87 99.14 110.88 104.52 112.14 103.79 112.13 98.41 110.87 99.14"/><path class="cls-32" d="M111.44,104.74a.79.79,0,0,0-.45.82c.1.26.45.3.79.1a.76.76,0,0,0,.44-.82C112.13,104.59,111.78,104.54,111.44,104.74Z"/><path class="cls-32" d="M111.3,97.26a.79.79,0,0,0-.45.82c.09.26.44.3.78.11a.79.79,0,0,0,.45-.82C112,97.11,111.64,97.07,111.3,97.26Z"/><path class="cls-9" d="M200.84,51.76c-4.31-2.49-7.81-.49-7.82,4.46s3.46,11,7.77,13.45,7.8.49,7.82-4.45A17.14,17.14,0,0,0,200.84,51.76Z"/><path class="cls-33" d="M195.56,51l-1.26.73c8.75-3,16.32,13.9,11,19,4.27-1.76,3.83-7.33,2.32-11a19.07,19.07,0,0,0-2.53-4.38,13.72,13.72,0,0,0-4.94-4.15,8.71,8.71,0,0,0-1.41-.49,5.26,5.26,0,0,0-2.09-.07h0A3.5,3.5,0,0,0,195.56,51Z"/><path class="cls-33" d="M196.53,52.7c-7.22,1.76-2.26,13.45,3.25,16.4,1.55.82,3.8,1.05,4.87-.18a4,4,0,0,1-2.16,0,7.47,7.47,0,0,1-2.1-.94,10.78,10.78,0,0,1-1.95-1.61,12.1,12.1,0,0,1-1-1.14A15.18,15.18,0,0,1,195,60.66a11.84,11.84,0,0,1-.44-1.68,9.92,9.92,0,0,1-.17-2.31,4.92,4.92,0,0,1,1-2.92A6.12,6.12,0,0,1,196.53,52.7Z"/><path class="cls-34" d="M199.8,68.64a14.1,14.1,0,0,1-6.4-11.08c0-4.08,2.89-5.72,6.44-3.67A14.1,14.1,0,0,1,206.24,65c0,4.07-2.9,5.72-6.44,3.67Zm0-16.34c-4.3-2.48-7.8-.49-7.82,4.46a17.13,17.13,0,0,0,7.77,13.46c4.31,2.49,7.81.49,7.82-4.46S204.15,54.79,199.84,52.3Z"/><path class="cls-35" d="M200.92,62.61,203.36,69h-.2l-2.44-6.34A.71.71,0,0,0,200.92,62.61Z"/><polygon class="cls-36" points="202 61.98 204.45 68.35 203.37 68.98 200.91 62.61 202 61.98"/><path class="cls-35" d="M195.18,55.2l0,0,4.39,5a.67.67,0,0,0-.3.64v0Z"/><polygon class="cls-36" points="196.29 54.54 200.67 59.54 199.59 60.17 195.2 55.17 196.29 54.54"/><path class="cls-37" d="M199.89,60.11h-.16l-.14.05,1.08-.63.05,0,.05,0H201l.09,0,0,0h.07l.14.07.18.12.06.05.09.09,0,0,.08.08.08.1.07.09,0,0h0l0,0,.06.09a.59.59,0,0,0,0,.08.36.36,0,0,1,0,.09l0,.06h0v0a.2.2,0,0,1,0,.08.3.3,0,0,0,0,.1l0,.1s0,0,0,.06V61l0,.14a1.21,1.21,0,0,1,0,.19.68.68,0,0,1-.29.63l-1.08.63a.69.69,0,0,0,.28-.63,1.61,1.61,0,0,0,0-.37h0a2.72,2.72,0,0,0-.13-.37h0a2.43,2.43,0,0,0-.2-.35h0a2,2,0,0,0-.25-.31l-.13-.12,0,0-.18-.12-.18-.08h0A.47.47,0,0,0,199.89,60.11Z"/><path class="cls-38" d="M199.29,60.81v0a2.17,2.17,0,0,0,1,1.68.94.94,0,0,0,.45.14.71.71,0,0,0,.2,0,.66.66,0,0,0,.34-.66,2.18,2.18,0,0,0-.62-1.42,1.91,1.91,0,0,0-.36-.29.94.94,0,0,0-.39-.13.49.49,0,0,0-.3.06A.67.67,0,0,0,199.29,60.81Z"/><polygon class="cls-36" points="201.39 56.33 201.72 59.9 200.64 60.53 200.31 56.96 201.39 56.33"/><path class="cls-35" d="M200.27,56.94l0,0,.33,3.57a1.91,1.91,0,0,0-.36-.29.94.94,0,0,0-.39-.13Z"/><path class="cls-39" d="M154.86,172.38c7-4,18.33-4,25.36.05s7.06,10.61.08,14.64-18.34,4-25.36,0S147.88,176.41,154.86,172.38Z"/><path class="cls-40" d="M164.82,168.6a.59.59,0,0,0-.58-.06h0l-.75.34.89,2.42.82-.37h0a.78.78,0,0,0,.37-.67A1.86,1.86,0,0,0,164.82,168.6Z"/><path class="cls-41" d="M164.08,169c-.47-.29-.9,0-1,.6a1.86,1.86,0,0,0,.74,1.66c.47.29.9,0,1-.61A1.86,1.86,0,0,0,164.08,169Z"/><path class="cls-40" d="M181.89,184.28a2.16,2.16,0,0,0-1-1.68.7.7,0,0,0-.7-.07h0l-.88.56,1.43,2.34.83-.53h0A.67.67,0,0,0,181.89,184.28Z"/><path class="cls-41" d="M181,184.82c0,.62-.43.87-1,.56a2.13,2.13,0,0,1-1-1.68c0-.62.43-.86,1-.55A2.13,2.13,0,0,1,181,184.82Z"/><path class="cls-40" d="M152.87,178.84a1.12,1.12,0,0,0-2.24-.07h0v.69h.19a1.11,1.11,0,0,0,1.87,0h.19Z"/><path class="cls-41" d="M152.87,179.46a1.13,1.13,0,1,1-2.25,0,1.13,1.13,0,0,1,2.25,0Z"/><path class="cls-40" d="M181.13,172.44h0a.71.71,0,0,0-.69.07,2.13,2.13,0,0,0-1,1.68.67.67,0,0,0,.26.6h0l.79.55,1.37-2.38Z"/><path class="cls-41" d="M182.19,173.61a2.17,2.17,0,0,1-1,1.68c-.54.31-1,.06-1-.56a2.14,2.14,0,0,1,1-1.68C181.75,172.74,182.19,173,182.19,173.61Z"/><path class="cls-40" d="M163.49,186.42h0s-.07,0-.11.16a7.08,7.08,0,0,0-.21,1.73c0,.43,0,.66.11.65h0l1.26.14.22-2.55Z"/><path class="cls-41" d="M164.66,186.72a6.62,6.62,0,0,0-.21,1.73c0,.62.09.84.2.5a6.62,6.62,0,0,0,.21-1.73C164.86,186.6,164.77,186.38,164.66,186.72Z"/><polygon class="cls-42" points="167.19 176.1 176.76 178.93 176.6 178.83 181.08 183.43 181.7 182.83 177.22 178.23 177.16 178.17 177.06 178.13 167.97 173.99 167.19 176.1"/><polygon class="cls-42" points="167.98 176.11 177.09 171.92 176.82 171.93 181.32 173.16 181.55 172.33 177.05 171.1 176.94 171.07 176.79 171.12 167.18 173.97 167.98 176.11"/><polygon class="cls-42" points="168.65 174.63 165.58 168.62 165.44 168.36 165.21 168.34 164.05 168.25 163.98 169.11 165.14 169.2 164.77 168.93 166.5 175.46 168.65 174.63"/><polygon class="cls-42" points="167.58 173.83 156.44 174.63 156.31 174.64 156.23 174.68 150.87 177.61 151.28 178.37 156.64 175.44 156.44 175.49 167.58 176.25 167.58 173.83"/><polygon class="cls-42" points="166.39 174.57 164.3 181.01 164.26 181.13 164.26 181.16 163.49 187.19 164.33 187.35 165.94 181.49 165.9 181.64 168.77 175.51 166.39 174.57"/><path class="cls-42" d="M169.69,176.56a4.66,4.66,0,0,1-4.21,0c-1.17-.68-1.18-1.77,0-2.44a4.68,4.68,0,0,1,4.22,0A1.29,1.29,0,0,1,169.69,176.56Z"/><path class="cls-43" d="M169.69,175.47a4.63,4.63,0,0,1-4.21,0c-1.17-.67-1.18-1.76,0-2.43a4.65,4.65,0,0,1,4.22,0A1.28,1.28,0,0,1,169.69,175.47Z"/><path class="cls-40" d="M169.51,174h0v-3.27h-.44l-.13-.09a3,3,0,0,0-2.73,0l-.14.09h-.43V174h0a1,1,0,0,0,.57.79,3,3,0,0,0,2.74,0A.94.94,0,0,0,169.51,174Z"/><path class="cls-41" d="M169,171.51a3,3,0,0,1-2.74,0c-.75-.44-.76-1.15,0-1.58a3,3,0,0,1,2.73,0C169.7,170.37,169.7,171.08,169,171.51Z"/><path class="cls-42" d="M169.21,170.46h0v-4.82h-.37l-.11-.07a2.57,2.57,0,0,0-2.31,0l-.11.08H166v4.82h0a.8.8,0,0,0,.48.66,2.57,2.57,0,0,0,2.31,0A.83.83,0,0,0,169.21,170.46Z"/><path class="cls-43" d="M168.74,166.31a2.57,2.57,0,0,1-2.31,0,.7.7,0,0,1,0-1.33,2.57,2.57,0,0,1,2.31,0A.71.71,0,0,1,168.74,166.31Z"/><path class="cls-42" d="M163.28,153.22l.89-.27c-.15-.47-1.44-4.59-2.61-5.54S154.44,149.28,151,151l.42.83c4-2,8.85-4,9.58-3.7C161.69,148.71,162.77,151.56,163.28,153.22Z"/><path class="cls-44" d="M164.51,127.11s2.18-1.48,3.8-1c1.65.27,11.79,6.37,11.19,8.59-.24.9.35,27,.35,27a6.45,6.45,0,0,1-3,3.5c-2.46,1.5-6.71-7.47-6.71-7.47Z"/><path class="cls-44" d="M176.84,161.68l-11.15-6.25a3.65,3.65,0,0,1-1.45-3.19L166,128.07c.09-1.24,2.34-2.75,3.23-2.24l11.15,6.25a3.65,3.65,0,0,1,1.45,3.19l-.17,4.37-.67,1.94-1,6.17a59.55,59.55,0,0,0-.14,8.45l0,5.54C179.76,163,177.73,162.19,176.84,161.68Z"/><polygon class="cls-44" points="179.5 148.23 165.12 140.11 165.64 132.97 180.93 140.6 179.5 148.23"/><polygon class="cls-44" points="176.52 154.14 164.37 147.13 165.12 140.11 179.5 148.23 176.52 154.14"/><path class="cls-41" d="M178.24,141.58l-14.38-8.12c-2.1-1.46-.45-4.94-.45-4.94.77-1.72,1.7-1.79,2.59-1.27l11.72,6.56c.89.51,0,1.61-.21,2.91C177,140.14,178.24,141.58,178.24,141.58Z"/><path class="cls-45" d="M177.72,148.72l-14.38-8.11a8.46,8.46,0,0,1,.52-7.15l14.38,8.12A8.46,8.46,0,0,0,177.72,148.72Z"/><path class="cls-46" d="M163.34,140.61h0A24.6,24.6,0,0,0,162,152.54l.32,2.36L176.68,163l-.32-2.36a24.6,24.6,0,0,1,1.36-11.93h0Z"/><path class="cls-47" d="M177.11,164.69v0a1,1,0,0,1-.59.82l-10.16,5.86a5,5,0,0,1-1.89.6,5.6,5.6,0,0,1-1.42,0,3.43,3.43,0,0,1-1.17-.39l-12.08-7a1.32,1.32,0,0,1-.77-1.09,15,15,0,0,1,0-3.19,2.44,2.44,0,0,1,.23-.76,2.05,2.05,0,0,1,.5-.63h0a7.4,7.4,0,0,1,1.21-.75c1.21-.66,6.11-2.75,8.44-3.05a17,17,0,0,1,2.89-.23l13.5,7.6,1,.58A8.6,8.6,0,0,1,177.11,164.69Z"/><path class="cls-48" d="M176.83,163.08l-.13-.19a18.6,18.6,0,0,0-2.85.23c-2.33.3-7.23,2.39-8.44,3a7.26,7.26,0,0,0-1.27.8h0a2.64,2.64,0,0,1-2,.32c-.51-.08-11.2-6.22-12.37-6.95-.45-.27-.55-.55-.51-.78a2.44,2.44,0,0,0-.23.76,15,15,0,0,0,0,3.19,1.32,1.32,0,0,0,.77,1.09l12.08,7a3.62,3.62,0,0,0,1.47.42h.17a6.05,6.05,0,0,0,1,0,5,5,0,0,0,1.89-.6l10.16-5.86a1,1,0,0,0,.59-.82v0A8.6,8.6,0,0,0,176.83,163.08Z"/><path class="cls-48" d="M161.89,145.36l-1.3.4a1.93,1.93,0,0,0-1.12.18l-1.26.58c-3.72,1.18-9,2.92-9,3.31a4.68,4.68,0,0,0,0,1.17v.05h0a.86.86,0,0,0,.46.54,2.19,2.19,0,0,0,2,.08l9.93-4.52a.68.68,0,0,0,.3-.31.49.49,0,0,0,0-.11A2.06,2.06,0,0,0,161.89,145.36Z"/><path class="cls-41" d="M149.54,149.31l9.93-4.52a2.19,2.19,0,0,1,2,.08h0c.58.34.64.85.14,1.13l-9.93,4.52a2.16,2.16,0,0,1-2-.08C149.11,150.11,149,149.6,149.54,149.31Z"/><path class="cls-39" d="M143,189.42c4.57,2.64,12,2.62,16.6,0s4.62-6.95,0-9.58-12-2.63-16.6,0S138.45,186.78,143,189.42Z"/><path class="cls-49" d="M154.84,181.43l-.32,2.64s3.58-1,3.64-1.74a21.53,21.53,0,0,0-.08-2.4Z"/><path class="cls-49" d="M148.05,178.74l-.37,2.64s4.11-1,4.18-1.74a19.26,19.26,0,0,0-.08-2.4Z"/><path class="cls-50" d="M154.13,182.78a1,1,0,0,1,.77-.55,1.48,1.48,0,0,1,1.22.45,1.56,1.56,0,0,1,.09.56s1.44-.41,1.54-.73a3.71,3.71,0,0,0,0-1.13.63.63,0,0,1,.64.51c.09.52.05,2.55.06,2.9s-1.56,2-1.71,2.57a4.16,4.16,0,0,1-3.17,2.74c-1.89.19-1.6-1.74-1.61-2s1.79-3.42,1.81-3.76S154.12,182.86,154.13,182.78Z"/><path class="cls-51" d="M153.57,189.74c1.88-.19,3-2.34,3.17-3s1.71-2.22,1.71-2.58v.59c0,.36-1.56,2-1.71,2.57a4.16,4.16,0,0,1-3.17,2.74c-1.56.16-1.64-1.17-1.62-1.77A1.31,1.31,0,0,0,153.57,189.74Z"/><path class="cls-52" d="M159.57,152c-2.32,1.37-4.67,2.65-7,3.92-1.18.64-2.36,1.25-3.55,1.87l-.91.47a5.83,5.83,0,0,0-1.66,1.2,5.66,5.66,0,0,0-1.54,4.66c0,.2,0,.25.06.34l.05.24.18,1,.36,2,.67,3.95c.42,2.63.83,5.27,1.11,7.92l4.93-.68c-.44-2.63-.76-5.28-1.08-7.93l-.42-4-.19-2-.09-1,0-.25c0-.09,0-.19,0-.16h0a.1.1,0,0,1,.07.1.08.08,0,0,1,0,.08l.93-.33c1.26-.46,2.52-.91,3.79-1.34,2.52-.87,5.06-1.73,7.64-2.5Z"/><path class="cls-52" d="M157.17,160.3c0,.32,1.23.85,2.31,1.26.87.33,1.65.58,1.65.58a9.26,9.26,0,0,0,2.71-.52c.26-.21.81-2.78.93-5.36,0-.08,0-.18,0-.26,0-.27,0-.53,0-.79v-.08a2.44,2.44,0,0,0,0-.27c0-2-.44-3.72-1.53-4a4.55,4.55,0,0,0-1.13-.2,7.62,7.62,0,0,0-4.19,1,.39.39,0,0,0-.21.06l-.08.07,0,0a2.44,2.44,0,0,0-.44,1c0,.06,0,.13,0,.22A25.91,25.91,0,0,0,157.17,160.3Z"/><path class="cls-52" d="M165.9,155.85l-6.1,4.08-3.05,2-1.53,1-.94.62a6,6,0,0,0-1.35,1.35,5.87,5.87,0,0,0-1.08,3.56,11.09,11.09,0,0,0,.15,1.21l.15.9.58,3.62q.6,3.61,1.14,7.24l4.58-.51q-.25-3.65-.45-7.31l-.22-3.65-.05-.92a3.49,3.49,0,0,1,0-.61.19.19,0,0,1,.06.15.19.19,0,0,1,0,.1s0,0,0,0l.21-.11.41-.2,1.64-.82,3.27-1.64,6.58-3.25Z"/><path class="cls-52" d="M157.6,167.63l.38,6,.47,7.28a3.09,3.09,0,0,1-2.47,1.45c-1.91.25-2.11-.83-2.11-.83Z"/><path class="cls-52" d="M157.6,168.7s12.2-5,14.26-7.4c1.67-2,1.43-5,1.07-6.87,0-.08,0-.16-.06-.23a3,3,0,0,0-.08-.37,1.67,1.67,0,0,0-.08-.32c0-.15-.07-.28-.1-.38l0-.1h0l-.07-.19s-8-4.12-10.38-2.2a1.68,1.68,0,0,0-.61,1.07c-.13.77-.26,1.53-.41,2.28a2.34,2.34,0,0,1,0,.26.11.11,0,0,0,0,0c-.06.29-.11.55-.17.83a1.85,1.85,0,0,1,0,.23c-.45,2.24-.93,4.35-1.37,6.21C158.46,165.8,157.6,168.7,157.6,168.7Z"/><path class="cls-53" d="M169.07,158.74h.2l0-.21c-1.53.16-2.64-1.82-2.66-1.84l-.18.1C166.46,156.87,167.51,158.74,169.07,158.74Z"/><path class="cls-53" d="M162,159a.27.27,0,0,0,.17-.06c.08,0,.18-.19.15-.49a17.19,17.19,0,0,1,0-3.49l-.08,0h0l.05-.1h-.12a14.28,14.28,0,0,0-.1,3.65c0,.15,0,.27-.06.3s-.1,0-.17,0a1.7,1.7,0,0,1-.64-1.42c0-.48,0-2.3,0-2.49l-.2,0c0,.22,0,2,0,2.51a1.84,1.84,0,0,0,.76,1.6A.42.42,0,0,0,162,159Z"/><path class="cls-52" d="M157.17,152.78a10,10,0,0,0,3.72,2.34,13.43,13.43,0,0,0,2.71.72c.4.06.8.12,1.18.16a18,18,0,0,0,1.9.11,9.67,9.67,0,0,0,6.19-1.91,3,3,0,0,0-.08-.37,1.67,1.67,0,0,0-.08-.32c0-.15-.07-.28-.1-.38l0-.06,0,0c-1.86,1.64-4.34,2.24-7.73,1.83-.33,0-.67-.08-1-.13a12,12,0,0,1-2.67-.75,8.31,8.31,0,0,1-3.29-2.18l-.09-.09a.69.69,0,0,0-.11-.13,1.62,1.62,0,0,1,0,.2l0,0A2.44,2.44,0,0,0,157.17,152.78Z"/><path class="cls-54" d="M157.12,153a9.79,9.79,0,0,0,3.73,2.35,13,13,0,0,0,2.75.75c.4.07.79.12,1.17.16a15.92,15.92,0,0,0,1.91.12,9.73,9.73,0,0,0,6.25-1.95c0-.08,0-.16-.06-.23a3,3,0,0,0-.08-.37,1.67,1.67,0,0,0-.08-.32l-.19-.21-.06,0a6.58,6.58,0,0,1-1.07.77,8.82,8.82,0,0,1-4.66,1.14h-.07a15.61,15.61,0,0,1-1.86-.13,9.58,9.58,0,0,1-1-.14,13,13,0,0,1-2.71-.75,8.25,8.25,0,0,1-3.25-2.16,1.56,1.56,0,0,1-.16-.2.15.15,0,0,1,0-.06,2.44,2.44,0,0,0-.44,1C157.15,152.84,157.14,152.91,157.12,153Z"/><path class="cls-52" d="M164.35,156.73a5,5,0,0,1,0-1.82l.45.07a4.52,4.52,0,0,0,0,1.6Z"/><path class="cls-52" d="M158.39,154.43a5,5,0,0,1,0-1.82l.4.28a5,5,0,0,0,0,1.59Z"/><path class="cls-52" d="M170.62,156.18l-.41-.18a4.83,4.83,0,0,0,.08-1.6l.45,0A4.66,4.66,0,0,1,170.62,156.18Z"/><path class="cls-50" d="M147.68,179.14l-1.75,1.55a33.1,33.1,0,0,0-3.34,2.12,2.57,2.57,0,0,0-.14,1.15,2.87,2.87,0,0,0,2.84.32c1.62-.58,2.21-1.12,3.29-1.38s3.21-.69,3.49-1.27a5.59,5.59,0,0,0,0-2.22s-.34-.13-.47.11a3.21,3.21,0,0,1-1.5,1.15,3.78,3.78,0,0,1-1.62.05,3.45,3.45,0,0,0,0-.91C148.42,179.58,147.68,179.14,147.68,179.14Z"/><path class="cls-51" d="M142.45,184a2.87,2.87,0,0,0,2.84.32c1.62-.58,2.21-1.12,3.29-1.38s3.21-.69,3.49-1.27a1.84,1.84,0,0,0,.12-.68,4.6,4.6,0,0,1-.12,1.3c-.28.59-2.41.66-3.49.92s-1.67,1.16-3.29,1.74a2.83,2.83,0,0,1-2.84-.33,2.93,2.93,0,0,1,0-.7A.34.34,0,0,0,142.45,184Z"/><path class="cls-52" d="M149.06,168l1.65,3.27,1.55,7.63a4.68,4.68,0,0,1-2.34,1.14c-2.26.65-2.63-.57-2.63-.57Z"/><path class="cls-55" d="M162.21,156.52a.59.59,0,0,1-.19-.05l-1-.38a1.06,1.06,0,0,1-.66-1l.05-.39a.61.61,0,0,1,.27-.46.69.69,0,0,1,.63,0l1,.39a1,1,0,0,1,.66,1l0,.39a.6.6,0,0,1-.72.54Zm-1.1-1.93a.27.27,0,0,0-.18,0,.2.2,0,0,0-.08.14l0,.39a.59.59,0,0,0,.36.52l1,.38a.32.32,0,0,0,.27,0,.16.16,0,0,0,.08-.15l.05-.39a.56.56,0,0,0-.37-.51l-1-.39Z"/><path class="cls-53" d="M157.48,181.83h.21s-.23-4.79-.41-7.45c-.08-1.28-.22-3.05-.42-5.26a2,2,0,0,1,1.11-2c3.41-1.67,11.41-5.59,12.19-6.08,3-1.85,1.38-6.7,1.36-6.75l-.19.07s1.53,4.74-1.28,6.5c-.79.5-9.51,4.77-12.17,6.07a2.24,2.24,0,0,0-1.23,2.18c.2,2.21.34,4,.43,5.25C157.25,177,157.48,181.79,157.48,181.83Z"/><polygon class="cls-39" points="123.14 160.35 133.3 160.35 190.59 193.52 161 210.6 150.84 210.6 93.55 177.44 123.14 160.35"/><polygon class="cls-56" points="180.43 172.47 150.84 189.56 150.84 188.45 180.43 171.37 180.43 172.47"/><polygon class="cls-57" points="125.12 161.5 95.53 178.58 95.53 157.53 125.12 140.45 125.12 161.5"/><polygon class="cls-58" points="149.24 190.76 96.54 160.29 96.54 155.29 149.08 186.53 149.24 190.76"/><polygon class="cls-59" points="149.08 193.19 96.54 161.96 97.28 161.33 149.82 192.56 149.08 193.19"/><polygon class="cls-58" points="149.24 201.63 96.54 171.16 96.54 161.96 149.08 193.19 149.24 201.63"/><polygon class="cls-57" points="180.43 193.52 150.84 210.6 150.84 189.56 180.43 172.47 180.43 193.52"/><polygon class="cls-60" points="150.84 189.56 150.84 210.6 148.86 209.46 148.86 188.41 150.84 189.56"/><polygon class="cls-60" points="95.53 157.53 95.53 178.58 93.55 177.44 93.55 156.39 95.53 157.53"/><polygon class="cls-60" points="93.55 156.39 150.84 189.56 150.84 188.45 93.55 155.29 93.55 156.39"/><polygon class="cls-56" points="123.14 138.21 180.43 171.37 150.84 188.45 93.55 155.29 123.14 138.21"/><polygon class="cls-59" points="123.14 138.21 180.18 171.23 150.84 188.09 93.98 155.23 123.14 138.21"/><path class="cls-61" d="M131.71,154.66l7.29-4.22a1,1,0,0,1,.88,0l18.34,10.67.83.2v.41h0a.32.32,0,0,1-.18.27l-7.46,4.31a1,1,0,0,1-.87,0l-19-11a.31.31,0,0,1-.18-.24h0v-.45Z"/><path class="cls-62" d="M158.87,161.06l-19-11a1,1,0,0,0-.88,0l-7.45,4.31a.26.26,0,0,0,0,.5l19,11a1,1,0,0,0,.87,0l7.46-4.31A.27.27,0,0,0,158.87,161.06Z"/><path class="cls-63" d="M133.41,154.21v-.1h.08l.83-.48a.32.32,0,0,1,.3,0l.83.48h.08v.09h0a.12.12,0,0,1-.06.09l-.84.48a.34.34,0,0,1-.31,0l-.84-.48A.12.12,0,0,1,133.41,154.21Z"/><path class="cls-63" d="M138.73,151.14V151h.08l.83-.48a.34.34,0,0,1,.31,0l.82.48h.08v.1h0a.13.13,0,0,1-.07.08l-.84.49a.34.34,0,0,1-.31,0l-.83-.49C138.75,151.2,138.73,151.17,138.73,151.14Z"/><path class="cls-63" d="M140.05,151.9v-.1h.08l.82-.48a.42.42,0,0,1,.31,0l.83.49h.07v.09h0s0,.05-.06.08l-.85.48a.32.32,0,0,1-.3,0l-.84-.48A.12.12,0,0,1,140.05,151.9Z"/><path class="cls-63" d="M141.36,152.66v-.1h.08l.83-.47a.32.32,0,0,1,.3,0l.83.48h.07v.09h0a.09.09,0,0,1-.06.08l-.84.49a.34.34,0,0,1-.31,0l-.84-.49A.11.11,0,0,1,141.36,152.66Z"/><path class="cls-63" d="M142.67,153.43v-.1h.08l.83-.48a.32.32,0,0,1,.3,0l.83.48h.08v.1h0a.09.09,0,0,1-.06.08l-.84.49a.34.34,0,0,1-.31,0l-.84-.49A.09.09,0,0,1,142.67,153.43Z"/><path class="cls-63" d="M134.73,155v-.1h.08l.82-.47a.34.34,0,0,1,.31,0l.83.48h.07V155h0a.13.13,0,0,1-.07.08l-.84.49a.32.32,0,0,1-.3,0l-.84-.49A.11.11,0,0,1,134.73,155Z"/><path class="cls-63" d="M136.79,154.64v-.1h.08l.83-.48a.39.39,0,0,1,.3,0l.83.49h.07v.09h0a.09.09,0,0,1-.06.08l-.85.48a.35.35,0,0,1-.3,0l-.84-.49A.12.12,0,0,1,136.79,154.64Z"/><path class="cls-63" d="M138.1,155.4v-.1h.08l.83-.47a.32.32,0,0,1,.3,0l.83.48h.07v.09h0a.09.09,0,0,1-.06.08l-.84.49a.34.34,0,0,1-.31,0l-.84-.49A.11.11,0,0,1,138.1,155.4Z"/><path class="cls-63" d="M138.78,154.25v-.1h.08l.83-.48a.34.34,0,0,1,.31,0l.82.48h.08v.1h0a.18.18,0,0,1-.07.09l-.84.48a.34.34,0,0,1-.31,0l-.83-.48S138.78,154.28,138.78,154.25Z"/><path class="cls-63" d="M140.12,153.47v-.09h.08l.83-.48a.34.34,0,0,1,.31,0l.82.48h.08v.1h0a.13.13,0,0,1-.07.08l-.84.49a.34.34,0,0,1-.31,0l-.83-.49A.09.09,0,0,1,140.12,153.47Z"/><path class="cls-63" d="M141.44,154.24v-.1h.08l.82-.48a.34.34,0,0,1,.31,0l.83.48h.07v.1h0a.12.12,0,0,1-.06.09l-.85.48a.32.32,0,0,1-.3,0l-.84-.48A.12.12,0,0,1,141.44,154.24Z"/><path class="cls-63" d="M142.75,155v-.1h.08l.83-.47a.32.32,0,0,1,.3,0l.83.48h.07V155h0a.09.09,0,0,1-.06.08l-.84.49a.34.34,0,0,1-.31,0l-.84-.49A.11.11,0,0,1,142.75,155Z"/><path class="cls-63" d="M144.06,155.76v-.09h.08l.83-.48a.32.32,0,0,1,.3,0l.83.48h.07v.09h0a.09.09,0,0,1-.06.08l-.84.49a.34.34,0,0,1-.31,0l-.84-.49A.1.1,0,0,1,144.06,155.76Z"/><path class="cls-63" d="M145.38,156.53v-.1h.08l.82-.48a.34.34,0,0,1,.31,0l.83.48h.07v.1h0a.18.18,0,0,1-.07.09l-.84.48a.32.32,0,0,1-.3,0l-.84-.48S145.37,156.56,145.38,156.53Z"/><path class="cls-63" d="M146.69,157.29v-.1h.08l.82-.48a.42.42,0,0,1,.31,0l.83.49h.07v.09h0a.09.09,0,0,1-.06.08l-.85.49a.39.39,0,0,1-.3,0l-.84-.49A.12.12,0,0,1,146.69,157.29Z"/><path class="cls-63" d="M148,158.05V158h.08l.83-.47a.32.32,0,0,1,.3,0l.83.48h.07v.09h0a.09.09,0,0,1-.06.08l-.84.49a.34.34,0,0,1-.31,0l-.84-.49A.1.1,0,0,1,148,158.05Z"/><path class="cls-63" d="M149.31,158.82v-.1h.08l.83-.48a.34.34,0,0,1,.31,0l.82.48h.08v.1h0a.13.13,0,0,1-.07.08l-.84.49a.34.34,0,0,1-.31,0l-.83-.49S149.31,158.85,149.31,158.82Z"/><path class="cls-63" d="M152.74,159.58v.1h-.08l-.83.47a.32.32,0,0,1-.3,0l-.83-.48h-.07v-.09h0a.09.09,0,0,1,.06-.08l.84-.49a.34.34,0,0,1,.31,0l.84.49A.12.12,0,0,1,152.74,159.58Z"/><path class="cls-63" d="M152,158.87v-.1h.08l.83-.48a.34.34,0,0,1,.31,0l.82.48h.08v.1h0a.09.09,0,0,1-.06.08l-.84.49a.34.34,0,0,1-.31,0l-.83-.49S152,158.9,152,158.87Z"/><path class="cls-63" d="M153.35,159.63v-.1h.08l.82-.48a.34.34,0,0,1,.31,0l.83.48h.07v.1h0s0,.06-.06.09l-.85.48a.32.32,0,0,1-.3,0l-.84-.48A.12.12,0,0,1,153.35,159.63Z"/><path class="cls-63" d="M156,161.17v-.1h.09l.82-.47a.34.34,0,0,1,.31,0l.83.48h.07v.09h0a.13.13,0,0,1-.07.08l-.84.49a.34.34,0,0,1-.31,0l-.83-.49A.09.09,0,0,1,156,161.17Z"/><path class="cls-63" d="M154.65,161.77l.82-.48a.34.34,0,0,1,.31,0l.11.07h0l.72.41h.07v0l0,0h.08v.1h0a.09.09,0,0,1-.06.08l-.84.49a.34.34,0,0,1-.31,0l-1-.55a.12.12,0,0,1-.06-.09v-.1Z"/><path class="cls-63" d="M151.94,160.34v-.1H152l.83-.47a.32.32,0,0,1,.3,0l.83.48h.07v.09h0a.09.09,0,0,1-.06.08l-.84.49a.34.34,0,0,1-.31,0l-.84-.49A.11.11,0,0,1,151.94,160.34Z"/><path class="cls-63" d="M153.25,161.1V161h.08l.83-.48a.32.32,0,0,1,.3,0l.83.48h.08v.09h0a.09.09,0,0,1-.06.08l-.84.49a.34.34,0,0,1-.31,0l-.83-.49A.09.09,0,0,1,153.25,161.1Z"/><path class="cls-63" d="M140.1,155v-.1h.08l.82-.47a.34.34,0,0,1,.31,0l.83.48h.07V155h0a.09.09,0,0,1-.06.08l-.85.49a.32.32,0,0,1-.3,0l-.84-.49A.11.11,0,0,1,140.1,155Z"/><path class="cls-63" d="M141.41,155.77v-.09h.08l.83-.48a.32.32,0,0,1,.3,0l.83.48h.07v.09h0a.09.09,0,0,1-.06.08l-.84.49a.34.34,0,0,1-.31,0l-.84-.49A.1.1,0,0,1,141.41,155.77Z"/><path class="cls-63" d="M142.72,156.54v-.1h.08l.83-.48a.32.32,0,0,1,.3,0l.83.48h.08v.1h0a.12.12,0,0,1-.06.09l-.84.48a.34.34,0,0,1-.31,0l-.83-.48S142.72,156.57,142.72,156.54Z"/><path class="cls-63" d="M144,157.3v-.1h.08l.82-.47a.34.34,0,0,1,.31,0l.83.48h.07v.09h0s0,.06-.07.08l-.84.49a.39.39,0,0,1-.3,0l-.84-.49A.12.12,0,0,1,144,157.3Z"/><path class="cls-63" d="M145.35,158.06V158h.08l.83-.48a.32.32,0,0,1,.3,0l.83.48h.07v.09h0a.09.09,0,0,1-.06.08l-.85.49a.32.32,0,0,1-.3,0l-.84-.49A.1.1,0,0,1,145.35,158.06Z"/><path class="cls-63" d="M146.66,158.83v-.1h.08l.83-.48a.32.32,0,0,1,.3,0l.83.48h.07v.1h0a.09.09,0,0,1-.06.08l-.84.49a.34.34,0,0,1-.31,0l-.84-.49A.09.09,0,0,1,146.66,158.83Z"/><path class="cls-63" d="M148,159.59v-.1h.09l.82-.48a.42.42,0,0,1,.31,0l.83.49h.07v.09h0a.17.17,0,0,1-.07.08l-.84.48a.32.32,0,0,1-.3,0l-.84-.48S148,159.62,148,159.59Z"/><path class="cls-63" d="M149.29,160.35v-.1h.08l.82-.47a.34.34,0,0,1,.31,0l.83.48h.07v.09h0a.09.09,0,0,1-.06.08l-.85.49a.32.32,0,0,1-.3,0l-.84-.49A.11.11,0,0,1,149.29,160.35Z"/><path class="cls-63" d="M150.6,161.11V161h.08l.83-.48a.32.32,0,0,1,.3,0l.83.48h.07v.1h0a.09.09,0,0,1-.06.08l-.84.49a.34.34,0,0,1-.31,0l-.84-.49A.1.1,0,0,1,150.6,161.11Z"/><path class="cls-63" d="M139.41,156.17v-.1h.09l.82-.48a.34.34,0,0,1,.31,0l.83.48h.07v.1h0a.13.13,0,0,1-.07.08l-.84.49a.32.32,0,0,1-.3,0l-.84-.49S139.41,156.2,139.41,156.17Z"/><path class="cls-63" d="M140.73,156.93v-.1h.08l.82-.48a.34.34,0,0,1,.31,0l.83.49h.07v.09h0a.12.12,0,0,1-.06.09l-.85.48a.32.32,0,0,1-.3,0l-.84-.48A.12.12,0,0,1,140.73,156.93Z"/><path class="cls-63" d="M142,157.69v-.1h.08l.83-.47a.32.32,0,0,1,.3,0l.83.48h.07v.09h0a.09.09,0,0,1-.06.08l-.84.49a.34.34,0,0,1-.31,0l-.84-.49A.11.11,0,0,1,142,157.69Z"/><path class="cls-63" d="M143.35,158.45v-.09h.08l.83-.48a.34.34,0,0,1,.31,0l.82.48h.08v.09h0a.13.13,0,0,1-.07.08l-.84.49a.34.34,0,0,1-.31,0l-.83-.49A.09.09,0,0,1,143.35,158.45Z"/><path class="cls-63" d="M144.67,159.22v-.1h.08l.82-.48a.34.34,0,0,1,.31,0l.83.48h.07v.1h0a.12.12,0,0,1-.06.09l-.85.48a.32.32,0,0,1-.3,0l-.84-.48A.12.12,0,0,1,144.67,159.22Z"/><path class="cls-63" d="M146,160v-.1h.08l.83-.47a.32.32,0,0,1,.3,0l.83.48h.07V160h0a.09.09,0,0,1-.06.08l-.84.49a.42.42,0,0,1-.31,0l-.84-.49A.12.12,0,0,1,146,160Z"/><path class="cls-63" d="M147.29,160.74v-.09h.08l.83-.48a.32.32,0,0,1,.3,0l.83.48h.08v.09h0a.09.09,0,0,1-.06.08l-.84.49a.34.34,0,0,1-.31,0l-.84-.49A.1.1,0,0,1,147.29,160.74Z"/><path class="cls-63" d="M148.61,161.51v-.1h.08l.82-.48a.34.34,0,0,1,.31,0l.83.48h.07v.1h0a.18.18,0,0,1-.07.09l-.84.48a.32.32,0,0,1-.3,0l-.84-.48S148.6,161.54,148.61,161.51Z"/><path class="cls-63" d="M149.92,162.27v-.1H150l.83-.48a.39.39,0,0,1,.3,0l.83.49H152v.09h0a.09.09,0,0,1-.06.08l-.85.48a.35.35,0,0,1-.3,0l-.84-.49A.12.12,0,0,1,149.92,162.27Z"/><path class="cls-63" d="M136,155.73v-.09h.08l.83-.48a.32.32,0,0,1,.3,0l.83.48h.07v.09h0a.09.09,0,0,1-.06.08l-.85.49a.32.32,0,0,1-.3,0l-.84-.49A.1.1,0,0,1,136,155.73Z"/><path class="cls-63" d="M137.35,156.5v-.1h.08l.83-.48a.32.32,0,0,1,.3,0l.83.48h.07v.1h0a.12.12,0,0,1-.06.09l-.84.48a.34.34,0,0,1-.31,0l-.84-.48A.12.12,0,0,1,137.35,156.5Z"/><path class="cls-63" d="M138.66,157.26v-.1h.09l.82-.47a.34.34,0,0,1,.31,0l.83.48h.07v.09h0a.13.13,0,0,1-.07.08l-.84.49a.42.42,0,0,1-.31,0l-.83-.49S138.66,157.29,138.66,157.26Z"/><path class="cls-63" d="M140,158v-.09h.08l.82-.48a.34.34,0,0,1,.31,0l.83.48h.07V158h0a.09.09,0,0,1-.06.08l-.85.49a.32.32,0,0,1-.3,0l-.84-.49A.1.1,0,0,1,140,158Z"/><path class="cls-63" d="M141.29,158.79v-.1h.08l.83-.48a.32.32,0,0,1,.3,0l.83.48h.07v.1h0a.09.09,0,0,1-.06.08l-.84.49a.34.34,0,0,1-.31,0l-.84-.49A.09.09,0,0,1,141.29,158.79Z"/><path class="cls-63" d="M142.6,159.55v-.1h.08l.83-.48a.42.42,0,0,1,.31,0l.82.49h.08v.09h0a.09.09,0,0,1-.06.08l-.84.48a.37.37,0,0,1-.31,0l-.83-.49S142.6,159.58,142.6,159.55Z"/><path class="cls-63" d="M143.92,160.31v-.1H144l.82-.47a.34.34,0,0,1,.31,0l.83.48H146v.09h0s0,.06-.06.08l-.85.49a.32.32,0,0,1-.3,0l-.84-.49A.11.11,0,0,1,143.92,160.31Z"/><path class="cls-63" d="M145.23,161.08V161h.08l.83-.48a.32.32,0,0,1,.3,0l.83.48h.07v.1h0a.09.09,0,0,1-.06.08l-.85.49a.32.32,0,0,1-.3,0l-.84-.49A.09.09,0,0,1,145.23,161.08Z"/><path class="cls-63" d="M146.54,161.84v-.1h.08l.83-.48a.32.32,0,0,1,.3,0l.83.48h.07v.1h0a.12.12,0,0,1-.06.09l-.84.48a.34.34,0,0,1-.31,0l-.84-.48A.12.12,0,0,1,146.54,161.84Z"/><path class="cls-63" d="M147.85,162.6v-.1h.09l.82-.47a.34.34,0,0,1,.31,0l.83.48H150v.09h0a.13.13,0,0,1-.07.08l-.84.49a.32.32,0,0,1-.3,0l-.84-.49A.12.12,0,0,1,147.85,162.6Z"/><path class="cls-63" d="M149.17,163.36v-.09h.08l.82-.48a.34.34,0,0,1,.31,0l.83.48h.07v.09h0a.09.09,0,0,1-.06.08l-.85.49a.32.32,0,0,1-.3,0l-.84-.49A.1.1,0,0,1,149.17,163.36Z"/><path class="cls-63" d="M150.48,164h.08l.83-.48a.32.32,0,0,1,.3,0l1,.6h.09v.09h0a.1.1,0,0,1-.06.07l-.84.49a.34.34,0,0,1-.31,0l-1-.6a.12.12,0,0,1-.06-.1h0Z"/><path class="cls-63" d="M144,154.19v-.1h.08l.82-.48a.39.39,0,0,1,.24,0l.07,0,.83.48h.07v0l5.83,3.39h0l.83.48h.07v.09h0v0h0l0,0h0l-.84.49-.08,0h-.08a.37.37,0,0,1-.15,0l-.84-.49h0l-6.73-3.91Q144,154.24,144,154.19Z"/><path class="cls-63" d="M134.22,155.5h0v-.1l.06,0h0l.22-.13a.34.34,0,0,1,.31,0l.77.45.13,0v.1a.09.09,0,0,1-.06.08l-.23.13a.34.34,0,0,1-.31,0l-.83-.48s-.07-.06-.07-.09Z"/><path class="cls-63" d="M135.54,156.26h0v-.09h.06l.23-.13a.32.32,0,0,1,.3,0l.78.45.12,0v.1a.09.09,0,0,1-.06.08l-.23.14a.39.39,0,0,1-.3,0l-.84-.49a.12.12,0,0,1-.06-.09Z"/><path class="cls-63" d="M136.85,157h0v-.09h.06l.23-.13a.34.34,0,0,1,.31,0l.77.45.13,0v.1a.12.12,0,0,1-.06.09l-.23.13a.32.32,0,0,1-.3,0l-.84-.49a.09.09,0,0,1-.06-.08h0Z"/><path class="cls-63" d="M138.16,157.79h0v-.09h.07l.22-.13a.34.34,0,0,1,.31,0l.77.45.13,0v.1s0,.06-.07.08l-.22.13a.34.34,0,0,1-.31,0l-.84-.49a.09.09,0,0,1-.06-.08Z"/><path class="cls-63" d="M139.47,158.55h0v-.1l.06,0h0l.23-.13a.32.32,0,0,1,.3,0l.78.45.12,0v.1a.09.09,0,0,1-.06.08l-.23.13a.34.34,0,0,1-.31,0l-.83-.48a.18.18,0,0,1-.07-.09Z"/><path class="cls-63" d="M140.79,159.31h0v-.09h.06l.23-.13a.32.32,0,0,1,.3,0l.78.45.12,0v.1a.12.12,0,0,1-.06.09l-.23.13a.32.32,0,0,1-.3,0l-.84-.49a.1.1,0,0,1-.06-.09Z"/><path class="cls-63" d="M142.1,160.08h0V160h.06l.23-.13a.34.34,0,0,1,.31,0l.77.45.13,0v.1a.13.13,0,0,1-.07.08l-.22.13a.34.34,0,0,1-.31,0l-.84-.49a.09.09,0,0,1-.06-.08Z"/><path class="cls-63" d="M143.41,160.84h0v-.1l.06,0h0l.22-.13a.34.34,0,0,1,.31,0l.77.45.13,0v.1a.09.09,0,0,1-.06.08l-.23.13a.34.34,0,0,1-.31,0l-.83-.48s-.07-.06-.07-.09Z"/><path class="cls-63" d="M144.73,161.6h0v-.09h.06l.23-.13a.32.32,0,0,1,.3,0l.78.45.12,0v.1a.09.09,0,0,1-.06.08l-.23.14a.35.35,0,0,1-.3,0l-.84-.49a.11.11,0,0,1-.06-.09Z"/><path class="cls-63" d="M146,162.37h0v-.09h.06l.23-.14a.42.42,0,0,1,.31,0l.77.45.13,0v.1a.18.18,0,0,1-.07.09l-.23.13a.32.32,0,0,1-.3,0l-.84-.49a.09.09,0,0,1-.06-.08Z"/><path class="cls-63" d="M147.35,163.13h0V163l.06,0h0l.22-.13a.34.34,0,0,1,.31,0l.77.45.13,0v.1s0,.06-.07.08l-.22.13a.34.34,0,0,1-.31,0l-.84-.48a.12.12,0,0,1-.06-.09Z"/><path class="cls-63" d="M148.67,163.89h0v-.09h.06l.23-.13a.32.32,0,0,1,.3,0l.78.45.12,0v.1a.09.09,0,0,1-.06.08l-.23.13a.35.35,0,0,1-.3,0l-.84-.49a.12.12,0,0,1-.06-.09Z"/><path class="cls-63" d="M150,164.65h0v-.09H150l.23-.13a.32.32,0,0,1,.3,0l.78.45.12,0v.1a.12.12,0,0,1-.06.09l-.23.13a.32.32,0,0,1-.3,0l-.84-.49a.09.09,0,0,1-.06-.08h0Z"/><path class="cls-63" d="M134.74,153.35h.07l.84-.48a.34.34,0,0,1,.31,0l1.55.9h.09v.09h0s0,.06-.07.08l-.84.49a.32.32,0,0,1-.3,0l-1.58-.92c-.05,0-.07-.06-.07-.09h0Z"/><path class="cls-63" d="M136.07,152.57l.06,0h0l.84-.48a.34.34,0,0,1,.31,0l2.18,1.27.11,0v.1h0a.09.09,0,0,1-.06.08l-.84.49a.34.34,0,0,1-.31,0l-2.23-1.3a.1.1,0,0,1-.07-.09h0Z"/><path class="cls-63" d="M137.41,151.8h.07l.84-.49a.39.39,0,0,1,.3,0l2.19,1.27.11,0v.09h0a.1.1,0,0,1-.06.09l-.84.49a.34.34,0,0,1-.31,0l-2.23-1.3s-.07-.06-.07-.09h0Z"/><path class="cls-63" d="M151.24,162.93h.06l.85-.49a.32.32,0,0,1,.3,0l1.59.92.09,0v.09h0a.18.18,0,0,1-.07.09l-.84.48a.34.34,0,0,1-.31,0l-1.61-.93a.12.12,0,0,1-.06-.09h0Z"/><path class="cls-63" d="M152,161.79l.84-.49a.34.34,0,0,1,.31,0l2.26,1.32c.09,0,.09.13,0,.18l-.84.48a.34.34,0,0,1-.31,0L152,162c-.09-.05-.09-.13,0-.18Z"/><path class="cls-63" d="M154.66,160.39h0v-.09h.06l.23-.13a.34.34,0,0,1,.31,0l.77.45.13,0v.1a.12.12,0,0,1-.06.09l-.23.13a.32.32,0,0,1-.3,0l-.84-.49a.1.1,0,0,1-.06-.09Z"/><path class="cls-63" d="M155.28,160h0v-.1h.06l.23-.13a.32.32,0,0,1,.3,0l.78.45.12,0v.1a.09.09,0,0,1-.06.08l-.23.13a.32.32,0,0,1-.3,0l-.84-.49a.09.09,0,0,1-.06-.08Z"/><path class="cls-63" d="M132.71,154.61h0v-.1l.06,0h0l.23-.13a.32.32,0,0,1,.3,0l1,.56.14,0v.1h0a.09.09,0,0,1-.06.08l-.22.13a.34.34,0,0,1-.31,0l-1-.61A.1.1,0,0,1,132.71,154.61Z"/><path class="cls-64" d="M135.46,154.22l-.84.48a.34.34,0,0,1-.31,0l-.83-.48c-.09-.05-.09-.13,0-.18l.84-.49a.32.32,0,0,1,.3,0l.84.49c.09.05.09.13,0,.18Z"/><path class="cls-64" d="M136.77,155l-.84.49a.32.32,0,0,1-.3,0l-.84-.49c-.09,0-.09-.13,0-.18l.84-.48a.34.34,0,0,1,.31,0l.84.48c.08,0,.08.13,0,.18Z"/><path class="cls-64" d="M138.09,155.74l-.85.49a.32.32,0,0,1-.3,0l-.84-.49c-.08-.05-.08-.13,0-.17l.85-.49a.32.32,0,0,1,.3,0l.84.49c.08,0,.08.12,0,.17Z"/><path class="cls-64" d="M139.4,156.51l-.84.48a.34.34,0,0,1-.31,0l-.84-.48c-.08,0-.08-.13,0-.18l.84-.49a.32.32,0,0,1,.3,0l.84.49c.09,0,.09.13,0,.18Z"/><path class="cls-64" d="M140.71,157.27l-.84.49a.42.42,0,0,1-.31,0l-.83-.49c-.09-.05-.09-.13,0-.18l.84-.48a.37.37,0,0,1,.31,0l.83.49c.09,0,.09.13,0,.18Z"/><path class="cls-64" d="M142,158l-.85.49a.32.32,0,0,1-.3,0L140,158a.1.1,0,0,1,0-.18l.84-.48a.34.34,0,0,1,.31,0l.84.48a.1.1,0,0,1,0,.18Z"/><path class="cls-64" d="M143.34,158.79l-.84.49a.34.34,0,0,1-.31,0l-.84-.49c-.08,0-.08-.12,0-.17l.85-.49a.32.32,0,0,1,.3,0l.84.49c.08,0,.08.13,0,.17Z"/><path class="cls-64" d="M144.65,159.56l-.84.48a.34.34,0,0,1-.31,0l-.83-.48c-.09-.05-.09-.13,0-.18l.84-.49a.37.37,0,0,1,.31,0l.83.49c.09.05.09.13,0,.18Z"/><path class="cls-64" d="M146,160.32l-.84.49a.32.32,0,0,1-.3,0l-.84-.49c-.09,0-.09-.13,0-.18l.84-.48a.34.34,0,0,1,.31,0l.84.48c.08.05.08.13,0,.18Z"/><path class="cls-64" d="M147.28,161.08l-.85.49a.32.32,0,0,1-.3,0l-.84-.49c-.08-.05-.08-.12,0-.17l.85-.49a.32.32,0,0,1,.3,0l.84.49c.08.05.08.12,0,.17Z"/><path class="cls-64" d="M148.59,161.85l-.84.48a.34.34,0,0,1-.31,0l-.84-.48c-.08,0-.08-.13,0-.18l.84-.49a.32.32,0,0,1,.3,0l.84.49c.09.05.09.13,0,.18Z"/><path class="cls-64" d="M140.15,155.41l-.84.49a.34.34,0,0,1-.31,0l-.84-.49c-.08,0-.08-.13,0-.18l.84-.48a.32.32,0,0,1,.3,0l.84.48c.09.05.09.13,0,.18Z"/><path class="cls-64" d="M141.46,156.17l-.84.49a.32.32,0,0,1-.3,0l-.84-.49c-.09,0-.09-.12,0-.17l.84-.49a.34.34,0,0,1,.31,0l.84.49c.08.05.08.13,0,.17Z"/><path class="cls-64" d="M142.78,156.94l-.85.48a.32.32,0,0,1-.3,0l-.84-.48a.1.1,0,0,1,0-.18l.84-.49a.34.34,0,0,1,.31,0l.84.49a.1.1,0,0,1,0,.18Z"/><path class="cls-64" d="M144.09,157.7l-.84.49a.34.34,0,0,1-.31,0l-.84-.49a.1.1,0,0,1,0-.18L143,157a.32.32,0,0,1,.3,0l.84.48a.1.1,0,0,1,0,.18Z"/><path class="cls-64" d="M145.4,158.46l-.84.49a.34.34,0,0,1-.31,0l-.83-.49c-.09-.05-.09-.13,0-.17l.84-.49a.34.34,0,0,1,.31,0l.83.49c.09,0,.09.12,0,.17Z"/><path class="cls-64" d="M146.72,159.23l-.85.48a.32.32,0,0,1-.3,0l-.84-.48c-.09,0-.08-.13,0-.18l.84-.49a.34.34,0,0,1,.31,0l.84.49a.1.1,0,0,1,0,.18Z"/><path class="cls-64" d="M148,160l-.85.49a.39.39,0,0,1-.3,0L146,160a.1.1,0,0,1,0-.18l.85-.48a.35.35,0,0,1,.3,0l.84.49a.1.1,0,0,1,0,.18Z"/><path class="cls-64" d="M149.34,160.75l-.84.49a.34.34,0,0,1-.31,0l-.83-.49c-.09-.05-.09-.13,0-.18l.84-.48a.32.32,0,0,1,.3,0l.84.48c.09.05.09.13,0,.18Z"/><path class="cls-64" d="M150.65,161.51l-.84.49a.32.32,0,0,1-.3,0l-.84-.49c-.09,0-.09-.12,0-.17l.84-.49a.34.34,0,0,1,.31,0l.84.49c.08,0,.08.13,0,.17Z"/><path class="cls-64" d="M152,162.28l-.85.48a.32.32,0,0,1-.3,0l-.84-.48a.1.1,0,0,1,0-.18l.84-.49a.37.37,0,0,1,.31,0l.84.49a.1.1,0,0,1,0,.18Z"/><path class="cls-64" d="M149.9,162.61l-.84.49a.32.32,0,0,1-.3,0l-.84-.49c-.09-.05-.09-.13,0-.18l.84-.48a.34.34,0,0,1,.31,0l.83.48c.09,0,.09.13,0,.18Z"/><path class="cls-64" d="M151.22,163.37l-.85.49a.32.32,0,0,1-.3,0l-.84-.49c-.08-.05-.08-.13,0-.17l.84-.49a.34.34,0,0,1,.31,0l.84.49c.08,0,.08.12,0,.17Z"/><path class="cls-64" d="M140.78,151.14l-.84.49a.34.34,0,0,1-.31,0l-.83-.49c-.09,0-.09-.12,0-.17l.84-.49a.34.34,0,0,1,.31,0l.83.49c.09.05.09.13,0,.17Z"/><path class="cls-64" d="M142.1,151.91l-.85.48a.32.32,0,0,1-.3,0l-.84-.48a.1.1,0,0,1,0-.18l.84-.49a.42.42,0,0,1,.31,0l.84.49a.1.1,0,0,1,0,.18Z"/><path class="cls-64" d="M143.41,152.67l-.84.49a.34.34,0,0,1-.31,0l-.84-.49a.1.1,0,0,1,0-.18l.85-.48a.32.32,0,0,1,.3,0l.84.48a.1.1,0,0,1,0,.18Z"/><path class="cls-64" d="M144.72,153.43l-.84.49a.34.34,0,0,1-.31,0l-.83-.49c-.09-.05-.09-.12,0-.17l.84-.49a.32.32,0,0,1,.3,0l.84.49c.09.05.09.12,0,.17Z"/><path class="cls-64" d="M138.84,154.65l-.85.48a.32.32,0,0,1-.3,0l-.84-.48a.1.1,0,0,1,0-.18l.85-.49a.39.39,0,0,1,.3,0l.84.49a.1.1,0,0,1,0,.18Z"/><path class="cls-64" d="M152.73,164.25l-.84.49a.34.34,0,0,1-.31,0l-1-.6a.1.1,0,0,1,0-.18l.85-.49a.32.32,0,0,1,.3,0l1,.61c.09,0,.09.12,0,.17Z"/><path class="cls-64" d="M152.77,158.11l-.84.49a.34.34,0,0,1-.31,0l-7.57-4.4c-.09,0-.09-.13,0-.18l.84-.49a.34.34,0,0,1,.31,0l7.57,4.4a.1.1,0,0,1,0,.18Z"/><path class="cls-64" d="M135.66,155.86l-.23.13a.34.34,0,0,1-.31,0l-.83-.48c-.09,0-.09-.13,0-.18l.22-.13a.34.34,0,0,1,.31,0l.84.48a.1.1,0,0,1,0,.18Z"/><path class="cls-64" d="M137,156.62l-.23.13a.32.32,0,0,1-.3,0l-.84-.48c-.09-.05-.08-.13,0-.18l.23-.13a.32.32,0,0,1,.3,0l.84.49c.08.05.08.12,0,.17Z"/><path class="cls-64" d="M138.28,157.39l-.23.13a.32.32,0,0,1-.3,0l-.84-.49a.1.1,0,0,1,0-.18l.23-.13a.34.34,0,0,1,.31,0l.83.49c.09,0,.09.13,0,.18Z"/><path class="cls-64" d="M139.59,158.15l-.22.13a.34.34,0,0,1-.31,0l-.84-.49c-.08,0-.08-.12,0-.17l.22-.13a.34.34,0,0,1,.31,0l.84.48c.08.05.08.13,0,.18Z"/><path class="cls-64" d="M140.91,158.91l-.23.13a.34.34,0,0,1-.31,0l-.83-.48c-.09-.05-.09-.13,0-.18l.23-.13a.32.32,0,0,1,.3,0l.84.49c.08,0,.08.12,0,.17Z"/><path class="cls-64" d="M142.22,159.68l-.23.13a.32.32,0,0,1-.3,0l-.84-.49a.1.1,0,0,1,0-.18l.23-.13a.32.32,0,0,1,.3,0l.84.49c.09.05.09.13,0,.18Z"/><path class="cls-64" d="M143.53,160.44l-.22.13a.34.34,0,0,1-.31,0l-.84-.49c-.08-.05-.08-.13,0-.17l.23-.14a.42.42,0,0,1,.31,0l.83.49c.09.05.09.13,0,.18Z"/><path class="cls-64" d="M144.85,161.2l-.23.13a.34.34,0,0,1-.31,0l-.83-.48c-.09,0-.09-.13,0-.18l.22-.13a.34.34,0,0,1,.31,0l.84.48a.1.1,0,0,1,0,.18Z"/><path class="cls-64" d="M146.16,162l-.23.14a.39.39,0,0,1-.3,0l-.84-.49c-.09-.05-.08-.13,0-.18l.23-.13a.32.32,0,0,1,.3,0l.84.49c.08.05.08.13,0,.17Z"/><path class="cls-64" d="M147.47,162.73l-.22.13a.34.34,0,0,1-.31,0l-.84-.49a.1.1,0,0,1,0-.18l.23-.13a.34.34,0,0,1,.31,0l.83.49c.09,0,.09.13,0,.18Z"/><path class="cls-64" d="M148.78,163.49l-.22.13a.34.34,0,0,1-.31,0l-.84-.49c-.08,0-.08-.12,0-.17l.22-.13a.34.34,0,0,1,.31,0l.84.48c.08.05.08.13,0,.18Z"/><path class="cls-64" d="M150.1,164.25l-.23.13a.32.32,0,0,1-.3,0l-.84-.48c-.09-.05-.09-.13,0-.18l.23-.13a.32.32,0,0,1,.3,0l.84.49c.08,0,.08.12,0,.17Z"/><path class="cls-64" d="M151.41,165l-.23.13a.32.32,0,0,1-.3,0l-.84-.49a.1.1,0,0,1,0-.18l.23-.13a.32.32,0,0,1,.3,0l.84.49c.09,0,.09.13,0,.18Z"/><path class="cls-64" d="M134.34,155.1l-.22.13a.34.34,0,0,1-.31,0l-1-.61c-.08,0-.08-.12,0-.17l.23-.13a.32.32,0,0,1,.3,0l1,.6c.09.05.09.13,0,.18Z"/><path class="cls-64" d="M137.53,153.88l-.84.49a.32.32,0,0,1-.3,0l-1.58-.92c-.09,0-.09-.13,0-.18l.84-.49a.42.42,0,0,1,.31,0l1.57.92c.09.05.09.13,0,.18Z"/><path class="cls-64" d="M139.52,153.49l-.84.49a.34.34,0,0,1-.31,0l-2.23-1.3c-.09-.05-.09-.13,0-.18L137,152a.34.34,0,0,1,.31,0l2.23,1.3c.09.05.09.12,0,.17Z"/><path class="cls-64" d="M140.86,152.72l-.84.49a.34.34,0,0,1-.31,0l-2.24-1.3c-.08,0-.08-.13,0-.18l.84-.49a.39.39,0,0,1,.3,0l2.24,1.3a.1.1,0,0,1,0,.18Z"/><path class="cls-64" d="M154.06,163.49l-.84.48a.34.34,0,0,1-.31,0L151.3,163a.1.1,0,0,1,0-.18l.85-.49a.32.32,0,0,1,.3,0l1.61.94c.09.05.09.13,0,.18Z"/><path class="cls-64" d="M155.39,162.72l-.84.48a.34.34,0,0,1-.31,0L152,161.89c-.09,0-.09-.13,0-.18l.84-.49a.34.34,0,0,1,.31,0l2.26,1.32c.09.05.09.13,0,.18Z"/><path class="cls-64" d="M156.09,160.76l-.23.13a.35.35,0,0,1-.3,0l-.84-.49a.1.1,0,0,1,0-.18l.23-.13a.34.34,0,0,1,.31,0l.83.49c.09,0,.09.13,0,.18Z"/><path class="cls-64" d="M156.71,160.4l-.23.13a.32.32,0,0,1-.3,0l-.84-.49c-.09,0-.09-.12,0-.17l.23-.13a.32.32,0,0,1,.3,0l.84.48a.1.1,0,0,1,0,.18Z"/><path class="cls-64" d="M151.34,160.36l-.85.49a.32.32,0,0,1-.3,0l-.84-.49a.1.1,0,0,1,0-.18l.84-.48a.34.34,0,0,1,.31,0l.84.48a.1.1,0,0,1,0,.18Z"/><path class="cls-64" d="M152.65,161.12l-.84.49a.34.34,0,0,1-.31,0l-.84-.49c-.08-.05-.08-.12,0-.17l.85-.49a.32.32,0,0,1,.3,0l.84.49c.08.05.08.12,0,.17Z"/><path class="cls-64" d="M152.68,159.59l-.85.48a.32.32,0,0,1-.3,0l-.84-.48a.1.1,0,0,1,0-.18l.84-.49a.34.34,0,0,1,.31,0l.84.49a.1.1,0,0,1,0,.18Z"/><path class="cls-64" d="M154,160.35l-.84.49a.34.34,0,0,1-.31,0l-.84-.49a.1.1,0,0,1,0-.18l.85-.48a.32.32,0,0,1,.3,0l.84.48a.1.1,0,0,1,0,.18Z"/><path class="cls-64" d="M155.3,161.11l-.84.49a.34.34,0,0,1-.31,0l-.83-.49c-.09-.05-.09-.13,0-.17l.84-.49a.34.34,0,0,1,.31,0l.83.49c.09,0,.09.12,0,.17Z"/><path class="cls-64" d="M156.73,161.94l-.84.49a.34.34,0,0,1-.31,0l-1-.55c-.09,0-.08-.13,0-.18l.84-.49a.34.34,0,0,1,.31,0l.95.56c.09,0,.09.13,0,.17Z"/><path class="cls-64" d="M148.71,158.83l-.84.49a.34.34,0,0,1-.31,0l-.84-.49c-.08,0-.08-.12,0-.17l.84-.49a.32.32,0,0,1,.3,0l.84.49c.09.05.09.13,0,.17Z"/><path class="cls-64" d="M150,159.6l-.84.48a.34.34,0,0,1-.31,0l-.83-.48c-.09,0-.09-.13,0-.18l.84-.49a.34.34,0,0,1,.31,0l.83.49c.09.05.09.13,0,.18Z"/><path class="cls-64" d="M150.05,158.06l-.84.49a.34.34,0,0,1-.31,0l-.84-.49a.1.1,0,0,1,0-.18l.85-.48a.32.32,0,0,1,.3,0l.84.48c.09.05.08.13,0,.18Z"/><path class="cls-64" d="M151.36,158.82l-.84.49a.34.34,0,0,1-.31,0l-.83-.49c-.09,0-.09-.12,0-.17l.84-.49a.34.34,0,0,1,.31,0l.83.49c.09,0,.09.13,0,.17Z"/><path class="cls-64" d="M146.09,157.31l-.85.48a.32.32,0,0,1-.3,0l-.84-.48c-.09-.05-.08-.13,0-.18l.84-.49a.42.42,0,0,1,.31,0l.84.49a.1.1,0,0,1,0,.18Z"/><path class="cls-64" d="M147.4,158.07l-.84.49a.34.34,0,0,1-.31,0l-.84-.49a.1.1,0,0,1,0-.18l.85-.48a.32.32,0,0,1,.3,0l.84.48a.1.1,0,0,1,0,.18Z"/><path class="cls-64" d="M147.42,156.54l-.84.48a.32.32,0,0,1-.3,0l-.84-.48c-.09,0-.09-.13,0-.18l.84-.49a.34.34,0,0,1,.31,0l.83.49c.09,0,.09.13,0,.18Z"/><path class="cls-64" d="M148.74,157.3l-.85.49a.35.35,0,0,1-.3,0l-.84-.48a.1.1,0,0,1,0-.18l.85-.49a.39.39,0,0,1,.3,0l.84.49a.1.1,0,0,1,0,.18Z"/><path class="cls-64" d="M143.46,155.78l-.84.49a.34.34,0,0,1-.31,0l-.84-.49c-.08-.05-.08-.13,0-.17l.85-.49a.32.32,0,0,1,.3,0l.84.49c.08,0,.08.12,0,.17Z"/><path class="cls-64" d="M144.77,156.55l-.84.48a.34.34,0,0,1-.31,0l-.83-.48c-.09-.05-.09-.13,0-.18l.84-.49a.34.34,0,0,1,.31,0l.83.49c.09,0,.09.13,0,.18Z"/><path class="cls-64" d="M144.8,155l-.84.49a.42.42,0,0,1-.31,0l-.84-.49a.1.1,0,0,1,0-.18l.85-.48a.32.32,0,0,1,.3,0l.84.48a.1.1,0,0,1,0,.18Z"/><path class="cls-64" d="M146.11,155.77l-.84.49a.34.34,0,0,1-.31,0l-.84-.49c-.08-.05-.08-.13,0-.17l.84-.49a.32.32,0,0,1,.3,0l.84.49c.09,0,.09.12,0,.17Z"/><path class="cls-64" d="M140.83,154.26l-.84.48a.34.34,0,0,1-.31,0l-.83-.48c-.09,0-.09-.13,0-.18l.84-.49a.34.34,0,0,1,.31,0l.83.49c.09,0,.09.13,0,.18Z"/><path class="cls-64" d="M142.15,155l-.85.49a.39.39,0,0,1-.3,0l-.84-.49a.1.1,0,0,1,0-.18l.84-.48a.34.34,0,0,1,.31,0l.84.48a.1.1,0,0,1,0,.18Z"/><path class="cls-64" d="M142.17,153.48l-.84.49a.34.34,0,0,1-.31,0l-.83-.49c-.09,0-.09-.13,0-.17l.84-.49a.34.34,0,0,1,.31,0l.83.49c.09,0,.09.12,0,.17Z"/><path class="cls-64" d="M143.49,154.25l-.85.48a.32.32,0,0,1-.3,0l-.84-.48c-.09-.05-.08-.13,0-.18l.84-.49a.34.34,0,0,1,.31,0l.84.49a.1.1,0,0,1,0,.18Z"/><path class="cls-64" d="M154.08,158.87l-.84.49a.34.34,0,0,1-.31,0l-.83-.49c-.09-.05-.09-.12,0-.17l.84-.49a.34.34,0,0,1,.31,0l.83.49c.09.05.09.13,0,.17Z"/><path class="cls-64" d="M155.4,159.64l-.85.48a.32.32,0,0,1-.3,0l-.84-.48a.1.1,0,0,1,0-.18l.84-.49a.34.34,0,0,1,.31,0l.84.49a.1.1,0,0,1,0,.18Z"/><path class="cls-64" d="M158.05,161.18l-.84.49a.34.34,0,0,1-.31,0l-.83-.49c-.09-.05-.09-.13,0-.18l.84-.48a.34.34,0,0,1,.31,0l.83.48c.09.05.09.13,0,.18Z"/><path class="cls-57" d="M122.49,154l-5.67-3.27c-.4-.23-.35-.64.11-.9l7.68-4.43a1.73,1.73,0,0,1,1.56-.07l5.66,3.27c.4.23.35.63-.11.9L124,154A1.71,1.71,0,0,1,122.49,154Z"/><path class="cls-65" d="M124.12,150.85s2.59-1.52,2.82-1.69c.53-.41.41-.62.19-.91a3.42,3.42,0,0,0-2.92-.88,4.7,4.7,0,0,0-2.84,2.21c-.1.35,0,.62.55.91A2.43,2.43,0,0,0,124.12,150.85Z"/><path class="cls-66" d="M142,143.72c-.8,3.57,4.49,4.63,4.61,1.93,3.46-2.89,6.84-5.78,10.23-8.74l-2.36-6C149.49,132.75,146.17,137.82,142,143.72Z"/><path class="cls-67" d="M169.15,134.4c-2.63-4.42-10.18-5.34-12.7-5.09-1.69.17-3.82,1-4.61,2.52-2.89,5.56,5.18,14.93,6,18.27a3.26,3.26,0,0,1-.64,2.25c2.74,8.16,15.34,5.79,15.05,2.46-.13-1.6-1.24-5-2-8.62C169.22,140.88,170.82,137.21,169.15,134.4Z"/><path class="cls-68" d="M156.55,127.13c.87,2.09,1.92,2.66,2.95,4.53.51,1.87-2.1,4.8-4.2,3.9-1-1.24-2.26-2.28-3.19-3.33Z"/><path class="cls-69" d="M146.79,127.64c.33,1.91-.22,1.41,1.34,4.32a14.72,14.72,0,0,0,3,2.93,3.12,3.12,0,0,0,1.69,0c.87-.26,2.56-2.6,3-3.28.92-1.58,1.4-2.05.87-3.51l-.18-1.77-1.22-5.05c-3.18-.49-6-.74-7.31,0S146.13,123.89,146.79,127.64Z"/><path class="cls-70" d="M154.45,119.44c4.52.53,3.29,7,2.76,9-.31-.12-.64.08-.72-.29-.17-.82-.7-1.47-1.18-1.49s-.92.69-.74,2.32a11.91,11.91,0,0,1-2.18-2.32s-6,1.75-7.64-1.51c.84-.68,1.45-4.55,3.26-5.5C150.2,118.52,153,118.44,154.45,119.44Z"/><path class="cls-66" d="M141.89,143.45c-1.78,2.61-3.15,5.23-4.69,8,.4,1.82,2.49,2.69,3.76,3a39.62,39.62,0,0,0,4.49-7.5C146.91,145.31,144.65,142.73,141.89,143.45Z"/><path class="cls-42" d="M178.23,161.54c.34.25.69-.26.69-.55a3.08,3.08,0,0,0-.29-1c-.19-.54-.39-1.07-.61-1.59a6.5,6.5,0,0,0-1.55-2.62c-.43-.35-1.21-.17-1.7-.07a17.72,17.72,0,0,0-2.84.91c-1.22.48-2.41,1-3.58,1.57q-.85.39-1.68.81c-.15.07-.69.24-.76.38s.46.63.67.64.7-.28,1-.42c.73-.35,1.46-.7,2.2-1,1.3-.59,2.63-1.15,4-1.62a13.79,13.79,0,0,1,1.39-.41,1.44,1.44,0,0,1,.77,0c.28.12.5.64.63.88.25.48.47,1,.68,1.47s.44,1.11.63,1.68c.09.25.17.51.26.76A.41.41,0,0,0,178.23,161.54Z"/><path class="cls-48" d="M176.63,153.32l-1.3.4a1.82,1.82,0,0,0-1.11.18l-1.27.57c-3.72,1.19-8.95,2.93-9,3.32a4.26,4.26,0,0,0,0,1.16V159h0a.87.87,0,0,0,.46.55,2.19,2.19,0,0,0,2,.08l9.94-4.52a.67.67,0,0,0,.29-.32.42.42,0,0,0,0-.1A2.06,2.06,0,0,0,176.63,153.32Z"/><path class="cls-41" d="M164.28,157.27l9.94-4.52a2.17,2.17,0,0,1,1.95.08h0c.58.33.65.84.15,1.13l-9.94,4.52a2.19,2.19,0,0,1-2-.08C163.85,158.07,163.78,157.56,164.28,157.27Z"/><path class="cls-69" d="M159.68,153.93a3.72,3.72,0,0,1-1.77-.07c-.92-.18-2-.74-2.4-.7l-3.14.37c-1,.19-1.28.67-1.1.93s1,.37,2,.33a10.17,10.17,0,0,0-3.28,2.74c-.84,1,1.21,1.87,1.65,1.87,2,0,3.32-1.49,5.26-1.56,2.15-.09,2.83-.52,4.79-1.39Z"/><path class="cls-71" d="M163.79,137.52c.78,4.94,5.48,12.42,7.68,16.36l3.85-.55c-.08-.23.46-1,.38-1.25-1.53-5.05-3.52-12.62-5.9-16.76-1-1.71-2.69-2.74-4-2.21C163.82,133.86,163.51,135.72,163.79,137.52Z"/><path class="cls-71" d="M172.16,149.36c-4.41.76-9.65,3-14,4.13-.44.74.65,3.74,1.27,4.24,4.43-.92,9.11-1.52,13.49-2.59,2.36-.58,3-1.68,2.9-2.91A3.09,3.09,0,0,0,172.16,149.36Z"/><polygon class="cls-58" points="137.38 178.21 140.56 178.21 143.5 176.83 133.23 171.15 137.38 178.21"/><polygon class="cls-72" points="140.73 176.83 126.97 168.88 124.72 164.53 138.48 172.47 140.73 176.83"/><polygon class="cls-73" points="137.38 178.21 123.62 170.27 124.72 164.53 138.48 172.47 137.38 178.21"/><path class="cls-58" d="M100.17,156.54a5.22,5.22,0,0,0,4.7,0c1.31-.76,1.31-2,0-2.72a5.21,5.21,0,0,0-4.71,0C98.88,154.57,98.87,155.79,100.17,156.54Z"/><path class="cls-74" d="M99.21,151.77v.15a7.14,7.14,0,0,0,1,3.5h0a1.62,1.62,0,0,0,.57.52,3.9,3.9,0,0,0,3.55,0,1.66,1.66,0,0,0,.57-.5,5.39,5.39,0,0,0,1-3.36V152C105.82,149.65,99.21,151.77,99.21,151.77Z"/><path class="cls-75" d="M99.21,151.92a7.14,7.14,0,0,0,1,3.5h0a1.62,1.62,0,0,0,.57.52,3.9,3.9,0,0,0,3.55,0,1.66,1.66,0,0,0,.57-.5,5.39,5.39,0,0,0,1-3.36V152l-.88.68s-.31,3-2.29,3.23S99.69,155.3,99.21,151.92Z"/><path class="cls-76" d="M100.17,153.27a5.19,5.19,0,0,0,4.7,0c1.31-.75,1.31-2,0-2.72a5.21,5.21,0,0,0-4.71,0C98.88,151.3,98.87,152.52,100.17,153.27Z"/><path class="cls-77" d="M100.86,150.64a3.7,3.7,0,0,1,3.35,0,1,1,0,0,1,0,1.94,3.7,3.7,0,0,1-3.35,0A1,1,0,0,1,100.86,150.64Z"/><path class="cls-74" d="M104.21,151.1a3.7,3.7,0,0,0-3.35,0,1.33,1.33,0,0,0-.66.73c-.14-.43.08-.89.66-1.22a3.7,3.7,0,0,1,3.35,0c.57.33.78.78.65,1.21A1.41,1.41,0,0,0,104.21,151.1Z"/><path class="cls-78" d="M102,151.53a2.13,2.13,0,0,1,2,0c.54.31.53.82,0,1.13a2.16,2.16,0,0,1-2,0C101.48,152.34,101.49,151.84,102,151.53Z"/><path class="cls-78" d="M101.24,150.74a2.13,2.13,0,0,1,2,0,.6.6,0,0,1,0,1.13,2.16,2.16,0,0,1-2,0A.59.59,0,0,1,101.24,150.74Z"/><path class="cls-79" d="M100.32,149.31c0,1.44.82,2.6,1.82,2.6s1.82-1.16,1.82-2.6-.82-2.6-1.82-2.6S100.32,147.87,100.32,149.31Z"/><path class="cls-80" d="M101.18,150.92a1.82,1.82,0,1,0,1.82-1.75A1.79,1.79,0,0,0,101.18,150.92Z"/><polygon class="cls-39" points="208.43 176.37 225.98 166.24 245.68 177.85 228.12 187.98 208.43 176.37"/><path class="cls-81" d="M226,113.2l-13.89,8,16,9.46,13.89-8Z"/><polygon class="cls-82" points="228.13 185.36 242.02 177.34 242.02 122.66 228.13 130.68 228.13 185.36"/><polygon class="cls-83" points="228.13 185.36 212.09 175.9 212.09 121.22 228.13 130.68 228.13 185.36"/><polygon class="cls-39" points="226.76 131.47 213.62 139.78 227.02 147.67 227.02 131.93 226.76 131.47"/><polygon class="cls-84" points="212.98 123.79 212.98 139.29 226.38 147.19 226.38 131.69 212.98 123.79"/><polygon class="cls-85" points="221.86 129.03 224.26 145.94 218.38 142.47 215.91 125.52 221.86 129.03"/><polygon class="cls-43" points="217.5 134.51 217.5 134.1 221.63 133.57 221.72 133.97 221.72 136.95 217.5 134.51"/><polygon class="cls-63" points="217.22 134.22 217.22 131.23 221.44 133.68 221.44 136.66 217.22 134.22"/><polygon class="cls-86" points="217.59 131.88 217.59 134 221.07 136.01 221.07 133.89 217.59 131.88"/><polygon class="cls-43" points="226.38 147.19 226.76 146.97 226.76 131.47 226.38 131.69 226.38 147.19"/><polygon class="cls-42" points="221.44 136.66 221.63 136.55 221.63 133.57 221.44 133.68 221.44 136.66"/><polygon class="cls-43" points="217.22 131.23 217.4 131.13 221.63 133.57 221.44 133.68 217.22 131.23"/><polygon class="cls-43" points="217.59 134 217.68 133.95 221.07 135.91 221.07 136.01 217.59 134"/><polygon class="cls-64" points="212.98 123.79 213.37 123.57 226.76 131.47 226.38 131.69 212.98 123.79"/><polygon class="cls-87" points="226.76 131.47 226.42 131.63 213.13 123.77 213.37 123.57 212.98 123.79 226.38 131.69 226.76 131.47"/><polygon class="cls-39" points="226.76 148.99 213.62 157.3 227.02 165.19 227.02 149.45 226.76 148.99"/><polygon class="cls-84" points="212.98 141.32 212.98 156.81 226.38 164.71 226.38 149.21 212.98 141.32"/><polygon class="cls-85" points="221.86 146.55 224.26 163.46 218.38 160 215.91 143.04 221.86 146.55"/><polygon class="cls-43" points="217.5 152.03 217.5 151.62 221.63 151.09 221.72 151.49 221.72 154.47 217.5 152.03"/><polygon class="cls-63" points="217.22 151.74 217.22 148.76 221.44 151.2 221.44 154.18 217.22 151.74"/><polygon class="cls-86" points="217.59 149.4 217.59 151.52 221.07 153.53 221.07 151.41 217.59 149.4"/><polygon class="cls-43" points="226.38 164.71 226.76 164.49 226.76 148.99 226.38 149.21 226.38 164.71"/><polygon class="cls-42" points="221.44 154.18 221.63 154.07 221.63 151.09 221.44 151.2 221.44 154.18"/><polygon class="cls-43" points="217.22 148.76 217.4 148.65 221.63 151.09 221.44 151.2 217.22 148.76"/><polygon class="cls-43" points="217.59 151.52 217.68 151.47 221.07 153.43 221.07 153.53 217.59 151.52"/><polygon class="cls-64" points="212.98 141.32 213.37 141.09 226.76 148.99 226.38 149.21 212.98 141.32"/><polygon class="cls-87" points="226.76 148.99 226.42 149.15 213.13 141.29 213.37 141.09 212.98 141.32 226.38 149.21 226.76 148.99"/><polygon class="cls-39" points="226.76 166.51 213.62 174.82 227.02 182.72 227.02 166.97 226.76 166.51"/><polygon class="cls-84" points="212.98 158.84 212.98 174.33 226.38 182.23 226.38 166.74 212.98 158.84"/><polygon class="cls-85" points="221.86 164.07 224.26 180.98 218.38 177.52 215.91 160.56 221.86 164.07"/><polygon class="cls-43" points="217.5 169.55 217.5 169.14 221.63 168.61 221.72 169.01 221.72 171.99 217.5 169.55"/><polygon class="cls-63" points="217.22 169.26 217.22 166.28 221.44 168.72 221.44 171.7 217.22 169.26"/><polygon class="cls-86" points="217.59 166.92 217.59 169.04 221.07 171.06 221.07 168.93 217.59 166.92"/><polygon class="cls-43" points="226.38 182.23 226.76 182.01 226.76 166.51 226.38 166.74 226.38 182.23"/><polygon class="cls-42" points="221.44 171.7 221.63 171.59 221.63 168.61 221.44 168.72 221.44 171.7"/><polygon class="cls-43" points="217.22 166.28 217.4 166.17 221.63 168.61 221.44 168.72 217.22 166.28"/><polygon class="cls-43" points="217.59 169.04 217.68 168.99 221.07 170.95 221.07 171.06 217.59 169.04"/><polygon class="cls-64" points="212.98 158.84 213.37 158.62 226.76 166.51 226.38 166.74 212.98 158.84"/><polygon class="cls-87" points="226.76 166.51 226.42 166.67 213.13 158.81 213.37 158.62 212.98 158.84 226.38 166.74 226.76 166.51"/><path class="cls-39" d="M250.79,189.34a9.84,9.84,0,0,1-8.92,0c-2.48-1.42-2.49-3.73,0-5.15a9.84,9.84,0,0,1,8.92,0C253.24,185.61,253.25,187.92,250.79,189.34Z"/><path class="cls-74" d="M252.61,177.5v.28c0,.88-.14,6.6-1.83,9.44h0a3,3,0,0,1-1.06,1,7.42,7.42,0,0,1-6.74,0,3.2,3.2,0,0,1-1.08-1A35.27,35.27,0,0,1,240,178v-.14C240.07,173.48,252.61,177.5,252.61,177.5Z"/><path class="cls-75" d="M252.61,177.78c0,.88-.14,6.6-1.83,9.44h0a3,3,0,0,1-1.06,1,7.42,7.42,0,0,1-6.74,0,3.2,3.2,0,0,1-1.08-1A35.27,35.27,0,0,1,240,178v-.14l1.67,1.29s.6,8.41,4.34,8.93S251.71,184.19,252.61,177.78Z"/><path class="cls-76" d="M250.79,180.34a9.84,9.84,0,0,1-8.92,0c-2.48-1.43-2.49-3.73,0-5.15a9.87,9.87,0,0,1,8.92,0C253.24,176.61,253.25,178.92,250.79,180.34Z"/><path class="cls-77" d="M249.48,175.35a7,7,0,0,0-6.35,0c-1.75,1-1.74,2.65,0,3.67a7,7,0,0,0,6.35,0C251.25,178,251.24,176.37,249.48,175.35Z"/><path class="cls-74" d="M243.13,176.23a7,7,0,0,1,6.35,0,2.55,2.55,0,0,1,1.25,1.39c.26-.81-.15-1.68-1.25-2.31a7,7,0,0,0-6.35,0c-1.08.62-1.48,1.48-1.23,2.29A2.54,2.54,0,0,1,243.13,176.23Z"/><path class="cls-78" d="M247.27,177a4.09,4.09,0,0,0-3.7,0,1.12,1.12,0,0,0,0,2.13,4.06,4.06,0,0,0,3.7,0C248.3,178.58,248.29,177.63,247.27,177Z"/><path class="cls-78" d="M248.76,175.53a4.11,4.11,0,0,0-3.71,0,1.12,1.12,0,0,0,0,2.13,4.06,4.06,0,0,0,3.7,0C249.79,177.08,249.78,176.13,248.76,175.53Z"/><path class="cls-79" d="M247.78,170.92c0,3.65-.37,6.61-.83,6.61s-.83-3-.83-6.61.83-29.81.83-29.81S247.78,167.27,247.78,170.92Z"/><path class="cls-79" d="M246.46,173.67c.48,2.7.5,5,0,5.07s-1.2-2-1.68-4.7-3.1-22.23-3.1-22.23S246,171,246.46,173.67Z"/><path class="cls-80" d="M246.66,174c.07,2.44-.35,4.43-.94,4.45s-1.12-1.94-1.19-4.38.55-18.3.55-18.3S246.59,171.52,246.66,174Z"/><path class="cls-88" d="M246.29,174.16c.5,2.37.44,4.42-.13,4.57s-1.44-1.65-1.95-4-2.73-18.05-2.73-18.05S245.78,171.78,246.29,174.16Z"/><path class="cls-80" d="M248.9,174.94c-.76,2.29-1.83,4-2.38,3.73s-.38-2.27.38-4.56,6.7-16.7,6.7-16.7S249.66,172.66,248.9,174.94Z"/><path class="cls-27" d="M105.29,180.41l-9.84,5.68a1.81,1.81,0,0,1-.35.16l-.06,0-.31.06h0a1.06,1.06,0,0,1-.31,0h0a.81.81,0,0,1-.27-.11h0l1,.6h0l.09.05.1,0,.07,0h.42l.17,0,.07,0,.06,0,.09,0,.26-.13,9.84-5.68Z"/><path class="cls-25" d="M106.31,181l-9.84,5.68c-1,.6-1.89.11-1.9-1.09l0-10.6-.68.39,0,10.61c0,1.63,1.16,2.29,2.58,1.47l9.84-5.68Z"/><path class="cls-89" d="M106.8,197.05a.24.24,0,0,1,0,.08h0l0,.07h0l-.06.07-.05,0,0,0-5.78,3.36v.92l5.78-3.36h0l0,0,.05,0h0l0,0h0l0,0a.05.05,0,0,1,0,0h0V198h0Z"/><path class="cls-90" d="M100.58,200.79h0a1,1,0,0,1-.25,0h0a1.09,1.09,0,0,1-.26,0h0a.92.92,0,0,1-.23-.09l-6.71-3.87a.36.36,0,0,1-.21-.3v.92a.34.34,0,0,0,.21.3l6.7,3.87.11.05.09,0,0,0h0l.08,0h.47l.06,0a.46.46,0,0,0,.16-.07v-.92A.72.72,0,0,1,100.58,200.79Z"/><path class="cls-91" d="M106.58,196.75c.29.16.29.43,0,.6l-5.78,3.36a1.17,1.17,0,0,1-1,0l-6.71-3.87a.32.32,0,0,1,0-.6l5.78-3.36a1.12,1.12,0,0,1,1,0Z"/><polygon class="cls-27" points="99.84 181.17 100.05 185.69 99.83 197.74 98.63 197.05 98.64 180.48 99.84 181.17"/><polygon class="cls-25" points="99.84 181.17 101.01 180.49 101 197.06 99.83 197.74 99.84 181.17"/><path class="cls-89" d="M110.55,181.43a.43.43,0,0,1,0,.11h0a.24.24,0,0,1-.06.11v0a.41.41,0,0,1-.09.1l-.08.06-.07,0-8.89,5.16-.18.61.18.82,8.89-5.17h0l.06,0,.08-.06h0l.07-.08v0l0,0,0-.06h0s0,0,0,0,0-.05,0-.07h0Z"/><path class="cls-90" d="M101,187.19h-.06a1.61,1.61,0,0,1-.39,0h0a1.84,1.84,0,0,1-.41,0h0a1.13,1.13,0,0,1-.36-.14l-10.32-6a.57.57,0,0,1-.33-.47v1.43a.55.55,0,0,0,.33.46l10.31,6,.17.08.13,0,.07,0h.05l.11,0h.46l.15,0,.06,0h0l.1,0,.25-.11v-1.43A1.73,1.73,0,0,1,101,187.19Z"/><path class="cls-91" d="M110.22,181a.49.49,0,0,1,0,.93l-8.89,5.16a1.72,1.72,0,0,1-1.59,0l-10.32-6a.49.49,0,0,1,0-.92L98.31,175a1.8,1.8,0,0,1,1.6,0Z"/><path class="cls-89" d="M99.72,173.66v7.19a.88.88,0,0,1,0,.17h0a.58.58,0,0,1,0,.14h0a.43.43,0,0,1,0,.07.49.49,0,0,1-.13.12l1.23-.71a.49.49,0,0,0,.13-.12s0,0,0,0l0,0h0l0,0s0,0,0,0,0,0,0,0v0h0v-.1a.08.08,0,0,1,0,0v0h0v-7.19Z"/><path class="cls-91" d="M99.23,172.53h0l.13.16h0l.12.17h0a1.14,1.14,0,0,1,.1.19h0a1.18,1.18,0,0,1,.07.2h0a1.33,1.33,0,0,1,0,.19h0a1.21,1.21,0,0,1,0,.19l1.23-.72v-.19h0v-.17s0,0,0,0h0l0,0a.06.06,0,0,0,0,0v0l0,0v0h0v0l0-.05,0,0,0,0h0v0l-.06-.09-.05-.07h0l0,0,0,0,0,0,0,0h0l0,0,0,0,0,0,0,0h0l0,0,0,0,0,0,0,0h0l-10.31-5.95h0l0,0h0l0,0H89.4l-.06,0s0,0-.06,0l-1.23.71.12,0h.13l.15,0h0l.17.08,10.3,5.95a.91.91,0,0,1,.16.11h0Z"/><path class="cls-90" d="M98.92,172.28l-10.3-5.95c-.45-.26-.8-.05-.81.45V174a1.73,1.73,0,0,0,.8,1.37l10.3,6c.45.25.8,0,.81-.46v-7.19A1.73,1.73,0,0,0,98.92,172.28Z"/><path class="cls-27" d="M93.86,186l0-10.61-1-.59,0,10.61a2.29,2.29,0,0,0,.31,1.22,1.32,1.32,0,0,0,.45.43l1,.59A1.8,1.8,0,0,1,93.86,186Z"/><polygon class="cls-27" points="93.83 175.39 92.81 174.8 93.5 174.4 94.52 175 93.83 175.39"/><path class="cls-25" d="M96.44,186.69c-1,.6-1.89.11-1.89-1.09l0-10.6-.69.39,0,10.61c0,1.63,1.17,2.29,2.59,1.47Z"/><path class="cls-27" d="M128.39,193.35,118.55,199a1.81,1.81,0,0,1-.35.16l-.06,0a1.25,1.25,0,0,1-.31.07h0a1,1,0,0,1-.3,0h0a.79.79,0,0,1-.27-.1h0l1,.59h0l.09.05.1,0,.07,0h.42l.17,0,.07,0,.06,0a.32.32,0,0,0,.09,0,1.58,1.58,0,0,0,.26-.13l9.84-5.68Z"/><path class="cls-25" d="M129.41,193.94l-9.84,5.68c-1,.61-1.89.12-1.9-1.08l0-10.61-.68.4,0,10.61c0,1.63,1.17,2.29,2.59,1.47l9.83-5.68Z"/><path class="cls-89" d="M129.9,210s0,0,0,.07h0l0,.07h0l-.06.07-.05,0,0,0-5.79,3.36v.92l5.78-3.36h0l0,0,.05,0h0l.05,0h0v0s0,0,0,0h0v0s0,0,0,0h0Z"/><path class="cls-90" d="M123.68,213.73h0a1.15,1.15,0,0,1-.26,0h0a1.09,1.09,0,0,1-.26,0h0a.85.85,0,0,1-.24-.09l-6.71-3.88a.36.36,0,0,1-.21-.3v.93a.36.36,0,0,0,.21.3l6.71,3.87a.31.31,0,0,0,.1.05l.09,0h.62l.06,0,.16-.07v-.92Z"/><path class="cls-91" d="M129.68,209.69a.32.32,0,0,1,0,.6l-5.79,3.36a1.17,1.17,0,0,1-1,0l-6.71-3.88a.31.31,0,0,1,0-.59l5.78-3.36a1.12,1.12,0,0,1,1,0Z"/><polygon class="cls-27" points="122.94 194.11 123.15 198.63 122.93 210.68 121.73 209.99 121.75 193.42 122.94 194.11"/><polygon class="cls-25" points="122.94 194.11 124.11 193.43 124.1 210 122.93 210.68 122.94 194.11"/><path class="cls-89" d="M133.65,194.36a.25.25,0,0,1,0,.12h0a.54.54,0,0,1,0,.11l0,0-.09.09-.07.06-.07,0-8.9,5.17-.18.61.18.81,8.89-5.16h0l0,0,.08-.06h0l.07-.07s0,0,0,0v0l0,0s0,0,0-.06h0v0s0,0,0,0a.13.13,0,0,0,0-.06h0Z"/><path class="cls-90" d="M124.09,200.12l0,0a2.58,2.58,0,0,1-.39,0h0a1.4,1.4,0,0,1-.41-.05h0a1.35,1.35,0,0,1-.37-.14l-10.31-6a.57.57,0,0,1-.33-.47V195a.57.57,0,0,0,.33.46l10.31,5.95.17.08.13,0,.07,0h0l.11,0h.28s0,0,.06,0h.12l.15,0,.06,0h.06l.09,0a1.12,1.12,0,0,0,.25-.11V200A1.26,1.26,0,0,1,124.09,200.12Z"/><path class="cls-91" d="M133.32,193.9c.44.26.44.67,0,.92l-8.9,5.17a1.75,1.75,0,0,1-1.59,0l-10.31-6a.49.49,0,0,1,0-.93l8.9-5.16a1.72,1.72,0,0,1,1.59,0Z"/><path class="cls-89" d="M122.82,186.6v7.19a.88.88,0,0,1,0,.17h0a.46.46,0,0,1-.05.14h0l0,.07a.49.49,0,0,1-.13.12l1.23-.72a.37.37,0,0,0,.13-.12h0s0,0,0-.06h0s0,0,0,0l0,0a.09.09,0,0,1,0-.05h0v-.16h0v-7.19Z"/><path class="cls-91" d="M122.34,185.47h0a1,1,0,0,1,.13.16h0a1.88,1.88,0,0,1,.12.18h0a1.62,1.62,0,0,1,.1.18h0a1.46,1.46,0,0,1,.07.19h0a1.94,1.94,0,0,1,0,.2h0a1.34,1.34,0,0,1,0,.2l1.23-.72v-.19h0v-.17a0,0,0,0,0,0,0h0v0s0,0,0,0v0l0,0v0h0l0,0,0,0,0,0a.08.08,0,0,1,0-.05h0l-.06-.09a.43.43,0,0,0,0-.07h0l0,0,0,0,0,0,0,0h0l0,0,0,0,0,0,0,0,0,0h0l0,0,0,0,0,0,0,0h0L113,178.55l0,0h0l0,0h-.41l-.07,0-1.23.72a.43.43,0,0,1,.12-.05h.14l.14,0h0l.16.07,10.31,6,.16.11h0Z"/><path class="cls-90" d="M122,185.22l-10.31-6c-.44-.25-.8,0-.8.46l0,7.19a1.73,1.73,0,0,0,.8,1.38l10.31,6c.44.26.8,0,.8-.45V186.6A1.72,1.72,0,0,0,122,185.22Z"/><path class="cls-27" d="M117,198.94l0-10.61-1-.6,0,10.61a2.33,2.33,0,0,0,.32,1.23,1.18,1.18,0,0,0,.44.42l1,.6A1.81,1.81,0,0,1,117,198.94Z"/><polygon class="cls-27" points="116.93 188.33 115.92 187.73 116.6 187.34 117.62 187.93 116.93 188.33"/><path class="cls-25" d="M119.55,199.62c-1,.61-1.9.12-1.9-1.08l0-10.61-.69.4,0,10.61c0,1.63,1.17,2.29,2.59,1.47Z"/><path class="cls-61" d="M123.91,160.41l3.75-11,3.12,1.8v0l0,6.65a.76.76,0,0,1,.21,0,2.48,2.48,0,0,1,1.55.32l5,2.71a1,1,0,0,1,.3.28l.14,0v.54a.9.9,0,0,1-.45.78l-5.15,3,0,0a2.66,2.66,0,0,1-.7.29h0l-.17,0a1.74,1.74,0,0,1-.39.05,3,3,0,0,1-1.49-.27l-.09,0-.14-.07-2.13-1.23-2.39-1.38a1.7,1.7,0,0,1-.42-.33,1.93,1.93,0,0,1-.38-.52,3,3,0,0,1-.16-.49A1.92,1.92,0,0,1,123.91,160.41Z"/><path class="cls-63" d="M119.4,130.23l.87-.6h0a.61.61,0,0,1,.6.07l22.53,13a2.11,2.11,0,0,1,1,1.45l1.56,17.28a.71.71,0,0,1-.26.72h0l-.83.57-.94-1.2L123,149.47a3,3,0,0,1-1.35-2.05l-1.47-16.19Z"/><path class="cls-61" d="M119.24,130.73,120.8,148a3,3,0,0,0,1.36,2.05L144,162.64c.69.4,1.18.12,1.12-.62l-1.56-17.27a1.87,1.87,0,0,0-.29-.77,2,2,0,0,0-.67-.68l-22.53-13a.59.59,0,0,0-.63-.06A.54.54,0,0,0,119.24,130.73Z"/><path class="cls-63" d="M124.43,159.9l3.16-10.44,3,1.75.51,6.19a2.44,2.44,0,0,1,1.71.28l4.69,2.71a.88.88,0,0,1,0,1.52l-4.91,2.83a3,3,0,0,1-2.93,0l-4.4-2.54A1.93,1.93,0,0,1,124.43,159.9Z"/><path class="cls-43" d="M129.93,148.71c6,4,10.44,0,13.3-4.73a2,2,0,0,0-.67-.68l-22.53-13a.59.59,0,0,0-.63-.06S118.6,141.17,129.93,148.71Z"/><path class="cls-83" d="M123.68,161.44a1.82,1.82,0,0,0,.07.25,2.34,2.34,0,0,0,.09.24,1.93,1.93,0,0,0,.38.52,1.7,1.7,0,0,0,.42.33l2.39,1.38,2.14,1.23.13.07.09,0a3.38,3.38,0,0,0,1.48.27,3.05,3.05,0,0,0,.41-.05l.17,0h0v-.41c-.45.07-.82-.13-.82-1h0l0-13.1v0l-3.12-1.8-3.75,11A2,2,0,0,0,123.68,161.44Z"/><path class="cls-61" d="M130.66,164.29v1c0,.2.24.37.37.49h0a1.74,1.74,0,0,0,.39-.05l.17,0h0a2.66,2.66,0,0,0,.7-.29l0,0c.11-.22.28-.64-.09-.46-1,.48-1.13-.31-1.13-.31l0-7v-2.37l-.51-4Z"/><path class="cls-39" d="M23.47,187.49a9.89,9.89,0,0,1-8.93,0c-2.47-1.43-2.48-3.74,0-5.16a9.84,9.84,0,0,1,8.92,0C25.91,183.77,25.93,186.07,23.47,187.49Z"/><path class="cls-74" d="M25.29,175.65v.28c0,.88-.14,6.6-1.83,9.44h0a2.94,2.94,0,0,1-1.07,1,7.39,7.39,0,0,1-6.73,0,3.2,3.2,0,0,1-1.08-1,35.27,35.27,0,0,1-1.85-9.18v-.14C12.75,171.63,25.29,175.65,25.29,175.65Z"/><path class="cls-75" d="M25.29,175.93c0,.88-.14,6.6-1.83,9.44h0a2.94,2.94,0,0,1-1.07,1,7.39,7.39,0,0,1-6.73,0,3.2,3.2,0,0,1-1.08-1,35.27,35.27,0,0,1-1.85-9.18v-.14l1.66,1.29s.61,8.41,4.35,8.93S24.38,182.34,25.29,175.93Z"/><path class="cls-76" d="M23.47,178.49a9.86,9.86,0,0,1-8.93,0c-2.47-1.43-2.48-3.73,0-5.15a9.84,9.84,0,0,1,8.92,0C25.91,174.76,25.93,177.07,23.47,178.49Z"/><path class="cls-77" d="M22.16,173.5a7,7,0,0,0-6.36,0c-1.75,1-1.74,2.65,0,3.67a7,7,0,0,0,6.36,0C23.93,176.16,23.92,174.52,22.16,173.5Z"/><path class="cls-74" d="M15.8,174.38a7,7,0,0,1,6.36,0,2.58,2.58,0,0,1,1.25,1.38c.26-.81-.16-1.68-1.25-2.31a7,7,0,0,0-6.36,0c-1.07.62-1.47,1.47-1.22,2.28A2.51,2.51,0,0,1,15.8,174.38Z"/><path class="cls-78" d="M19.94,175.19a4.06,4.06,0,0,0-3.7,0c-1,.59-1,1.54,0,2.14a4.09,4.09,0,0,0,3.7,0C21,176.74,21,175.78,19.94,175.19Z"/><path class="cls-78" d="M21.43,173.69a4.06,4.06,0,0,0-3.7,0c-1,.59-1,1.54,0,2.14a4.09,4.09,0,0,0,3.7,0A1.12,1.12,0,0,0,21.43,173.69Z"/><path class="cls-79" d="M20.46,169.07c0,3.65-.37,6.61-.83,6.61s-.83-3-.83-6.61.83-29.81.83-29.81S20.46,165.43,20.46,169.07Z"/><path class="cls-79" d="M19.14,171.83c.48,2.69.5,5,.05,5.06s-1.2-2-1.68-4.7S14.41,150,14.41,150,18.66,169.13,19.14,171.83Z"/><path class="cls-80" d="M19.34,172.11c.06,2.44-.36,4.43-.94,4.46s-1.12-1.95-1.19-4.39.55-18.3.55-18.3S19.27,169.67,19.34,172.11Z"/><path class="cls-88" d="M19,172.31c.51,2.37.45,4.42-.12,4.58s-1.44-1.65-1.95-4-2.73-18.05-2.73-18.05S18.46,169.93,19,172.31Z"/><path class="cls-80" d="M21.58,173.1c-.77,2.28-1.83,4-2.38,3.72s-.38-2.27.38-4.56,6.7-16.7,6.7-16.7S22.34,170.81,21.58,173.1Z"/><polygon class="cls-13" points="57.6 87.36 58.28 102.66 57.45 118.51 55.17 117.19 55.32 86.05 57.6 87.36"/><polygon class="cls-15" points="94.34 65.71 94.86 65.77 94.7 96.91 57.45 118.51 57.6 87 94.34 65.71"/><polygon class="cls-14" points="94.85 65.77 57.6 87.36 55.32 86.05 92.58 64.45 94.85 65.77"/></g></g></g></svg>