<svg xmlns="http://www.w3.org/2000/svg" viewBox="0 0 57.07 57.06"><defs><style>.cls-1{fill:#db8327;}</style></defs><g id="Layer_2" data-name="Layer 2"><g id="Amenities"><path class="cls-1" d="M0,29.08a1.21,1.21,0,0,1,1.17-.6H55.89a1.22,1.22,0,0,1,1.17.6q0,13.76,0,27.52c0,.38-.08.46-.46.46q-28.08,0-56.15,0C.07,57.06,0,57,0,56.6Q0,42.85,0,29.08Zm33.32,26c7,0,14.07,0,21.1,0,.48,0,.7-.09.7-.64q0-11.7,0-23.39c0-.5-.16-.64-.65-.64q-9.76,0-19.54,0c-.46,0-.63.15-.62.61,0,.95,0,1.89,0,2.84s-.39,1.34-1.36,1.34c-1.28,0-2.57,0-3.85,0-.41,0-.55.14-.54.55,0,1.32,0,2.64,0,3.95,0,.85-.34,1.19-1.18,1.2-1.26,0-2.52,0-3.78,0-.55,0-.76.12-.74.7.05,1.19,0,2.38,0,3.57s-.33,1.48-1.5,1.49-2.41,0-3.62,0c-.43,0-.59.16-.58.59,0,1.21,0,2.41,0,3.62s-.35,1.49-1.5,1.5H12c-.38,0-.54.13-.53.52s0,1,0,1.45c0,.76,0,.76.78.76ZM17.17,30.46H2.69c-.74,0-.74,0-.74.74V46.63c0,2.62,0,5.24,0,7.85,0,.5.16.64.64.64q3.15,0,6.3,0c.43,0,.59-.13.58-.58,0-1,0-2,0-2.95s.39-1.25,1.26-1.26h3.68c.75,0,.75,0,.75-.78,0-1.21,0-2.41,0-3.62,0-.92.37-1.28,1.28-1.29,1.26,0,2.52,0,3.79,0,.5,0,.64-.17.63-.64,0-1.19,0-2.38,0-3.57s.34-1.53,1.52-1.54,2.38,0,3.57,0c.49,0,.69-.13.68-.66,0-1.21,0-2.41,0-3.62s.32-1.42,1.42-1.43,2.38,0,3.57,0c.51,0,.76-.12.7-.68s0-.89,0-1.33c0-.73,0-.73-.75-.73Z"/><path class="cls-1" d="M29,0l5.46,2.52c1.48.68,3,1.34,4.46,2,.92.43,1.19.77,1.07,1.34s-.53.83-1.54.83c-2.73,0-5.46,0-8.19,0-.54,0-.7.16-.69.69,0,1.76,0,3.53,0,5.29,0,.53-.17.72-.7.71-1.56,0-1.35.15-1.36-1.32s0-3.16,0-4.74c0-.48-.15-.64-.64-.63-2.75,0-5.49,0-8.24,0h-.56a1,1,0,0,1-1-.83.94.94,0,0,1,.57-1.09c1.14-.54,2.3-1,3.44-1.58l6.54-3c.15-.07.29-.16.44-.24Zm5,4.65,0-.1c-1.58-.72-3.17-1.42-4.75-2.17a1.47,1.47,0,0,0-1.41,0c-1.5.71-3,1.37-4.51,2.06-.09.05-.25,0-.27.22Z"/><path class="cls-1" d="M57.06,6.46a3.2,3.2,0,0,1-3.44,2.17c-2.3-.06-4.6,0-6.9,0a2.93,2.93,0,0,1-3-2.73,2.94,2.94,0,0,1,2.46-3c.27-.05.53-.08.66-.41A4,4,0,0,1,49.59,0h1.67A4.05,4.05,0,0,1,54,2.46a.46.46,0,0,0,.4.33A3.15,3.15,0,0,1,57.06,4.9Zm-6.66.11h0c1.26,0,2.52,0,3.79,0a.81.81,0,0,0,.86-.88.83.83,0,0,0-.84-.85,4.34,4.34,0,0,0-.51,0c-1.07,0-1.31-.21-1.48-1.28A1.84,1.84,0,0,0,50.45,2,1.78,1.78,0,0,0,48.61,3.5a3.11,3.11,0,0,1-.08.44,1,1,0,0,1-1.05.88h-.62c-.72,0-1.12.31-1.13.87s.37.87,1.1.87Z"/><path class="cls-1" d="M7.48,0a4,4,0,0,1,2.79,2.42c.14.36.43.36.71.42a2.84,2.84,0,0,1,2.34,2.33,2.86,2.86,0,0,1-2.64,3.42c-2.67.05-5.34.06-8,0A2.88,2.88,0,0,1,0,6.46V4.9A3.14,3.14,0,0,1,2.64,2.79a.47.47,0,0,0,.41-.33A4.06,4.06,0,0,1,5.8,0ZM6.63,6.57h0c1.26,0,2.52,0,3.78,0a.85.85,0,0,0,.93-.83.88.88,0,0,0-.92-.9,5,5,0,0,0-.55,0c-1,0-1.26-.25-1.39-1.21a1.77,1.77,0,0,0-.76-1.3A1.83,1.83,0,0,0,4.84,3.64c-.11.87-.43,1.17-1.29,1.18H3.1c-.72,0-1.09.31-1.08.9s.33.84,1,.84Z"/><path class="cls-1" d="M27.94,15.13h7.3c.17,0,.41.1.5-.11s-.11-.34-.22-.49a2.61,2.61,0,0,0-1.8-1.11c-.41-.05-.55-.23-.52-.61a1,1,0,0,0,0-.17,2.89,2.89,0,0,1,.07-1.1c.17-.37.62-.22.94-.35A2.76,2.76,0,0,0,36,9c.08-.4.25-.54.63-.51h.28c1,0,1,0,1.3.91a2.72,2.72,0,0,0,2.24,1.93c.35.06.49.21.46.54a1.77,1.77,0,0,0,0,.23,3.63,3.63,0,0,1-.06,1.1c-.13.38-.62.22-.93.35a2.75,2.75,0,0,0-1.78,2.12c-.07.41-.22.6-.64.55s-.41.14-.38.41c.05.5-.23.58-.64.58-2.1,0-4.2,0-6.3,0-.51,0-.66.16-.66.67,0,2.69,0,5.38,0,8.08,0,.74,0,.75-.74.74-1.48,0-1.3.21-1.31-1.29,0-2.45,0-4.9,0-7.35,0-.83,0-.83-.87-.83-2,0-4,0-6,0-.57,0-.74-.19-.72-.74.05-1.5-.19-1.32,1.35-1.32Zm9.88-2.77a2.5,2.5,0,0,0-.71-.74c-.1,0-.8.66-.75.74a1.69,1.69,0,0,0,.74.71C37.21,13.12,37.81,12.5,37.82,12.36Z"/><path class="cls-1" d="M15.3,16.6c0,1.19,0,2.38,0,3.57,0,.5.15.67.67.67,2.05,0,4.12,0,6.18,0,.73,0,.75,0,.74.75,0,1.49.17,1.3-1.24,1.28-.53,0-.68.17-.66.67,0,.87,0,1.75,0,2.62,0,.38-.14.53-.52.52-1.79,0-1.5.25-1.53-1.48,0-.59,0-1.19,0-1.78,0-.42-.16-.55-.56-.54-.82,0-1.64,0-2.45,0-.48,0-.67.12-.65.62,0,.87,0,1.75,0,2.62,0,.39-.12.57-.54.56-1.78,0-1.5.24-1.51-1.43,0-4,0-8.1,0-12.14,0-.77,0-.78.77-.77,1.43,0,1.27-.2,1.28,1.27Z"/><path class="cls-1" d="M43.82,19.51c0,2.15,0,4.31,0,6.46,0,.52-.15.72-.69.71-1.57-.05-1.35.2-1.37-1.36q0-1,0-1.95c0-.35-.11-.51-.48-.5q-1.34,0-2.67,0c-.36,0-.5.14-.49.49,0,.9,0,1.79,0,2.68,0,.48-.16.65-.65.63-1.64,0-1.38.22-1.4-1.37,0-.65,0-1.3,0-1.94,0-.37-.14-.52-.49-.48h-.06c-.43-.06-1,.21-1.25-.17s-.08-1-.09-1.53a.31.31,0,0,1,.31-.33l.5,0h5.85c.92,0,.92,0,.92-.9V13.2c0-.88,0-.88.84-.88,1.34,0,1.21-.17,1.21,1.23C43.83,15.54,43.82,17.53,43.82,19.51Z"/><path class="cls-1" d="M10.52,14.24c0,.19,0,.38,0,.56s-.11.45-.44.51A2.71,2.71,0,0,0,7.72,17.7c0,.06,0,.12,0,.16-.41.56-1,.2-1.49.28a.41.41,0,0,1-.56-.37,2.89,2.89,0,0,0-2.48-2.5c-.73-.15-.28-.83-.36-1.27,0-.29-.15-.69.37-.77a2.77,2.77,0,0,0,2.46-2.44c.06-.3.2-.42.48-.42h.34c1.06,0,1,0,1.38,1a2.69,2.69,0,0,0,1.84,1.79C10.52,13.38,10.52,13.38,10.52,14.24Zm-3.09,0a2.76,2.76,0,0,0-.77-.72,2.6,2.6,0,0,0-.74.77c0,.1.73.76.79.71A3.08,3.08,0,0,0,7.43,14.24Z"/><path class="cls-1" d="M50.39,24.77h-.5c-.33,0-.49-.1-.55-.45A2.68,2.68,0,0,0,47,22c-.35-.06-.48-.22-.45-.55v-.17a3.61,3.61,0,0,1,.06-1.15c.15-.37.65-.25,1-.39a2.65,2.65,0,0,0,1.73-2.14c.07-.43.25-.59.65-.55h.34c1,0,.94,0,1.24.92a2.52,2.52,0,0,0,2,1.84c.66.11.84.41.76,1v.05c0,.95,0,.94-.88,1.21a2.71,2.71,0,0,0-1.88,1.89C51.29,24.77,51.3,24.77,50.39,24.77Zm0-3.13a2.49,2.49,0,0,0,.71-.7c0-.08-.64-.81-.73-.76a2,2,0,0,0-.73.73C49.63,21,50.27,21.64,50.43,21.64Z"/><path class="cls-1" d="M49.52,34.17c.88,0,1.75,0,2.62,0s1.16.37,1.16,1.16q0,2.7,0,5.4a1,1,0,0,1-1.17,1.18q-2.67,0-5.34,0a1.09,1.09,0,0,1-1.22-1.21c0-1.78,0-3.56,0-5.34,0-.81.41-1.18,1.22-1.19Zm-1.9,3.88c0,.44,0,.89,0,1.33s.1.49.45.48h2.73c.32,0,.48-.12.47-.45V36.68c0-.34-.16-.46-.48-.46H48.05c-.3,0-.44.13-.43.44Z"/><path class="cls-1" d="M39.93,51.4H37.26a1,1,0,0,1-1.18-1.16q0-2.7,0-5.4a1.07,1.07,0,0,1,1.18-1.18H42.6c.83,0,1.21.42,1.22,1.26,0,1.74,0,3.49,0,5.23,0,.87-.4,1.24-1.28,1.25Zm0-2c.43,0,.86,0,1.28,0s.55-.11.54-.51c0-.89,0-1.79,0-2.68,0-.32-.12-.47-.46-.46H38.59c-.34,0-.47.14-.46.47,0,.89,0,1.78,0,2.67,0,.35.13.51.49.5Z"/><path class="cls-1" d="M53.3,47.56c0,.89,0,1.78,0,2.67s-.36,1.16-1.16,1.16H46.75a1,1,0,0,1-1.17-1.12c0-1.82,0-3.64,0-5.45a1,1,0,0,1,1.15-1.15c1.82,0,3.63,0,5.45,0a1,1,0,0,1,1.12,1.16C53.31,45.74,53.3,46.65,53.3,47.56Zm-3.83-1.85H48.08c-.34,0-.47.12-.47.46,0,.89,0,1.78,0,2.67,0,.4.16.52.54.52.85,0,1.7,0,2.56,0,.4,0,.57-.15.56-.56,0-.85,0-1.71,0-2.56,0-.43-.18-.55-.58-.54S49.88,45.71,49.47,45.71Z"/><path class="cls-1" d="M39.94,34.17h2.67a1.08,1.08,0,0,1,1.21,1.2c0,1.77,0,3.53,0,5.29a1.1,1.1,0,0,1-1.23,1.25q-2.67,0-5.34,0a1.07,1.07,0,0,1-1.17-1.19q0-2.7,0-5.4c0-.77.4-1.14,1.19-1.15Zm1.83,3.89c0-.45,0-.89,0-1.34s-.12-.51-.48-.5H38.62c-.36,0-.5.15-.49.5,0,.89,0,1.78,0,2.67,0,.33.12.48.46.47h2.72c.34,0,.47-.14.46-.46S41.77,38.51,41.77,38.06Z"/><path class="cls-1" d="M16.21,38.49v3.22a1,1,0,0,1-.6,1,1,1,0,0,1-1.17-.26l-.08-.08c-.37-.3-.62-.93-1.06-.89s-.71.6-1.06.94c-.62.61-1.22,1.23-1.85,1.84a1.06,1.06,0,0,1-1.73,0c-.86-.85-1.72-1.7-2.56-2.56a1,1,0,0,1,0-1.68c.86-.88,1.72-1.75,2.6-2.6.28-.26.32-.45,0-.71a11.77,11.77,0,0,1-.86-.87,1,1,0,0,1-.19-1.09,1,1,0,0,1,.92-.6H15.2a1,1,0,0,1,1,1.08C16.22,36.33,16.21,37.41,16.21,38.49Zm-5-2.27c.45,1,.41,1.19-.3,1.9s-1.59,1.61-2.41,2.4c-.27.26-.31.46,0,.72A6.64,6.64,0,0,1,9.2,42c.25.29.42.24.67,0,.77-.8,1.57-1.58,2.36-2.36.26-.26.48-.58.88-.65a1.29,1.29,0,0,1,1.12.41V36.59c0-.27-.14-.37-.38-.37Z"/></g></g></svg>