<svg xmlns="http://www.w3.org/2000/svg" viewBox="0 0 264.38 269.11"><defs><style>.cls-1{fill:#db8327;}.cls-2{fill:#ef993f;}.cls-3{fill:#f9af62;}.cls-10,.cls-4{fill:#f2e4cb;}.cls-5,.cls-9{fill:#e8d7b7;}.cls-6,.cls-7{fill:#fcf0d8;}.cls-10,.cls-11,.cls-12,.cls-13,.cls-14,.cls-15,.cls-16,.cls-17,.cls-18,.cls-19,.cls-20,.cls-21,.cls-22,.cls-23,.cls-24,.cls-25,.cls-26,.cls-27,.cls-28,.cls-29,.cls-30,.cls-31,.cls-32,.cls-33,.cls-34,.cls-35,.cls-36,.cls-37,.cls-38,.cls-40,.cls-41,.cls-42,.cls-43,.cls-44,.cls-45,.cls-46,.cls-47,.cls-48,.cls-49,.cls-50,.cls-51,.cls-52,.cls-53,.cls-54,.cls-55,.cls-56,.cls-57,.cls-58,.cls-59,.cls-60,.cls-61,.cls-62,.cls-63,.cls-64,.cls-65,.cls-66,.cls-67,.cls-68,.cls-69,.cls-7,.cls-70,.cls-71,.cls-72,.cls-73,.cls-74,.cls-75,.cls-76,.cls-77,.cls-78,.cls-79,.cls-8,.cls-80,.cls-9{fill-rule:evenodd;}.cls-8{fill:#fff;}.cls-11{fill:#294f5e;}.cls-12{fill:#376375;}.cls-13{fill:#084478;}.cls-14{fill:#032747;}.cls-15{fill:#05345e;}.cls-16{fill:#929190;}.cls-17{fill:#d1d2d2;}.cls-18{fill:#e4eced;}.cls-19{fill:#f7fcfc;}.cls-20{fill:#c5d7d9;}.cls-21{fill:#20acb9;}.cls-22{fill:#ed564f;}.cls-23{fill:#faa820;}.cls-24{fill:#ffdba7;}.cls-25{fill:#f0c17d;}.cls-26{fill:#8c6c4a;}.cls-27{fill:#f7cc8f;}.cls-28{fill:#cbbecc;}.cls-29{fill:#279cd6;}.cls-30{fill:#163240;}.cls-31{fill:#e2d7e3;}.cls-33{fill:#f5ebf5;}.cls-34{fill:#041d33;}.cls-35{fill:#08355c;}.cls-36{fill:#1f0c02;}.cls-37{fill:#421f0e;}.cls-38{fill:#9c9ea2;}.cls-39,.cls-41{fill:#5fa101;}.cls-40{fill:#467800;}.cls-42{fill:#9fa3bd;}.cls-43{fill:#48453e;}.cls-44{fill:#1f4351;}.cls-45{fill:#367c83;}.cls-46{fill:#46aab4;}.cls-47{fill:#021a30;}.cls-48{fill:#615d54;}.cls-49{fill:#c1c3d4;}.cls-50{fill:#828994;}.cls-51{fill:#98a0ad;}.cls-52{fill:#005bab;}.cls-53{fill:#290f01;}.cls-54{fill:#8a8b8c;}.cls-55{fill:#473148;}.cls-56{fill:#042847;}.cls-57{fill:#25232b;}.cls-58{fill:#d0dbdf;}.cls-59{fill:#33303b;}.cls-60{fill:#e6e6e6;}.cls-61{fill:#d1d1d1;}.cls-62{fill:#f0f0f0;}.cls-63{fill:#fafafa;}.cls-64{fill:#ecf3f6;}.cls-65{fill:#632404;}.cls-66{fill:#ebf4f5;}.cls-67{fill:#c8d8d9;}.cls-68{fill:#331202;}.cls-69{fill:#471a03;}.cls-70{fill:#cce4f0;}.cls-71{fill:#9dafb0;}.cls-72{fill:#afc6c7;}.cls-73{fill:#c1d8d9;}.cls-74{fill:#ced0e0;}.cls-75{fill:#bdbdbd;}.cls-76{fill:#dcdcda;}.cls-77{fill:#575757;}.cls-78{fill:#121212;}.cls-79{fill:#292929;}.cls-80{fill:#3d3d3d;}</style></defs><g id="Layer_2" data-name="Layer 2"><g id="Category_Section" data-name="Category Section"><polygon class="cls-1" points="264.29 183.26 264.2 192.37 132.06 269.11 132.35 260.5 264.29 183.26"/><polygon class="cls-2" points="132.35 260.5 132.06 269.11 0 191.79 0.08 183.09 132.35 260.5"/><polygon class="cls-3" points="264.29 183.26 132.35 260.5 0.08 183.09 134.08 109.5 264.29 183.26"/><polygon class="cls-4" points="132.23 110.43 132.23 5.08 259.75 79.01 259.75 186.06 132.23 110.43"/><polygon class="cls-5" points="4.71 79.01 4.71 186.2 132.23 110.43 132.23 5.08 4.71 79.01"/><polygon class="cls-5" points="264.38 183.43 259.75 186.2 259.75 79.01 264.38 76.24 264.38 183.43"/><polygon class="cls-4" points="0.09 183.43 4.71 186.2 4.71 79.01 0.09 76.24 0.09 183.43"/><polygon class="cls-6" points="264.38 76.24 131.77 0 0.09 76.24 4.71 79.01 132.23 5.08 259.75 79.01 264.38 76.24"/><polygon class="cls-7" points="121.14 41.23 74.23 67.96 74.23 130.15 121.14 103.42 121.14 41.23"/><polygon class="cls-8" points="121.14 41.23 74.23 67.96 74.23 125.81 121.14 99.08 121.14 41.23"/><polygon class="cls-9" points="121.14 41.23 117.87 42.87 117.87 100.96 121.14 103.42 121.14 41.23"/><polygon class="cls-9" points="100.41 53.23 97.14 54.87 97.14 112.76 100.41 115.23 100.41 53.23"/><polygon class="cls-10" points="100.41 53.23 104.78 50.51 104.78 112.69 100.41 115.23 100.41 53.23"/><polygon class="cls-7" points="121.14 71.78 117.87 70.14 74.23 95.78 74.23 99.06 121.14 71.78"/><polygon class="cls-7" points="121.14 66.87 117.87 65.23 74.23 90.87 74.23 94.15 121.14 66.87"/><polygon class="cls-7" points="121.14 62.51 117.87 60.87 74.23 86.51 74.23 89.78 121.14 62.51"/><polygon class="cls-7" points="121.14 58.14 117.87 56.51 74.23 82.15 74.23 85.42 121.14 58.14"/><polygon class="cls-7" points="121.14 53.78 117.87 52.14 74.23 77.78 74.23 81.06 121.14 53.78"/><polygon class="cls-7" points="121.14 48.87 117.87 47.23 74.23 72.87 74.23 76.14 121.14 48.87"/><polygon class="cls-7" points="121.14 44.51 117.87 42.87 74.23 68.51 74.23 71.78 121.14 44.51"/><polygon class="cls-7" points="60.16 72.65 13.24 99.38 13.24 161.57 60.16 134.84 60.16 72.65"/><polygon class="cls-8" points="60.16 72.65 13.24 99.38 13.24 157.23 60.16 130.5 60.16 72.65"/><polygon class="cls-9" points="60.16 72.65 56.88 74.29 56.88 132.38 60.16 134.84 60.16 72.65"/><polygon class="cls-9" points="39.42 84.65 36.15 86.29 36.15 144.18 39.42 146.65 39.42 84.65"/><polygon class="cls-10" points="39.42 84.65 43.79 81.92 43.79 144.11 39.42 146.65 39.42 84.65"/><polygon class="cls-7" points="60.16 103.2 56.88 101.56 13.24 127.2 13.24 130.48 60.16 103.2"/><polygon class="cls-7" points="60.16 98.29 56.88 96.65 13.24 122.29 13.24 125.57 60.16 98.29"/><polygon class="cls-7" points="60.16 93.93 56.88 92.29 13.24 117.93 13.24 121.2 60.16 93.93"/><polygon class="cls-7" points="60.16 89.56 56.88 87.92 13.24 113.56 13.24 116.84 60.16 89.56"/><polygon class="cls-7" points="60.16 85.2 56.88 83.56 13.24 109.2 13.24 112.47 60.16 85.2"/><polygon class="cls-7" points="60.16 80.29 56.88 78.65 13.24 104.29 13.24 107.56 60.16 80.29"/><polygon class="cls-7" points="60.16 75.92 56.88 74.29 13.24 99.93 13.24 103.2 60.16 75.92"/><path class="cls-11" d="M17.72,163.87c-2.44,5.13-5.9,11.7-4.27,16.95.77,2.46,4.56,7.94,12.09,8.54,8.07.65,17.38-2.09,18.72-10.67.7-4.46-2.1-8.11-7.64-12.39-4.23-3.27-7.09-7.12-10.27-7.36C23.74,158.76,19.23,160.66,17.72,163.87Z"/><path class="cls-12" d="M22.17,163.43a14.89,14.89,0,0,0,.11,4.46c.61,5.28.92,9.66,7.12,10.41,3.28.4,8-.56,9.64-2.35a3.48,3.48,0,0,0,0-5.14c-2-2.1-6.61-3.35-8.27-4.73-1.37-1.14-2.68-3.82-3.46-4.43C25.88,160.58,22.51,161.89,22.17,163.43Z"/><path class="cls-11" d="M44.61,148c-2.44,5.13-5.9,11.69-4.27,16.95.77,2.46,4.56,7.93,12.09,8.54,8.07.65,17.38-2.09,18.72-10.67.7-4.46-2.1-8.11-7.64-12.39-4.23-3.27-7.09-7.13-10.27-7.36C50.63,142.85,46.12,144.76,44.61,148Z"/><path class="cls-12" d="M49.06,147.53a14.89,14.89,0,0,0,.11,4.46c.61,5.28.92,9.66,7.12,10.41,3.28.4,8-.56,9.64-2.35a3.48,3.48,0,0,0-.05-5.14c-2-2.1-6.61-3.35-8.27-4.73-1.37-1.14-2.68-3.82-3.46-4.43C52.77,144.68,49.4,146,49.06,147.53Z"/><polygon class="cls-13" points="160.15 142.73 157.69 141.29 157.68 138.77 160.14 140.2 160.15 142.73"/><polygon class="cls-14" points="160.14 140.2 157.68 138.77 165.73 134.12 168.19 135.55 160.14 140.2"/><polygon class="cls-15" points="168.19 135.55 168.2 138.07 160.15 142.73 160.14 140.2 168.19 135.55"/><polygon class="cls-16" points="161.31 114.9 162.76 114.05 164.23 114.9 162.77 115.75 161.31 114.9"/><polygon class="cls-15" points="162.77 115.75 163.17 125.24 162.71 138.16 161.24 137.31 161.31 114.9 162.77 115.75"/><polygon class="cls-14" points="162.77 115.75 164.23 114.9 164.16 137.31 162.71 138.16 162.77 115.75"/><polygon class="cls-13" points="190.54 160.32 188.08 158.89 188.07 156.37 190.53 157.8 190.54 160.32"/><polygon class="cls-14" points="190.53 157.8 188.07 156.37 196.13 151.72 198.59 153.15 190.53 157.8"/><polygon class="cls-15" points="198.59 153.15 198.6 155.67 190.54 160.32 190.53 157.8 198.59 153.15"/><polygon class="cls-15" points="193.01 133.34 193.83 144.11 192.95 155.76 191.48 154.91 191.55 132.5 193.01 133.34"/><polygon class="cls-14" points="193.01 133.34 194.47 132.5 194.41 154.91 192.95 155.76 193.01 133.34"/><polygon class="cls-16" points="191.55 132.5 193 131.65 194.47 132.5 193.01 133.34 191.55 132.5"/><polygon class="cls-15" points="196.28 133.58 198.25 132.43 198.25 134.5 196.27 135.65 196.28 133.58"/><polygon class="cls-14" points="159.29 112.32 161.27 111.17 198.25 132.43 196.28 133.58 159.29 112.32"/><polygon class="cls-13" points="196.28 133.58 196.27 135.65 159.28 114.4 159.29 112.32 196.28 133.58"/><polygon class="cls-17" points="160.37 81.05 161.16 80.59 197.15 101.46 196.35 101.92 160.37 81.05"/><polygon class="cls-18" points="196.35 101.92 197.15 101.46 197.06 132.55 196.26 133.01 196.35 101.92"/><polygon class="cls-19" points="196.35 101.92 196.26 133.01 160.28 112.14 160.37 81.05 196.35 101.92"/><path class="cls-20" d="M192.29,105.41l.62.35v.36l-.61-.35v-.36Zm-2.92,20.18v-.7l.3.17v.7l-.3-.17Zm0-1.4v-.71l.3.18v.7l-.3-.17Zm0-1.41v-.7l.3.18V123l-.3-.17Zm0-1.4v-.7l.3.18v.69l-.3-.17Zm0-1.4v-.7l.3.17v.7l-.3-.17Zm0-1.4v-.7l.3.17v.7l-.3-.17Zm0-1.41v-.69l.3.17v.7l-.3-.18Zm0-1.4v-.7l.3.17v.7l-.3-.17Zm0-1.4v-.7l.3.17v.7l-.3-.17Zm0-1.4v-.7l.3.17v.7l-.3-.17Zm0-1.41v-.69l.3.17v.7l-.3-.18Zm0-1.38v-.69l.3.17v.7l-.3-.18Zm0-1.4v-.7l.3.17V109l-.3-.18Zm0-1.4v-.7l.3.17v.71l-.3-.18Zm0-1.41v-.69l.3.17v.7l-.3-.18Zm0-1.4v-.7l.3.17v.71l-.3-.18Zm0-1.4v-.7l.3.17v.71l-.3-.18Zm0-2.1.3.17v.7l-.3-.17v-.7Zm-4.1,22.19v-.7l.3.17v.7l-.3-.17Zm0-1.4v-.7l.29.17v.7l-.29-.17Zm0-2.81v-.69l.29.17v.69l-.3-.17Zm0-1.4V117l.3.17v.7l-.29-.17Zm0-2.81v-.69l.29.17V115l-.29-.17Zm0-1.4v-.7l.3.17v.7l-.29-.17Zm0-1.4v-.7l.29.17v.7l-.3-.17Zm0-2.81v-.69l.29.17v.69l-.3-.17Zm0-1.37v-.7l.29.17v.7l-.29-.17Zm0-2.8v-.71l.29.17v.7l-.3-.16Zm0-1.41V103l.29.17v.7l-.29-.17Zm.22-2,.08,0v.71l-.3-.17v-.46l-.39-.22v-.36l.61.35v.11Zm-.21-.82v-.71l.29.17V101l-.29-.17Zm0-2.11.3.17v.7l-.29-.17v-.7Zm-4.12,22.18v-.7l.29.16v.71l-.29-.17Zm0-1.4v-.7l.3.17v.7l-.29-.17Zm0-1.41v-.69l.29.16v.36l.34.2v.36l-.61-.35v0Zm0-1.4V116l.29.17v.7l-.29-.17Zm0-1.4v-.7l.3.17v.7l-.3-.17Zm0-2.81v-.69l.3.16v.7l-.29-.17Zm0-1.4v-.7l.29.17v.7l-.3-.17Zm0-4.21v-.69l.29.17v.69l-.3-.17Zm0-1.38v-.69l.3.17v.69l-.29-.17Zm0-2.8V102l.29.17v.7l-.29-.17Zm0-1.41v-.69l.3.17v.7l-.29-.18Zm0-2.8v-.7l.3.17v.7l-.29-.17Zm0-2.1.29.17v.7l-.3-.17v-.7Zm-4.13,22.18v-.71l.32.19v.7l-.32-.18Zm0-1.4v-.71l.31.19v.7l-.32-.18Zm0-1.41v-.7l.32.19V116l-.32-.18Zm0-1.4v-.7l.32.19v.69l-.32-.18Zm0-1.4v-.71l.32.19v.7l-.32-.18Zm0-1.4v-.71l.32.19v.7l-.32-.18Zm0-1.41v-.7l.31.19v.69l-.32-.18Zm0-1.4v-.7l.32.18v.7l-.32-.18Zm0-1.4v-.7l.32.18v.7l-.32-.18Zm0-1.4v-.7l.32.18v.7l-.32-.18Zm0-1.41v-.7l.32.19v.7l-.32-.19Zm0-1.38v-.7l.31.19v.7l-.32-.19Zm0-1.4v-.7l.32.18v.7l-.32-.18Zm0-1.4v-.7l.32.18v.7l-.32-.18Zm0-1.41v-.69l.32.18v.7l-.31-.19Zm0-1.4v-.7l.32.18v.71l-.32-.19Zm0-1.4v-.7l.31.18v.71l-.32-.19Zm0-2.1.32.18v.7l-.32-.19v-.69Zm-4.1,22.19v-.7l.29.17v.7l-.29-.17Zm0-1.4v-.7l.3.17v.7l-.3-.17Zm0-1.75v-.36l.29.17v.7l-.06,0v0l-.61-.35v-.36l.38.21Zm0-1.06v-.7l.3.17v.7l-.29-.17Zm0-1.4v-.7l.29.17v.7l-.3-.17Zm.24-2,.06,0v.7l-.29-.17v-.45l-.38-.22v-.34l.61.35v.09Zm-.23-.84v-.69l.3.17V108l-.3-.17Zm0-1.4v-.7l.29.17v.7l-.29-.17Zm0-1.4v-.7l.3.17v.7l-.29-.17Zm0-1.4v-.7l.29.17v.7l-.3-.17Zm0-1.41v-.69l.29.17v.69l-.29-.17Zm0-1.37v-.7l.3.17V101l-.3-.16Zm0-2.81v-.7l.3.17v.7l-.29-.17Zm0-1.41v-.69l.29.17v.7l-.3-.18Zm0-2.8v-.7l.3.17V94l-.3-.17Zm0-2.1.29.17v.7l-.29-.17v-.7Zm-8.17,19.85v-.71l.29.17v.71l-.3-.17Zm0-1.4v-.71l.29.17v.71l-.29-.17Zm0-1.41v-.7l.3.17v.7l-.3-.17Zm0-1.4v-.7l.29.17v.7l-.29-.17Zm0-1.4v-.71l.3.17v.71l-.29-.17Zm0-1.4v-.71l.29.17v.71l-.3-.17Zm0-1.41v-.7l.29.17v.7l-.29-.17Zm0-1.4v-.7l.3.16v.71l-.3-.17Zm0-1.4v-.71l.29.17v.71l-.29-.17Zm0-1.4v-.71l.3.17v.71l-.29-.17Zm0-1.41v-.7l.3.17v.7l-.3-.17Zm0-1.38v-.7l.29.17v.7l-.29-.17Zm0-1.4v-.7l.3.17v.7l-.3-.17Zm0-1.4v-.7l.29.17v.7l-.29-.17Zm0-1.41v-.69l.29.16v.7l-.29-.17Zm0-1.4v-.7l.29.17v.7l-.3-.17Zm0-1.4v-.7l.29.17v.7l-.29-.17Zm0-2.1.3.17v.69l-.3-.17v-.69Zm4,26.85v-.71l.32.18v.71l-.31-.18Zm0-1.4v-.71l.31.18v.71l-.31-.18Zm0-1.41v-.7l.31.18v.36l.34.2v.36l-.61-.35v0l0,0Zm0-1.4V109l.32.18v.7l-.32-.18Zm0-1.4v-.7l.31.18v.7l-.31-.18Zm0-2.81v-.7l.31.18v.7l-.31-.18Zm0-1.4v-.7l.31.18v.7l-.31-.18Zm0-4.21v-.7l.32.18v.7l-.31-.18Zm0-1.38v-.69l.31.18v.69l-.31-.18Zm0-2.8V95l.31.18v.7l-.32-.18Zm0-1.41V93.6l.31.18v.69l-.31-.18Zm0-2.8v-.7l.31.18v.7l-.32-.18Zm0-2.1.31.18v.69l-.31-.18v-.69ZM161.91,107v-.37l.6.35v.37l-.6-.35Zm1.21.7v-.37l.58.34V108l-.59-.34Zm1.2.69V108l.62.35v.37l-.62-.36Zm1.22.71v-.37l.62.35v.37l-.62-.35Zm1.2.69v-.37l.62.36v.36l-.62-.35Zm1.23.71v-.37l.61.35v.37l-.6-.35Zm2.42,1.39v-.36l.61.35v.37l-.61-.36Zm1.22.71v-.37l.61.35v.37l-.61-.35ZM174,114v-.37l.61.35v.37L174,114Zm1.22.7v-.37l.61.36V115l-.61-.35Zm1.22.7V115l.61.35v.37l-.61-.36Zm1.2.7v-.37l.61.35v.37l-.61-.35Zm1.22.7v-.36l.6.35v.37l-.61-.36Zm1.22.71v-.37l.6.34v.37l-.6-.34Zm2.42,1.39v-.36l.62.35v.37l-.61-.36Zm1.23.71v-.36l.59.34v.36l-.58-.34Zm1.8,1v0l-.6-.35v-.37l.39.23v-.36l.3.17v.69l-.08,0Zm.62.38v-.37l.61.36v.36l-.61-.35Zm1.21.7v-.36l.59.34V122l-.6-.35Zm1.2.69V122l.61.35v.37l-.62-.36Zm1.23.71v-.36l.61.35v.36l-.61-.35Zm1.22.71v-.37l.59.34v.37l-.59-.34Zm1.2.32.61.36v.36l-.61-.35v-.37Zm-30.32-21.83v-.34l.61.35v.34l-.61-.35Zm1.22.71v-.35l.59.34v.35l-.58-.34Zm1.2.69v-.35l.61.36V104l-.61-.35Zm1.22.7V104l.61.35v.35l-.61-.36Zm1.2.7v-.35l.61.36v.34l-.61-.35Zm1.22.7v-.34l.61.35v.34l-.61-.35Zm1.22.46v-.1l.61.36v.34l-.33-.19v.45l-.31-.18v-.71l0,0Zm1.2.94v-.34l.61.35v.34l-.61-.35Zm1.22.7v-.34l.61.35v.35l-.61-.36Zm2.42,1.4v-.34l.61.35v.34l-.61-.35Zm1.22.71v-.35l.62.36v.34l-.62-.35Zm1.22.7v-.34l.62.35V111l-.61-.35Zm1.2.69V111l.62.35v.35l-.61-.36Zm1.23.71v-.34l.61.35v.34l-.6-.35Zm1.22.71v-.35l.59.34v.35l-.59-.34Zm1.2.44v-.1l.61.36v.34l-.34-.19v.45l-.29-.17v-.7Zm1.22,1v-.34l.61.35v.35l-.61-.36Zm1.22.71v-.35l.59.34v.35l-.59-.34Zm1.2.69v-.34l.61.35v.09l.08,0v.7l-.3-.17v-.45l-.39-.23Zm1.22.71v-.35l.61.36v.34l-.61-.35Zm1.22.7v-.35l.59.35v.34l-.59-.34Zm1.2.69v-.34l.61.35V118l-.61-.36Zm1.22.71V118l.61.36v.34l-.61-.35Zm1.22.7v-.34l.6.34v.35l-.6-.35Zm1.2.35.61.35v.35l-.61-.35v-.35ZM161.93,97.6v-.36l.61.35V98l-.61-.35Zm1.22.71v-.37l.59.34v.37l-.59-.34Zm1.2.69v-.37L165,99v.36l-.61-.35Zm1.22.7v-.36l.61.35v.37l-.61-.36Zm1.2.7V100l.61.35v.37l-.61-.35Zm1.23.7v-.36l.6.35v.36l-.6-.35Zm1.21.71v-.37l.61.35v.37l-.62-.35Zm0,.88.32.18v-.7l-.31-.19v.71Zm0-1.4.31.18v-.7l-.31-.18v.7Zm1.23,1.21v-.37l.62.36v.36l-.62-.35Zm1.22.7v-.36l.62.35v.37l-.62-.36Zm1.23.71.6.35v-.37l-.6-.35v.37Zm1.2.69v-.36l.6.35V105l-.6-.35Zm1.22.71v-.37l.61.35v.37l-.61-.35Zm1.22.7v-.37l.61.36v.36l-.61-.35Zm1.2.69v-.36l.61.35v.37l-.61-.36Zm1.22.71V107l.61.35v.37l-.61-.35Zm1.22.7v-.36l.6.34v.37l-.59-.35Zm1.2.7v-.37l.61.35v.37l-.61-.35Zm0,.89.29.17v-.7l-.29-.17v.7Zm0-1.4.29.17v-.7l-.3-.17v.7Zm1.24,1.21v-.37l.61.36v.36l-.61-.35Zm1.22.71v-.37l.59.34v.37l-.59-.34Zm1.2.69v-.37l.61.35v.37l-.61-.35Zm.4-.27.29.17v-.7l-.29-.17v.7Zm.82,1v-.36l.62.35V112l-.61-.36Zm1.22.71V112l.6.35v.36l-.6-.34Zm1.2.69v-.36l.62.35v.36l-.61-.35Zm1.23.71v-.37l.6.35v.37l-.6-.35Zm1.21.7v-.36l.6.34v.37l-.6-.35Zm1.21.33.61.35v.37l-.61-.35v-.37ZM161.94,92.92v-.34l.6.35v.34l-.61-.35Zm1.22.7v-.34l.59.34V94l-.59-.34Zm1.2.7V94l.61.35v.34l-.62-.35Zm1.22.7v-.34l.62.36v.33l-.62-.35Zm1.2.69v-.33l.62.35v.34l-.62-.36Zm1.23.71v-.34l.61.35v.34l-.6-.35Zm1.49.52.34.2v.34l-.34-.2-.27-.16,0,0v-.7l.31.18v.36Zm.93.88v-.34l.61.35v.34l-.61-.35Zm1.22.7v-.34l.61.36v.33l-.61-.35Zm1.22.37.38.22v-.37l.29.17v.7l-.06,0-.23-.14-.38-.21v-.34Zm1.2,1v-.34l.61.35v.34l-.61-.35Zm1.22.7v-.33l.61.35V101l-.61-.36Zm1.22.71V101l.61.35v.34l-.61-.35Zm1.2.69v-.34l.61.36v.33l-.61-.35Zm1.22.71v-.34l.61.35v.34l-.61-.35Zm1.22.7v-.34l.6.35v.33l-.6-.34Zm1.48.52.34.19v.34l-.33-.2-.28-.16h0v-.7l.29.17V104Zm.94.88v-.34l.61.35v.34l-.61-.35Zm1.23.71v-.34l.59.34v.33l-.58-.33Zm1.2.35.39.23v-.37l.3.17v.7l-.08,0-.21-.12-.39-.23v-.34Zm1.22,1v-.34l.61.36v.34l-.61-.36Zm1.21.71v-.34l.6.34V108l-.6-.34Zm1.21.69V108l.61.35v.34l-.61-.35Zm1.22.71v-.34l.61.35v.34l-.6-.35Zm1.22.7v-.34l.59.34v.34l-.59-.34Zm1.2.36.61.35v.34l-.61-.36v-.33ZM162,88.26V87.9l.61.35v.36l-.6-.35Zm1.22.7V88.6l.59.34v.36l-.59-.34Zm1.2.69V89.3l.61.35V90l-.61-.36Zm1.22.71V90l.61.35v.36l-.61-.35Zm1.2.69v-.36l.61.36v.35l-.61-.35Zm1.22.71V91.4l.61.35v.36l-.61-.35Zm1.22.45V92.1l.61.36v.36l-.34-.2v.45l-.31-.18v-.7l0,0Zm1.2.94V92.8l.61.35v.36l-.61-.36Zm1.22.71V93.5l.61.35v.36l-.61-.35Zm1.22.71v-.36l.6.35v.1l.06,0v.7l-.29-.16v-.46l-.38-.21Zm1.2.69V94.9l.6.35v.36l-.61-.35Zm1.22.7V95.6l.62.36v.36L175.3,96Zm1.22.71v-.36l.62.35V97l-.61-.35Zm1.2.69V97l.61.35v.36l-.61-.35Zm1.23.71v-.36l.6.35v.36l-.6-.35Zm1.22.7v-.36l.59.34v.36l-.59-.34Zm1.2.44V99.1l.61.36v.36l-.34-.2v.45l-.3-.17v-.7Zm1.21,1v-.36l.61.35v.36l-.62-.35Zm1.23.7v-.36l.59.34v.36l-.59-.34Zm2.42,1.4v-.36l.61.36v.35l-.61-.35Zm1.22.7v-.36l.59.35v.36l-.59-.35Zm1.2.7v-.36l.61.35V104l-.61-.35Zm1.22.7V104l.61.35v.35l-.61-.35Zm1.22.71v-.36l.6.34v.36Z"/><polygon class="cls-15" points="196.28 100.49 198.25 99.34 198.25 101.42 196.27 102.57 196.28 100.49"/><polygon class="cls-14" points="159.29 79.23 161.27 78.08 198.25 99.34 196.28 100.49 159.29 79.23"/><polygon class="cls-13" points="196.28 100.49 196.27 102.57 159.28 81.31 159.29 79.23 196.28 100.49"/><polygon class="cls-21" points="186.21 108.4 189.83 122.8 186.76 121.03 182.51 118.58 184.66 112.69 186.21 108.4"/><polygon class="cls-22" points="181.39 99.74 184.66 112.69 182.51 118.58 186.76 121.03 183.37 119.07 175.91 114.77 179.53 104.86 181.39 99.74"/><polygon class="cls-13" points="176.67 94.29 179.53 104.86 175.91 114.77 183.37 119.07 176.06 114.85 169.86 111.27 173.11 103.16 176.67 94.29"/><polygon class="cls-23" points="170.69 93.54 173.11 103.16 169.86 111.27 176.06 114.85 165.24 108.6 170.69 93.54"/><path class="cls-24" d="M191.08,113.87H191a12.44,12.44,0,0,1-1.14-1,4.75,4.75,0,0,1-1-1.64.94.94,0,0,0-.62-.65l-.82-.42c-.52-.27-.58-.19-1.19-.17s-1,0-1,.38.48.36,1,.48a8.09,8.09,0,0,1,.46,2.16c.62.86.89,1.39,1.54,1.61a2.61,2.61,0,0,0,.83,0l1.18,1.43Z"/><path class="cls-25" d="M185.26,110.47c.09.25.51.29,1,.4,0,.08.23.36.19.4s-.45-.12-.47,0a4.92,4.92,0,0,0,.05,1.56c0,.06.78.33.82.39.53.75.8,1.23,1.41,1.43a1.41,1.41,0,0,0,.56,0c-.22-.89-.06-2.52-.48-3.21a2.54,2.54,0,0,0-1.45-1A5.43,5.43,0,0,0,185.26,110.47Z"/><path class="cls-26" d="M188,112.55c.1.19-.08.63-.32.62h0c-.25,0-.52.08-.59-.12l-6.11-15Z"/><path class="cls-27" d="M186.78,112a2.55,2.55,0,0,1-.85-.38c-.08-.07-.07-.26-.05-.38s0-.17.27-.11a2.53,2.53,0,0,1,.61.23C187.13,111.56,187.28,112.16,186.78,112Z"/><path class="cls-24" d="M186.91,112.78a3,3,0,0,1-1-.48c-.09-.07-.08-.26-.05-.38s0-.19.21-.12.61.26.79.34C187.26,112.31,187.41,112.9,186.91,112.78Z"/><path class="cls-24" d="M186.79,113.3a2.93,2.93,0,0,1-.77-.39c-.06,0-.06-.2,0-.3s0-.15.17-.1.49.21.64.28.39.54.08.52Z"/><path class="cls-24" d="M188.21,111.08a1.76,1.76,0,0,1-1.6-.61,2.29,2.29,0,0,0-.55-.48.29.29,0,0,0-.3,0c-.16.12-.16.7.38,1.12l.84.66c.36,1.29.64,1.65,2,2l.68-.83-.77-1.36Z"/><path class="cls-28" d="M197.29,119.19l-7.06-6.27a2.59,2.59,0,0,0-1.82,1.92l6.28,7C196.75,123.65,199.39,121.74,197.29,119.19Z"/><path class="cls-28" d="M195.71,111.25l-.91,7c-.28,2.31,2.94,4.08,3.49,1.11l2.07-8.52c.55-4.88-1.85-4.89-3.3-3.84C195.92,107.81,195.89,109.87,195.71,111.25Z"/><path class="cls-29" d="M203.53,158.45a4.18,4.18,0,0,1-1.26,2.21c-.42.43-2.72,1.89-2.89,2.32a1,1,0,0,0,.38,1.18,3.81,3.81,0,0,0,2.27.22,8.73,8.73,0,0,0,3.85-2c.12.13.65-.06,1.15-.35s.62-.44.67-.83a6.1,6.1,0,0,0-.06-1.12,7.72,7.72,0,0,0-.76-2.17l-1.48-.33Z"/><path class="cls-30" d="M199.32,163.22a.94.94,0,0,0,.44.94,3.81,3.81,0,0,0,2.27.22,8.73,8.73,0,0,0,3.85-2c.12.13.65-.06,1.15-.35s.62-.44.67-.83a2.89,2.89,0,0,0,0-.58c-.18.57-1.38,1.13-1.95,1.16a8.77,8.77,0,0,1-3.85,1.93,3.85,3.85,0,0,1-2.28-.22A1.11,1.11,0,0,1,199.32,163.22Z"/><path class="cls-29" d="M199.84,156.28a4.18,4.18,0,0,1-1.26,2.21c-.42.43-2.72,1.89-2.88,2.32a1,1,0,0,0,.37,1.18,3.83,3.83,0,0,0,2.28.22,8.83,8.83,0,0,0,3.84-2c.12.12.65-.06,1.15-.36s.62-.44.67-.83a7.1,7.1,0,0,0,0-1.12,7.91,7.91,0,0,0-.77-2.16l-1.48-.34Z"/><path class="cls-30" d="M195.63,161.05a.94.94,0,0,0,.44.94,3.83,3.83,0,0,0,2.28.22,8.83,8.83,0,0,0,3.84-2c.12.12.65-.06,1.15-.36s.62-.44.67-.83a3.69,3.69,0,0,0,0-.58,2.72,2.72,0,0,1-2,1.16,8.77,8.77,0,0,1-3.85,1.93,3.85,3.85,0,0,1-2.28-.22A1.11,1.11,0,0,1,195.63,161.05Z"/><path class="cls-14" d="M203.49,126.1a37.94,37.94,0,0,1,.95,5c.25,3.31-1.23,8.76-1.44,12.34l.13,2.61c.28,2.7.13,5.54.36,9.7a1.53,1.53,0,0,1,0,.37c.54.44.11,1.27-1,1.93s-2.76.93-3.46.52a.63.63,0,0,1-.34-.44h0c-.08-.11-.58-15.36-.8-17.24-.21-5.34-.22-10.19-.41-15.88Z"/><path class="cls-15" d="M207.51,127c.32,2.8,1,4.14.44,7.15a80.53,80.53,0,0,0-1.13,9.41l.43,3.92c.28,2.7-.09,7.07.14,11.23h0c.14.46-.32,1.1-1.23,1.62a4.15,4.15,0,0,1-3.46.53.64.64,0,0,1-.34-.48h0l-1-17.9c-.21-5.34-.38-9.58-.56-15.27Z"/><path class="cls-31" d="M209.55,112.56c.24,1.6-.84,4.53-1,6a51.34,51.34,0,0,0-.59,7.34c0,.84.19,3.12.27,4.91a1.3,1.3,0,0,1-.73,1.37c-1.5.88-4.82.38-7.4-1.11-1.65-1-2.6-2.08-2.68-3h0l-1.34-13.83c-.3-3.22-.39-6.87,1.76-7.83,1.69-1,4.84-.55,7.73,1.12C208.14,109.07,209.67,110.93,209.55,112.56Z"/><path class="cls-25" d="M204,104.51c.1,1,.27,2.17.28,3.08,0,1.67-3.39,2.36-3.82.88-.06-.83-.23-1.69-.31-2.52Z"/><path class="cls-24" d="M198.47,102a8.59,8.59,0,0,0,.62,3.7,4.33,4.33,0,0,0,.76,1.4,2.75,2.75,0,0,0,1.21.45,10.49,10.49,0,0,0,2.16-1.12c.95-.54.87-.81,1-2l.43-1.66-.46-3.26c-2-.52-3.71-.84-4.61-.46S198.3,99.63,198.47,102Z"/><path class="cls-32" d="M203.83,98.34a2.81,2.81,0,0,1,1.7,2.94,8.56,8.56,0,0,1-1.34,3.79c-.1-.95.29-2-.15-2.22-.24-.14-1-.1-1.29,1.19a9.21,9.21,0,0,1-.34-1.88c-.19-2.54-3.75,0-4.56-2.42.6-.37.9-1.36,1.93-1.9S203,97.36,203.83,98.34Z"/><path class="cls-24" d="M206.82,131.51a8.38,8.38,0,0,1-.73,1.07c-.29.44-.15,1.62-.17,2s.52.6.6.08-.09-.9.26-1.09a5.32,5.32,0,0,1-.14,1.42c-.16.61-.85-.32-.75.67a4.45,4.45,0,0,0,1,.34,2.16,2.16,0,0,0,1,.07c.56-.12,1.1-.15,1.41-.59l.07-1.92.2-1.84Z"/><path class="cls-33" d="M207.6,109.48a6.56,6.56,0,0,1,1.79,2c1.1,2.64.7,6.45,1.11,10.22l-.62,10.29c-.83.4-2.7.49-3.35-.08l.25-10.3-1.5-5.94C204.87,111.79,206.44,109,207.6,109.48Z"/><path class="cls-12" d="M149.38,224.6a8.68,8.68,0,0,1,2.67-10.2c5.46-4.66,14-7.4,21.15-5.64,7.59,1.87,11.75,8.29,3,15.94C170.8,229.35,150.32,226.88,149.38,224.6Z"/><path class="cls-11" d="M148.81,221.17c-.46,1.91,1.22,5.37,3.54,7.54,5.35,5,21.25,7.45,29.19-.57,6.43-6.5,2.44-23.44-5.71-27.7-2.61-1.36-4.4,1.21-5.61,3.26-1.71,2.89-4.13,7.47-6.61,9.7-1.59,1.44-3.94,2.18-8,1.93C152.23,215.13,150.06,215.94,148.81,221.17Z"/><path class="cls-12" d="M114.64,242.8a8.68,8.68,0,0,1,2.67-10.2c5.46-4.67,14.05-7.4,21.15-5.65,7.59,1.88,11.75,8.3,2.95,15.94C136.06,247.55,115.58,245.07,114.64,242.8Z"/><path class="cls-11" d="M114.07,239.37c-.46,1.91,1.22,5.36,3.54,7.54,5.35,5,21.25,7.45,29.19-.57,6.43-6.5,2.44-23.44-5.71-27.7-2.61-1.36-4.4,1.21-5.61,3.26-1.71,2.89-4.13,7.47-6.61,9.7-1.59,1.43-3.94,2.17-8,1.93C117.5,233.33,115.32,234.14,114.07,239.37Z"/><path class="cls-34" d="M140,107.78l-1.5,8.09a3.4,3.4,0,0,1-1.74,2,9.47,9.47,0,0,1-8.61,0,3.13,3.13,0,0,1-1.75-2.27l-1.45-7.8C125.13,112.76,140,110,140,107.78Z"/><path class="cls-35" d="M127.18,104.72a11.74,11.74,0,0,1,10.64,0c2.93,1.7,2.91,4.46,0,6.16a11.72,11.72,0,0,1-10.65,0C124.21,109.18,124.23,106.42,127.18,104.72Z"/><path class="cls-36" d="M128.38,105.42a9,9,0,0,1,8.23,0c2.26,1.31,2.25,3.45,0,4.76a9,9,0,0,1-8.22,0C126.09,108.87,126.11,106.73,128.38,105.42Z"/><path class="cls-37" d="M131.71,86.88a0,0,0,0,1,0,0v0a0,0,0,0,1,0,0V87l0,0s0,0,0,0h0l0,0,0,0h0l0,0,0,0,.07,0h0l.06,0h.73l.09,0,0,0h0l.06,0a.39.39,0,0,0,.23-.31v20.85a.38.38,0,0,1-.23.31l-.05,0h0l0,0h0l-.09,0h-.48l-.08,0h-.17l-.06,0h0l-.07,0h0l0,0h0l0,0,0,0h0l0,0h0l0,0h0l0,0h0s0,0,0,0v0h0v0h0v0h0V86.88Z"/><path class="cls-38" d="M131.94,86.54a1.21,1.21,0,0,1,1.08,0c.3.18.3.46,0,.63a1.21,1.21,0,0,1-1.08,0C131.64,87,131.64,86.72,131.94,86.54Z"/><ellipse class="cls-39" cx="132.48" cy="85.85" rx="9.55" ry="8.69"/><path class="cls-40" d="M123,85a8.27,8.27,0,0,0,0,.86c0,4.8,4.28,8.69,9.55,8.69S142,90.65,142,85.85A8.27,8.27,0,0,0,142,85a12.59,12.59,0,0,1-19,0Z"/><path class="cls-34" d="M256,178l-1.83,9.88a4.13,4.13,0,0,1-2.12,2.47,11.61,11.61,0,0,1-10.52,0,3.83,3.83,0,0,1-2.14-2.77L237.62,178C237.83,184.06,256,180.66,256,178Z"/><path class="cls-35" d="M240.33,174.24a14.32,14.32,0,0,1,13,0c3.57,2.08,3.55,5.45-.05,7.52a14.34,14.34,0,0,1-13,0C236.71,179.69,236.73,176.32,240.33,174.24Z"/><path class="cls-36" d="M241.8,175.09a11.1,11.1,0,0,1,10,0c2.77,1.61,2.75,4.21,0,5.82a11.1,11.1,0,0,1-10,0C239,179.3,239,176.7,241.8,175.09Z"/><path class="cls-37" d="M245.87,152.45v.06s0,0,0,0a0,0,0,0,0,0,0v.05l0,0,0,0h0l0,0,0,0,0,0,0,0,0,0,.09,0h0l.07,0h.2l.1,0h.59l.1,0,.05,0h0l.07,0a.48.48,0,0,0,.27-.39v25.47a.45.45,0,0,1-.27.38l-.07,0h0l0,0h0l-.1,0h0l-.05,0h-.81l-.07,0h0l-.09,0h0l0,0,0,0,0,0,0,0h0l0,0h0l0,0h0s0,0,0,0h0s0,0,0,0h0V178h0a0,0,0,0,1,0,0v0h0V152.45Z"/><path class="cls-38" d="M246.14,152a1.48,1.48,0,0,1,1.33,0,.41.41,0,0,1,0,.77,1.48,1.48,0,0,1-1.33,0A.41.41,0,0,1,246.14,152Z"/><path class="cls-41" d="M246.81,140.58c-6.44,0-11.67,4.75-11.67,10.61s5.23,10.62,11.67,10.62,11.66-4.76,11.66-10.62S253.25,140.58,246.81,140.58Z"/><path class="cls-40" d="M235.2,150.15a8.94,8.94,0,0,0-.06,1c0,5.86,5.23,10.62,11.67,10.62s11.66-4.76,11.66-10.62a8.94,8.94,0,0,0-.06-1c-2.32,3.16-6.65,5.28-11.6,5.28S237.53,153.31,235.2,150.15Z"/><path class="cls-42" d="M130.43,135.91c.11,2.07-3.23,2.09-3.3.39-2.31-1.93-4.57-3.86-6.83-5.83l1.57-4C124.3,127.36,130.33,133.76,130.43,135.91Z"/><path class="cls-43" d="M129.08,165c.28,1.22,3.14,3.49,3.7,4.11a1.33,1.33,0,0,1-.39,1.71,3.71,3.71,0,0,1-2.29.23c-.87-.13-1.9-1.05-3-1.77s-2.57-1.22-2.57-1.88c.06-.9.31-1.58.49-2.88l1.66.45Z"/><path class="cls-44" d="M111.48,163.54s0,.05,0,.07h0l0,.06v0l.06.06.05,0,0,0,5.68,3.3V168l-5.69-3.3h0l0,0-.05,0h0l0,0h0v0h0l0-.05h0v-.07h0Z"/><path class="cls-11" d="M117.59,167.22h0a1,1,0,0,0,.25,0h0a1.15,1.15,0,0,0,.26,0h0a.92.92,0,0,0,.23-.09l6.59-3.8a.36.36,0,0,0,.21-.3v.91a.32.32,0,0,1-.21.3L118.4,168l-.11.05-.09,0h-.44l-.09,0h-.07l-.07,0a.69.69,0,0,1-.15-.07v-.91A.85.85,0,0,0,117.59,167.22Z"/><path class="cls-12" d="M111.7,163.24c-.29.16-.29.43,0,.59l5.68,3.3a1.14,1.14,0,0,0,1,0l6.59-3.8a.31.31,0,0,0,0-.59l-5.68-3.3a1.08,1.08,0,0,0-1,0Z"/><polygon class="cls-34" points="118.32 147.93 118.11 152.37 118.34 164.22 119.51 163.54 119.5 147.25 118.32 147.93"/><polygon class="cls-35" points="118.32 147.93 117.17 147.26 117.19 163.55 118.34 164.22 118.32 147.93"/><polygon class="cls-45" points="123.15 153.31 124.09 152.77 124.09 152.05 123.15 152.59 123.15 153.31"/><path class="cls-34" d="M112.43,144.73c0-.12,0-.23,0-.34l.94-.54a1.71,1.71,0,0,0,0,.39.15.15,0,0,0,0,.07,3,3,0,0,0,.09.38,0,0,0,0,0,0,0,2.86,2.86,0,0,0,.15.41h0a3,3,0,0,0,.21.4h0c.08.13.16.26.24.37l0,0a2.48,2.48,0,0,0,.25.3l.06.06a2.18,2.18,0,0,0,.22.21l.1.09a2.27,2.27,0,0,0,.32.22l-.93.55-.33-.23-.1-.09-.15-.13-.06-.07-.06-.06a.46.46,0,0,0-.07-.07l-.14-.18,0-.06,0,0,0-.06-.11-.15a1.09,1.09,0,0,1-.08-.15h0v0s0-.08-.07-.12l-.07-.14-.06-.14h0l-.06-.15a1.15,1.15,0,0,1-.06-.17l0-.08v0s0,0,0-.06a1.17,1.17,0,0,0,0-.2.5.5,0,0,0,0-.12.13.13,0,0,0,0-.06Z"/><polygon class="cls-34" points="112.41 144.39 113.34 143.85 113.37 134.12 112.44 134.67 112.41 144.39"/><polygon class="cls-46" points="112.44 134.67 113.37 134.12 112.75 133.76 111.81 134.31 112.44 134.67"/><polygon class="cls-46" points="115.08 146.84 124.09 152.05 123.15 152.59 114.14 147.38 115.08 146.84"/><path class="cls-35" d="M111.81,134.31l.63.36,0,9.72a3.84,3.84,0,0,0,1.73,3l9,5.2v.72l-9-5.2a5.17,5.17,0,0,1-2.35-4.08Z"/><path class="cls-44" d="M108.54,148.67a.5.5,0,0,0,0,.12h0a.47.47,0,0,0,.05.1v0l.09.1.08,0,.06.05,8.75,5.08v1.4l-8.74-5.08h0l0-.05-.08-.05h0l-.06-.07,0,0v0l0,0,0-.06h0a.08.08,0,0,1,0,0,.2.2,0,0,1,0-.07h0Z"/><path class="cls-11" d="M117.94,154.33l.06,0a2.33,2.33,0,0,0,.38,0h0a1.84,1.84,0,0,0,.41,0h0a1.29,1.29,0,0,0,.36-.14l10.14-5.85a.53.53,0,0,0,.32-.46v1.4a.55.55,0,0,1-.33.46l-10.13,5.85-.16.08-.14,0-.07,0h0l-.11,0h-.46l-.14,0H118l0,0-.1,0a1,1,0,0,1-.24-.11v-1.4A1.08,1.08,0,0,0,117.94,154.33Z"/><path class="cls-12" d="M108.87,148.22a.48.48,0,0,0,0,.9l8.75,5.08a1.72,1.72,0,0,0,1.56,0l10.14-5.85a.48.48,0,0,0,0-.91l-8.74-5.08a1.78,1.78,0,0,0-1.56,0Z"/><path class="cls-15" d="M106.77,136.83v7.07a.88.88,0,0,0,0,.17h0a.47.47,0,0,0,0,.14h0l0,.08s.07.09.12.11l-1.21-.7a.46.46,0,0,1-.12-.12h0s0,0,0-.06h0v0s0,0,0,0v-.06h0v-.17h0v-7.07Z"/><path class="cls-13" d="M107.25,135.72h0c0,.05-.09.1-.13.16h0a1,1,0,0,0-.11.17h0l-.09.18h0a1.59,1.59,0,0,0-.07.2h0a1.33,1.33,0,0,0,0,.19h0a1.28,1.28,0,0,0,0,.19l-1.21-.7v-.19h0v-.08a83316587919.89,83316587919.89,0,0,1,0-.08v0h0s0,0,0,0l0,0v0l0,0s0,0,0,0h0s0,0,0,0,0,0,0,0a.08.08,0,0,0,0-.05l0,0h0l.06-.1.05-.07h0l0-.05,0,0,0,0,0,0h0l0,0,0,0,0,0,0,0h0l0,0,0,0,0,0,0,0h0l10.13-5.85h0l0,0h0l0,0h.33l0,0,.06,0,1.21.7-.11,0H118l-.15,0h0l-.16.08-10.13,5.85a.76.76,0,0,0-.16.11h0A.86.86,0,0,0,107.25,135.72Z"/><path class="cls-14" d="M107.55,135.48l10.13-5.85c.44-.25.79,0,.79.45l0,7.06a1.72,1.72,0,0,1-.79,1.36l-10.13,5.85c-.43.25-.79.05-.79-.45v-7.07A1.74,1.74,0,0,1,107.55,135.48Z"/><path class="cls-47" d="M124.5,149.88l-.66,3.74.28,12.22c.48,1.71,4.6,2,5.22-1.06.13-5.47.18-11.13.18-16.18a14.79,14.79,0,0,0-5.58-4.36Z"/><path class="cls-47" d="M120,141.49a36.77,36.77,0,0,1,9.1,5.56,1.61,1.61,0,0,1,.35,1,2.59,2.59,0,0,1-3.33,2.95c-3.64-1.1-6.39-3.71-9.72-6.38Z"/><path class="cls-14" d="M116,143.71c2.71,1.06,8.15,4.68,9.55,6.8a2.19,2.19,0,0,1,.35,1,2.85,2.85,0,0,1-3.39,3.3,37.69,37.69,0,0,1-9.08-4.56c-1.12-.78-4.49-1.35-3.33-7.86Z"/><path class="cls-48" d="M125.14,167.66c.28,1.22,3.15,3.49,3.71,4.11a1.31,1.31,0,0,1-.4,1.7,3.61,3.61,0,0,1-2.28.24c-.87-.14-1.9-1.06-3.06-1.78s-2.57-1.21-2.57-1.87c.06-.9.31-1.59.5-2.88l1.66.45Z"/><path class="cls-14" d="M120.92,152.41l-.66,3.74.35,11c0,1.64,5.13,2.81,5.16.19.13-5.36.19-10.59.19-15.65-.93-1.62-4.76-4.81-5.6-4.93Z"/><path class="cls-49" d="M112.07,128.79c1.76-2.95,6.8-3.56,8.48-3.4a4,4,0,0,1,3.08,1.68c1.93,3.72-3.46,10-4,12.2a2.2,2.2,0,0,0,.43,1.5c-1.83,5.45-10.24,3.87-10,1.65.09-1.07.83-3.36,1.31-5.76C112,133.12,111,130.67,112.07,128.79Z"/><polygon class="cls-50" points="134.98 136.48 135.02 156.63 137.22 157.91 137.18 136.48 134.98 136.48"/><polygon class="cls-51" points="137.18 136.48 137.22 157.91 139.36 156.67 139.32 136.48 137.18 136.48"/><polygon class="cls-50" points="162.81 155.69 162.85 173.19 165.05 174.47 165.01 155.69 162.81 155.69"/><polygon class="cls-51" points="165.01 155.69 165.05 174.47 167.19 173.23 167.15 155.69 165.01 155.69"/><path class="cls-25" d="M157,168.22a2.17,2.17,0,0,1,0,.26c-.14,3.4.3,6.72.36,10.22-.27,2.5-.67,4.27-1.37,5a.68.68,0,0,1-.78.23c-.05,0-.08.05-.11.1l1.7,1.34,2.66-5.14c0-.26.23-.49.13-.72a1.87,1.87,0,0,1-.25-1.08c.69-3.93,1.4-6.81,1.29-9.38,0-1-.06-1.79-.07-2.45Z"/><path class="cls-14" d="M156.85,183.15a27,27,0,0,1,1.14-2.48c.17-.32.46-1.37,1.55-1.31a2.52,2.52,0,0,1,.59,2.65,19.68,19.68,0,0,0-.56,4l-.19.09-.14-.08a10,10,0,0,0-.21-3.43c-.68.47-.64,1.16-.77,2,0,.21,0,.31-.36.57a5,5,0,0,1-1.37.7,3.71,3.71,0,0,1-1-.49c-.46-.28-.86-.72-.74-1.07s.39-.37.41-.37c0,.23.66.54.82.41A3.37,3.37,0,0,0,156.85,183.15Z"/><path class="cls-24" d="M153.22,169.73a7.32,7.32,0,0,1,0,.85c-.15,3.39.3,6.71.35,10.21-.27,2.5-.67,4.27-1.37,5a.67.67,0,0,1-.78.23s-.08.05-.1.1l1.69,1.34,2.67-5.14c0-.26.22-.49.13-.72a1.78,1.78,0,0,1-.26-1.08c.69-3.92,1.4-6.81,1.3-9.38,0-1.17-.08-2.06-.08-2.78l-.15.07Z"/><path class="cls-15" d="M153.13,185.24a27.08,27.08,0,0,1,1.13-2.48c.17-.32.46-1.37,1.55-1.31a2.52,2.52,0,0,1,.59,2.65,19.68,19.68,0,0,0-.56,4l-.19.09-.14-.08a9.71,9.71,0,0,0-.21-3.43c-.68.48-.64,1.16-.76,2,0,.21,0,.31-.36.57a5.13,5.13,0,0,1-1.38.7,3.81,3.81,0,0,1-1-.49c-.47-.28-.87-.72-.75-1.07s.4-.37.41-.37c0,.23.66.54.83.41A3.51,3.51,0,0,0,153.13,185.24Z"/><path class="cls-15" d="M158.94,189.64a.24.24,0,0,0,0,.08h0l0,.07h0a.19.19,0,0,0,.06.07l.05,0,0,0,5.68,3.31v.91l-5.69-3.31h0l0,0-.05,0h0l0-.05h0v0l0,0h0s0,0,0,0v0h0Z"/><path class="cls-14" d="M165.05,193.32h0a1,1,0,0,0,.25,0h0a1.15,1.15,0,0,0,.26,0h0a.92.92,0,0,0,.23-.09l6.59-3.81a.36.36,0,0,0,.21-.29v.91a.37.37,0,0,1-.22.29l-6.59,3.81-.1,0-.09,0h-.07l-.07,0H165l-.15-.07v-.91Z"/><path class="cls-13" d="M159.15,189.34c-.28.17-.28.43,0,.59l5.68,3.31a1.14,1.14,0,0,0,1,0l6.59-3.81a.31.31,0,0,0,0-.59l-5.68-3.3a1.14,1.14,0,0,0-1,0Z"/><polygon class="cls-34" points="165.78 174.03 165.57 178.47 165.79 190.32 166.97 189.64 166.95 173.36 165.78 174.03"/><polygon class="cls-35" points="165.78 174.03 164.63 173.37 164.65 189.65 165.79 190.32 165.78 174.03"/><path class="cls-34" d="M160.43,173.29l9.66,5.58a1.81,1.81,0,0,0,.35.16l.06,0a1.25,1.25,0,0,0,.31.07h0a1.45,1.45,0,0,0,.3,0h0a1,1,0,0,0,.27-.1h0l-1,.58h0l-.09,0-.1,0h-.1l-.12,0h-.26l-.16,0-.07,0-.07,0-.08,0a1.26,1.26,0,0,1-.26-.13l-9.67-5.58Z"/><path class="cls-35" d="M159.42,173.87l9.67,5.58c1,.6,1.86.12,1.87-1.06L171,168l.67.39,0,10.43c0,1.6-1.15,2.25-2.54,1.45l-9.67-5.59Z"/><path class="cls-15" d="M155.25,174.29a.52.52,0,0,0,0,.11h0a.33.33,0,0,0,.06.1v0a.28.28,0,0,0,.09.1l.07.06a.18.18,0,0,1,.07.05l8.74,5.08.18.59-.17.81-8.74-5.08h0l-.05,0-.08-.06h0l-.06-.07,0,0v0l0,0,0-.06h0s0,0,0,0v-.07h0Z"/><path class="cls-14" d="M164.65,180h.06a1.58,1.58,0,0,0,.38,0h0a1.7,1.7,0,0,0,.4,0h0a1.4,1.4,0,0,0,.36-.13L176,174a.55.55,0,0,0,.32-.45v1.4a.55.55,0,0,1-.33.45l-10.14,5.86-.16.07-.13.05h-.22l-.11,0h-.35l-.14,0h-.11l-.1,0a1.33,1.33,0,0,1-.24-.1v-1.4A1.71,1.71,0,0,0,164.65,180Z"/><path class="cls-13" d="M155.58,173.83a.48.48,0,0,0,0,.91l8.74,5.08a1.77,1.77,0,0,0,1.57,0L176,174a.48.48,0,0,0,0-.9L167.28,168a1.74,1.74,0,0,0-1.57,0Z"/><path class="cls-52" d="M170.5,167.36l2.11.47a6,6,0,0,1,.66,4c-.57,2.35-3.91,4.49-6.15,4.84-4.19.64-10.76-4.54-14.05-6.23-.19-2.84.15-3.49,1.34-4.21,2.11-1.29,3.75-1.66,5.74-.91,2.5.93,4.71,1.36,6.66,2.32Z"/><path class="cls-15" d="M87,179.13a.22.22,0,0,0,0,.08h0a.16.16,0,0,0,0,.07h0l.06.07,0,0,0,0,5.69,3.31v.91l-5.68-3.31h0l0,0,0,0h0s0,0-.05,0h0v0l0,0h0v-.07h0Z"/><path class="cls-14" d="M93.12,182.81h0a1.07,1.07,0,0,0,.25,0h0a1.09,1.09,0,0,0,.26,0h0a.85.85,0,0,0,.24-.09l6.59-3.81a.36.36,0,0,0,.21-.29v.91a.36.36,0,0,1-.21.29l-6.59,3.81-.11.05-.08,0h-.08l-.07,0h-.52l-.16-.07v-.91Z"/><path class="cls-13" d="M87.22,178.84a.31.31,0,0,0,0,.58l5.69,3.31a1.14,1.14,0,0,0,1,0l6.59-3.81a.31.31,0,0,0,0-.59L94.83,175a1.14,1.14,0,0,0-1,0Z"/><polygon class="cls-34" points="93.85 163.52 93.64 167.96 93.86 179.81 95.03 179.13 95.02 162.85 93.85 163.52"/><polygon class="cls-35" points="93.85 163.52 92.7 162.85 92.71 179.14 93.86 179.81 93.85 163.52"/><polygon class="cls-45" points="98.68 168.91 99.61 168.36 99.61 167.64 98.68 168.19 98.68 168.91"/><path class="cls-34" d="M88,160.32a1.84,1.84,0,0,1,0-.33l.94-.55a2.69,2.69,0,0,0,0,.4s0,0,0,.06a2.62,2.62,0,0,0,.09.38s0,0,0,0a4.14,4.14,0,0,0,.15.41h0c.07.14.13.28.21.41h0a2.92,2.92,0,0,0,.24.37l0,0a3.88,3.88,0,0,0,.26.31l0,.06.22.2.1.09a3.29,3.29,0,0,0,.33.23l-.94.54a2.27,2.27,0,0,1-.32-.22l-.1-.09s-.11-.09-.15-.14l-.07-.07L89,162.4l-.06-.07a1.15,1.15,0,0,1-.14-.17l-.05-.06,0,0,0-.06-.1-.15-.09-.14v0h0a.75.75,0,0,1-.07-.12l-.08-.15-.06-.13h0l-.06-.16-.06-.16a.24.24,0,0,1,0-.08s0,0,0,0,0,0,0-.06a1.17,1.17,0,0,1,0-.2.43.43,0,0,1,0-.11.17.17,0,0,1,0-.07A.13.13,0,0,1,88,160.32Z"/><polygon class="cls-34" points="87.94 159.99 88.87 159.44 88.9 149.72 87.96 150.26 87.94 159.99"/><polygon class="cls-46" points="87.96 150.26 88.9 149.72 88.27 149.36 87.34 149.9 87.96 150.26"/><polygon class="cls-46" points="90.6 162.44 99.61 167.64 98.68 168.19 89.66 162.98 90.6 162.44"/><path class="cls-35" d="M87.34,149.9l.62.36,0,9.73a3.83,3.83,0,0,0,1.73,3l9,5.21v.72l-9-5.21a5.18,5.18,0,0,1-2.35-4.07Z"/><path class="cls-44" d="M84.07,164.27a.22.22,0,0,0,0,.11h0a.54.54,0,0,0,0,.11s0,0,0,0l.09.09.08.06.07.05,8.74,5.08v1.4l-8.74-5.08h0l-.06,0-.07-.06h0l-.07-.08h0v0l0,0a.09.09,0,0,1,0-.07h0v0a.13.13,0,0,1,0-.06h0Z"/><path class="cls-11" d="M93.47,169.93h0a2.32,2.32,0,0,0,.38.05h0a2.73,2.73,0,0,0,.4-.05h0a1.35,1.35,0,0,0,.37-.14L104.83,164a.56.56,0,0,0,.33-.46v1.4a.57.57,0,0,1-.32.46L94.7,171.2l-.16.08-.13,0-.07,0h0l-.11,0h-.45l-.15,0-.06,0h0l-.1,0a1.22,1.22,0,0,1-.24-.1v-1.4A1.15,1.15,0,0,0,93.47,169.93Z"/><path class="cls-12" d="M84.39,163.81a.48.48,0,0,0,0,.91l8.74,5.08a1.74,1.74,0,0,0,1.57,0L104.83,164a.48.48,0,0,0,0-.91L96.09,158a1.72,1.72,0,0,0-1.56,0Z"/><path class="cls-15" d="M82.29,152.43l0,7.07a.81.81,0,0,0,0,.16h0a.58.58,0,0,0,.05.14h0a.43.43,0,0,0,0,.07.49.49,0,0,0,.13.12l-1.21-.7a.34.34,0,0,1-.12-.12l0,0,0,0h0l0-.05s0,0,0,0,0,0,0,0h0v-.16h0l0-7.06Z"/><path class="cls-13" d="M82.77,151.32h0a1,1,0,0,0-.13.16h0l-.11.18h0a1.74,1.74,0,0,0-.1.19h0l-.07.19h0a1.42,1.42,0,0,0,0,.2h0a1.23,1.23,0,0,0,0,.19l-1.21-.7v-.08s0,0,0,0v0s0,0,0,0h0v0s0,0,0,0v-.12h0l0,0v0l0,0v-.06h0s0,0,0,0l0,0,0-.05,0,0h0l.06-.09a.43.43,0,0,1,0-.07h0l0-.05,0,0,0,0,0,0h0l0,0,0,0,0,0,0,0h0l0,0,0,0,0,0,0,0h0L92,144.52h0l0,0,0,0h.35l0,0,.06,0,1.22.71-.12,0h-.14l-.14,0h0l-.15.07-10.14,5.85-.15.11h0Z"/><path class="cls-14" d="M83.07,151.07l10.14-5.85c.43-.25.78,0,.78.45l0,7.07a1.77,1.77,0,0,1-.78,1.36L83.09,160c-.43.25-.78,0-.78-.45l0-7.07A1.74,1.74,0,0,1,83.07,151.07Z"/><path class="cls-53" d="M91.22,133.27c2.09,2.87.68,8.26,2.37,10.58-8.36,2-7.63-11-6.5-11.7A3.93,3.93,0,0,1,91.22,133.27Z"/><path class="cls-31" d="M86.92,143.78c-1.59.92-2.91,1.84-3,3,0,.51.74,1,.88,1.69a17.75,17.75,0,0,0,1.64,4.32c1,1.91,1.32,3.11.73,5.06-2.29,7.65,7,12.47,8.5,6.93.46-1.63.2-3.94-1.34-7.44a5.08,5.08,0,0,1-.21-2.69,23.33,23.33,0,0,1,.75-2.79,4.47,4.47,0,0,0,.59-2.88,15.07,15.07,0,0,0-1.68-3.86,8,8,0,0,0-1.11-1.95.91.91,0,0,0-.16-.11.42.42,0,0,0-.18-.22C90.67,141.93,88.12,143.09,86.92,143.78Z"/><path class="cls-54" d="M91.8,156.47a1.83,1.83,0,0,1,0-.33l.93-.55a2.8,2.8,0,0,0,0,.4.13.13,0,0,1,0,.06c0,.13,0,.25.09.38v0l.15.41h0c.06.14.13.28.2.41h0a2.92,2.92,0,0,0,.24.37l0,0a2.42,2.42,0,0,0,.25.31l.06.06.21.2.11.09a2.35,2.35,0,0,0,.32.23l-.93.54a2.19,2.19,0,0,1-.33-.23.41.41,0,0,1-.1-.09l-.15-.13-.07-.07-.06-.06-.06-.07a1.15,1.15,0,0,1-.14-.17l0-.06s0,0,0,0l0-.06-.1-.15-.09-.15h0a.75.75,0,0,1-.07-.12l-.08-.15-.06-.13h0l-.07-.16-.06-.16s0-.06,0-.08a.06.06,0,0,1,0,0,.14.14,0,0,1,0-.06c0-.06,0-.13,0-.2s0-.08,0-.12,0,0,0-.06Z"/><path class="cls-25" d="M87.13,139.51a6.22,6.22,0,0,1,.42,4l3.35,1.37.31-1a7.57,7.57,0,0,1-.48-3.64Z"/><path class="cls-24" d="M90.7,133.27c1.37,2,.78,3.39,1,5a4.23,4.23,0,0,1-.33,2.08c-.28.72-.61,1.07-1,1.2-.81.25-4.19-1.19-4.45-2.29l-1-4.27Z"/><path class="cls-25" d="M105.41,166.72c.55,3.66.45,7.3.8,11.1l-1.49,1.78c-1.4-5.63-3-8.61-3.18-11.9-.12-1.91-.23-3.14-.36-4.08C100.85,160.34,105,164,105.41,166.72Z"/><path class="cls-24" d="M101.75,164.76c.24,1.73-.11,2.64.09,3.93.55,3.65.45,7.3.8,11.09l-1.5,1.78c-1.39-5.63-3-8.61-3.17-11.9-.11-1.73-.21-2.91-.33-3.81C96.62,157.68,101.38,161.13,101.75,164.76Z"/><path class="cls-55" d="M86.59,161.82a6.16,6.16,0,0,0,1.79,4.37c2.15,1.72,6.22,1.23,9.43,3.48a.27.27,0,0,0,.1.08l0,0,0,0h0c.8.29,3.4,0,5.45-1.21s2.74-2.71,2.38-3.22a4.36,4.36,0,0,0-1.66-2.4c-1.65-1-7.81-4.61-9.36-4.78a4.88,4.88,0,0,1-.38-.64l0,0c-.76-1.73,0-3.82.43-5.5a5.12,5.12,0,0,0,.66-3A15.62,15.62,0,0,0,94,145.12a9.58,9.58,0,0,0-1.5-2.15,1.71,1.71,0,0,0-1-.41c.6.57,2.18,5.39,1.57,7.35-.56-2-4.63-5.15-6.31-5.92a8.79,8.79,0,0,0-1.79,1.16c2.38-.34,3.55,2.49,3.4,5.64-.07,1.35-.65,2.25-1.78,2.31a7.21,7.21,0,0,1,.86,3.25c-.26,1.55-1,3-.82,5.44Z"/><path class="cls-33" d="M87.42,143c1.22.73,2.35,1,3.53,1.83l0,1.57A25,25,0,0,0,87.22,144Z"/><path class="cls-53" d="M87.1,138.69c-.07-.94-.59-1-.81-1s-.4.45-.29.87a4.29,4.29,0,0,0,.49,1.3c.19.25.31-.09.49,0,1,1.34,1,4,1.54,4.81-5.31.15-6-7.28-4.25-10.82,1.21-2.38,6-2.73,6.9-.22S87.84,136.72,87.1,138.69Z"/><path class="cls-33" d="M90.84,142.53a9,9,0,0,1,.08,2.29c.41.25.81.62,1.23.85a19.9,19.9,0,0,0-.54-2.89Z"/><path class="cls-24" d="M102.34,177.82a44.05,44.05,0,0,0,1.64,6.36,9.59,9.59,0,0,0,1,1.62s-1.08.62-1.22.65-2.08-.28-2.08-.28-1.2-3-1.22-3.18c-.22-2-1.29-1.7-.29-3.37a3.76,3.76,0,0,0,.09-2.46Z"/><path class="cls-15" d="M104.47,185.07c.41.74.83.87.84,1.31s-1.14.74-1.53.77a3.64,3.64,0,0,1-2.2-.86,31.67,31.67,0,0,0-1.24-3.37l.32,3h-.27a26,26,0,0,0-.8-3.16c-.11-.35-.32-.68-.36-.88-.19-.86.4-1.51.83-2.2.5,1.57,1.22,5.19,2.88,5.77A1.63,1.63,0,0,0,104.47,185.07Z"/><path class="cls-25" d="M105.81,175.69a43.7,43.7,0,0,0,1.65,6.36,9.7,9.7,0,0,0,1,1.63s-1.07.61-1.21.65-2.08-.28-2.08-.28-1.21-3-1.23-3.19c-.21-2-1.29-1.7-.29-3.36a3.79,3.79,0,0,0,.09-2.47Z"/><path class="cls-56" d="M107.94,182.94c.42.74.83.88.85,1.31,0,.58-1.14.75-1.54.77a3.54,3.54,0,0,1-2.19-.85,34.2,34.2,0,0,0-1.24-3.38l.32,3h-.27a25.37,25.37,0,0,0-.8-3.15c-.12-.36-.32-.69-.37-.89-.19-.85.41-1.5.83-2.19.51,1.56,1.23,5.19,2.89,5.77A1.61,1.61,0,0,0,107.94,182.94Z"/><path class="cls-28" d="M92,142.67c1.31.06,4.49,3.79,6.15,5.56,1.07,1.15,2.24,2.52,1.83,3.08-1.36,1.82-3.42-.21-4.41-1.07a4.11,4.11,0,0,0,0-1.25A15.62,15.62,0,0,0,94,145.12a9.58,9.58,0,0,0-1.5-2.15A1.23,1.23,0,0,0,92,142.67Z"/><path class="cls-34" d="M133.3,198l2,1.52c0,1.83,0,2.73-.73,3.2-.86.58-2.32.12-3.2-.29l-.24-.71c-.85-.11-.66.14-1.57-.37-1.54-.85-3.79-2.16-4.09-3.69-.08-.39.22-1.09.61-1l4.45.77Z"/><path class="cls-57" d="M136.16,186.15l-.73,14h0a.26.26,0,0,1-.13.27c-.47.28-2-.18-3.47-1a7.48,7.48,0,0,1-1.42-1l-.53-.36-.8-15.41Z"/><path class="cls-58" d="M135.11,201.94a1.39,1.39,0,0,1-.51.77c-.84.61-2.34.13-3.26-.28l-.24-.69a3.25,3.25,0,0,1-2.1-.57c-1.49-.77-3.29-1.85-3.62-3.2a1.15,1.15,0,0,1,.28-.93.91.91,0,0,0,0,.4c.33,1.34,2.13,2.43,3.62,3.2a3.24,3.24,0,0,0,2.1.56l.27.7c.89.37,2.39.88,3.23.26A1.7,1.7,0,0,0,135.11,201.94Z"/><path class="cls-35" d="M128.48,200.76l2.05,1.43c.05,1.83.1,2.73-.59,3.24-.84.61-2.32.21-3.21-.16l-.27-.7a3.24,3.24,0,0,1-2.1-.56c-1.49-.77-3.29-1.86-3.62-3.2-.09-.39.18-1.1.57-1.05l4.37.53Z"/><path class="cls-59" d="M131.41,185.38c-.09,1.26-.16,2.52-.2,3.79L130.79,203h0a.28.28,0,0,1-.14.2c-.46.27-2-.19-3.46-1s-2.17-1.66-1.82-2l-.08-15.07C125.2,182,131.36,182.62,131.41,185.38Z"/><path class="cls-15" d="M131.22,206.1a.19.19,0,0,0,0,.07h0l0,.06v0a.17.17,0,0,0,.06.06l0,0,0,0,5.68,3.3v.91l-5.69-3.3h0l0,0,0,0h0l0,0h0v0l0,0h0V207h0Z"/><path class="cls-14" d="M137.33,209.78h0a1,1,0,0,0,.25,0h0a1.18,1.18,0,0,0,.27,0h0a.92.92,0,0,0,.23-.09l6.59-3.8a.36.36,0,0,0,.21-.3v.91c0,.11-.08.21-.22.3l-6.59,3.8-.1.05-.09,0h-.44l-.09,0h-.07l-.07,0a.69.69,0,0,1-.15-.07v-.91A.85.85,0,0,0,137.33,209.78Z"/><path class="cls-13" d="M131.43,205.8a.31.31,0,0,0,0,.59l5.68,3.3a1.14,1.14,0,0,0,1,0l6.59-3.8a.31.31,0,0,0,0-.59L139,202a1.14,1.14,0,0,0-1,0Z"/><polygon class="cls-34" points="138.06 190.49 137.85 194.93 138.07 206.78 139.25 206.1 139.23 189.81 138.06 190.49"/><polygon class="cls-35" points="138.06 190.49 136.91 189.82 136.92 206.11 138.07 206.78 138.06 190.49"/><path class="cls-34" d="M132.7,189.74l9.67,5.59a2.63,2.63,0,0,0,.35.15l.06,0,.31.06h0a1.42,1.42,0,0,0,.3,0h0a1,1,0,0,0,.27-.11h0l-1,.59h0l-.09.05-.1,0-.07,0H142l-.16,0-.07,0-.07,0-.08,0-.26-.13-9.67-5.58Z"/><path class="cls-35" d="M131.7,190.33l9.67,5.58c1,.59,1.86.11,1.87-1.07l0-10.42.67.38,0,10.43c0,1.61-1.15,2.25-2.54,1.45l-9.67-5.58Z"/><path class="cls-15" d="M127.53,190.74a.36.36,0,0,0,0,.11h0a.6.6,0,0,0,.06.11v0l.09.09.07.06.07.05,8.74,5.08.18.6-.17.8-8.74-5.08h0l0,0-.08-.06h0l-.06-.08h0v0l0,0,0-.07h0v0s0,0,0,0a.13.13,0,0,0,0-.06h0Z"/><path class="cls-14" d="M136.93,196.4H137a1.58,1.58,0,0,0,.38.05h0a1.68,1.68,0,0,0,.4-.05h0a1.42,1.42,0,0,0,.36-.14l10.14-5.85a.57.57,0,0,0,.32-.46v1.4a.56.56,0,0,1-.33.46l-10.14,5.85-.16.08-.13,0-.07,0h-.05l-.1,0h-.46l-.14,0-.06,0h-.05l-.1,0a1.33,1.33,0,0,1-.24-.11v-1.4A1.26,1.26,0,0,0,136.93,196.4Z"/><path class="cls-13" d="M127.86,190.28a.48.48,0,0,0,0,.91l8.74,5.08a1.74,1.74,0,0,0,1.57,0l10.14-5.85a.48.48,0,0,0,0-.91l-8.74-5.08a1.74,1.74,0,0,0-1.57,0Z"/><path class="cls-57" d="M139.53,192.07c-2.67-.61-4.73-3.44-7.84-5.66l-2.75-1.4c-.18-2.85,0-3.77,1.35-4.22,2.48-.86,6.74,1.37,10,3Z"/><path class="cls-59" d="M144.51,184.54l1.72.94c.62,2.8.27,4.8-1,6.15a10.48,10.48,0,0,1-9.33,2.58c-2.67-.61-4.72-3.44-7.84-5.65l-2.74-1.41c-.19-2.85,0-3.76,1.34-4.22,2.48-.85,6.74,1.38,10,3Z"/><path class="cls-58" d="M130.44,204.67a1.35,1.35,0,0,1-.5.76c-.84.61-2.32.21-3.21-.16l-.27-.7a3.24,3.24,0,0,1-2.1-.56c-1.49-.77-3.29-1.86-3.62-3.2a1.13,1.13,0,0,1,.28-.94.91.91,0,0,0,0,.4c.32,1.35,2.13,2.43,3.62,3.2a3.25,3.25,0,0,0,2.1.57l.26.7c.9.36,2.38.77,3.21.15A1,1,0,0,0,130.44,204.67Z"/><polygon class="cls-60" points="80.03 170.63 80.08 190.77 82.27 192.04 82.23 170.63 80.03 170.63"/><polygon class="cls-61" points="82.23 170.63 82.27 192.04 84.41 190.81 84.37 170.63 82.23 170.63"/><polygon class="cls-60" points="113 182.61 110.81 181.33 110.86 208.46 113.06 209.73 113 182.61"/><polygon class="cls-61" points="113 182.61 113.06 209.73 115.19 208.5 115.14 181.37 113 182.61"/><path class="cls-62" d="M75.86,166.76v3.62l38.48,22.36v-3.62Z"/><path class="cls-63" d="M138,131.05,75.86,166.76l38.48,22.36,62.11-35.71Z"/><polygon class="cls-60" points="114.34 189.12 114.35 192.75 176.46 157.03 176.45 153.41 114.34 189.12"/><path class="cls-64" d="M160.7,159.1a.59.59,0,0,0-.26.46c0,.17.11.22.27.15a.36.36,0,0,0,.26-.46C160.93,159.08,160.85,159,160.7,159.1Z"/><path class="cls-25" d="M120.48,123.93c-.58,1.4-1.28,1.78-2,3-.34,1.25,1.41,3.21,2.81,2.6.67-.82,1.51-1.52,2.13-2.22Z"/><path class="cls-24" d="M127,124.28a5,5,0,0,1-.9,2.88,9.79,9.79,0,0,1-2,2,2,2,0,0,1-1.12,0c-.59-.17-1.72-1.73-2-2.18-.61-1.06-.93-1.37-.58-2.35l.12-1.18.82-3.37c2.12-.33,4-.5,4.88,0S127.44,121.77,127,124.28Z"/><path class="cls-65" d="M121.88,118.8c-3,.35-2.19,4.67-1.84,6,.21-.08.43.05.48-.2.11-.54.47-1,.79-1s.62.46.5,1.55a8,8,0,0,0,1.45-1.55s4,1.16,5.1-1c-.56-.46-1-3-2.17-3.67A4.59,4.59,0,0,0,121.88,118.8Z"/><path class="cls-66" d="M166,153.34c-2.82,1.63-4.36,3.38-3.45,3.91s3.94-.36,6.76-2,4.36-3.38,3.45-3.91S168.77,151.72,166,153.34Z"/><path class="cls-66" d="M172.33,155.78c.13-2.33-.12-4.47-1.75-4.17s-4.93,2.75-6.76,3.7l2.68.87Z"/><path class="cls-67" d="M172.4,151.61c1.26,1.18.09,8.59,0,10.31-.78,1.24-2.08.78-2.74-.06l-.41-4.39C169.4,154.64,171.61,151.25,172.4,151.61Z"/><path class="cls-25" d="M165.71,150.79a6.29,6.29,0,0,1,0,4,7.36,7.36,0,0,0,3.71-2.08c.05-.43.15-.87.25-1.34Z"/><path class="cls-66" d="M164.38,155c-4.88,2.27-1,5.84-.31,11.27a14.75,14.75,0,0,1-.69,3.15c-.26,1.48,2.09,1.91,3.57,1.81,2.89-.2,6.1-1.9,5.67-4.33a5.35,5.35,0,0,1-1.19-4.26c.22-1.93.59-2.49.85-4.2.18-1.19.89-5.89-1.24-5.8A47.72,47.72,0,0,0,164.38,155Z"/><path class="cls-24" d="M165.05,144.83c-.4.75-.93.86-1,1.85,0,.78-.06,5,1.35,6,.5.32,1.78-.41,2.56-1.08.54-.46.33-1.31.57-1.61l-1.19-4.86Z"/><path class="cls-68" d="M170.79,143.9c1.88,1.36,1.93,3.79.86,5.71-.53.93-.65,1.21-1.47,1.62a3.31,3.31,0,0,1-1.59.58c-.76,0-1.55-3.25-2.32-3.34-.32,0-.6.36-.52,1.6A9.29,9.29,0,0,0,164,147.5C162.72,143.65,168.92,141.47,170.79,143.9Z"/><path class="cls-69" d="M175.68,153.83c-2,1.22-3.19,2-4.21.93-2-2-2.48-7.54-1.14-10.11.2-.37.14-.49,0-.41-.33,0-1.31-1-1-1.26,4-2.56,5.69,0,5.6,2.46C174.77,151.25,173,152.88,175.68,153.83Z"/><path class="cls-13" d="M169.6,142.81c-.35.13-.64.19-.72.43a1.64,1.64,0,0,0,.52,1.42c.24.19.85-.17,1.08-.44A1.49,1.49,0,0,1,169.6,142.81Z"/><path class="cls-25" d="M167.09,153.23c-.94.54-1.45,1.12-1.14,1.3a2.63,2.63,0,0,0,2.43-.21c.94-.54,1.25-1.57,1-1.75A3.47,3.47,0,0,0,167.09,153.23Z"/><path class="cls-15" d="M165.9,166.65v7.07a1,1,0,0,0,0,.17h0a.57.57,0,0,0,0,.14h0l.05.07a.46.46,0,0,0,.12.12l-1.21-.7a.46.46,0,0,1-.12-.12s0,0,0,0l0-.06h0s0,0,0,0l0,0v-.05h0V173h0V166Z"/><path class="cls-13" d="M166.38,165.54h0l-.13.16h0a1.74,1.74,0,0,0-.11.18h0l-.09.18h0a1.46,1.46,0,0,0-.07.19h0a1.05,1.05,0,0,0-.05.19h0a1.21,1.21,0,0,0,0,.19l-1.21-.7v-.19h0s0,0,0,0a.06.06,0,0,1,0,0s0,0,0,0,0,0,0,0v0h0s0,0,0,0l0,0v0l0,0a0,0,0,0,1,0,0h0s0,0,0,0,0,0,0,0l0-.05,0,0h0l.06-.09L165,165h0l0-.05,0,0,0,0,0,0h0l0,0,0,0,0,0,0,0,0,0h0l0,0a.05.05,0,0,1,0,0l0,0,0,0h0l10.13-5.85h0l0,0h0l0,0H176l.06,0s0,0,.06,0l1.21.7a.21.21,0,0,0-.12,0h0a.28.28,0,0,0-.13,0h0a.4.4,0,0,0-.15,0h0l-.16.07-10.13,5.85-.16.11h0A.86.86,0,0,0,166.38,165.54Z"/><path class="cls-14" d="M166.68,165.29l10.13-5.85c.44-.25.79,0,.79.45l0,7.07a1.72,1.72,0,0,1-.79,1.36l-10.13,5.85c-.43.25-.79,0-.79-.45v-7.07A1.69,1.69,0,0,1,166.68,165.29Z"/><path class="cls-34" d="M171.66,178.78l0-10.43,1-.58,0,10.43a2.16,2.16,0,0,1-.31,1.2,1.32,1.32,0,0,1-.43.42l-1,.58A1.79,1.79,0,0,0,171.66,178.78Z"/><polygon class="cls-34" points="171.69 168.35 172.69 167.77 172.02 167.38 171.01 167.96 171.69 168.35"/><path class="cls-35" d="M169.12,179.45c1,.6,1.86.12,1.86-1.06L171,168l.68.39,0,10.43c0,1.6-1.15,2.25-2.55,1.45Z"/><path class="cls-66" d="M161.58,157.31c1.57-3.49,5.85-2.39,4.09,1.36-.87,1.86-2.64,4.7-3.72,6.63-1,1.76-2,1.79-2.65,1.34s-.91-1.43,0-3.33C160.31,161.21,160.62,159.44,161.58,157.31Z"/><polygon class="cls-64" points="112.05 170.59 121.76 176.23 132.32 170.13 122.62 164.49 112.05 170.59"/><polygon class="cls-70" points="122.71 165.74 114.32 170.58 114.71 170.8 123.09 165.96 122.71 165.74"/><polygon class="cls-70" points="123.75 166.34 115.37 171.18 115.75 171.41 124.14 166.57 123.75 166.34"/><polygon class="cls-70" points="124.91 167.01 116.52 171.85 116.91 172.08 125.3 167.24 124.91 167.01"/><polygon class="cls-70" points="126.19 167.76 117.81 172.6 118.2 172.83 126.58 167.99 126.19 167.76"/><polygon class="cls-64" points="142.47 156.22 152.18 161.87 162.74 155.77 153.03 150.13 142.47 156.22"/><polygon class="cls-70" points="153.12 151.37 144.74 156.21 145.12 156.44 153.51 151.6 153.12 151.37"/><polygon class="cls-70" points="154.17 151.98 145.78 156.82 146.17 157.04 154.55 152.21 154.17 151.98"/><polygon class="cls-70" points="155.32 152.65 146.94 157.49 147.32 157.72 155.71 152.88 155.32 152.65"/><polygon class="cls-70" points="156.61 153.4 148.23 158.24 148.61 158.47 157 153.63 156.61 153.4"/><polygon class="cls-64" points="117.83 144.4 127.53 150.04 138.09 143.94 128.39 138.3 117.83 144.4"/><polygon class="cls-70" points="131.93 141.38 123.54 146.22 123.93 146.44 132.32 141.6 131.93 141.38"/><polygon class="cls-70" points="132.97 141.98 124.59 146.82 124.98 147.05 133.36 142.21 132.97 141.98"/><polygon class="cls-70" points="134.13 142.65 125.75 147.5 126.13 147.72 134.52 142.88 134.13 142.65"/><polygon class="cls-70" points="135.42 143.4 127.03 148.24 127.42 148.47 135.81 143.63 135.42 143.4"/><polygon class="cls-64" points="91.07 160.31 100.78 165.95 111.34 159.85 101.64 154.21 91.07 160.31"/><polygon class="cls-70" points="105.17 157.29 96.79 162.13 97.18 162.35 105.56 157.51 105.17 157.29"/><polygon class="cls-70" points="106.22 157.9 97.83 162.73 98.22 162.96 106.61 158.12 106.22 157.9"/><polygon class="cls-70" points="107.38 158.57 98.99 163.41 99.38 163.63 107.76 158.79 107.38 158.57"/><polygon class="cls-70" points="108.67 159.31 100.28 164.16 100.67 164.38 109.05 159.54 108.67 159.31"/><path class="cls-28" d="M95.35,155.65a4.8,4.8,0,0,0-1.43-1.37c1.36-1.62,4.53-5.87,6-3.62C101,152.32,96.58,154.79,95.35,155.65Z"/><path class="cls-24" d="M95.06,154.34c.36.36.71,1,.32,1.44-.62.76-2.11,1.17-3,1.47l-.64-.69C92.18,155.52,93.41,152.67,95.06,154.34Z"/><path class="cls-33" d="M86.54,146c1.67,1.84,2.12,7.45,2.49,10.13l-1.8,1c0-.13-.51-.28-.56-.41-1-2.61-2.51-6.43-2.82-8.93-.13-1,.27-2,1-2.21A1.87,1.87,0,0,1,86.54,146Z"/><path class="cls-24" d="M95.08,157.38l1,0c1.12-.13,1.48,0,2,.46a14.29,14.29,0,0,1,2,2.08l-.83.89c-.65-.31-1.21-.93-1.82-1.3s-1.47.31-1.88,0l-1.51-1Z"/><path class="cls-33" d="M88.49,154.93c2.3.51,4.47,1.64,6.76,2.36a6.83,6.83,0,0,0-.45,1.82c-2.31-.6-4.43-1.05-6.76-1.51-1.21-.24-1.54-1-1.46-1.6S87.3,154.67,88.49,154.93Z"/><path class="cls-25" d="M154.37,160.55a6.17,6.17,0,0,1-2.26-1.06,2.72,2.72,0,0,0-1.26-.49c-.31-.05-2.49-1-2.95-.4l-.35.49c-.16.45-.05.45,0,.79s.63.71,2,1.33c.8.37,1,.87,1.82.95.53.05.9,0,1.42,0l1.32.21.17-1.71h0Z"/><path class="cls-66" d="M153.88,160.28c-.66,0-1.22,1.44-.95,2.05l5.83,4.13c1.47.79,2.34.26,2.57-.5s0-1.8-1.55-2.43Z"/><path class="cls-25" d="M126.89,168l1.72-1.14,1.72-.11,1.52.08,1.53.67,1.82.87-.28.9-.66.68-1.08-.49a2.87,2.87,0,0,1-1.29.42,8,8,0,0,1-1.49-.33c-1.38-.05-1.71-.18-1.69-.55s.47-.4,1.21-.34c1.05.08,1.18-.55.22-.84-.53.06-1,0-1.54.07C127.56,168.63,127.11,168.5,126.89,168Z"/><path class="cls-71" d="M139.27,168.92l-5.11-1.2a2,2,0,0,0-.83,2.33l5.66,2Z"/><path class="cls-72" d="M138,165.92c-3.12,1.8-4.82,3.73-3.81,4.31s4.35-.39,7.46-2.18,4.82-3.73,3.81-4.32S141.14,164.12,138,165.92Z"/><path class="cls-25" d="M143.07,159.7c-.4,3.38-.45,2.68.37,6.09l-4.4,2.06c.37-4.8-.15-5.27-1.49-9.84Z"/><path class="cls-24" d="M136.17,155.71a4.87,4.87,0,0,0-.48,2.54,28.59,28.59,0,0,0,.44,2.9c.14.69.48,3.22,1,3.47.4.18,2.38-.64,3-1.44.48-.58-.06-2,.16-2.37l-1.69-5Z"/><path class="cls-68" d="M142.18,154.2c2.11,1.28,2.39,3.85,1.42,6a6.8,6.8,0,0,0-.73,3.22c-1.39.57-2.21.31-3.28-1s-1-2.88-1.8-2.91c-.34,0-.6.44-.41,1.74-.65-1.23-.92-2.93-1.83-3.9a2.61,2.61,0,0,1-.71-1.66c.77-.14,1.3-1,2.17-1.43C138.79,153.35,141.07,153,142.18,154.2Z"/><path class="cls-72" d="M143,163.74c.05,1.17-2.67,1.67-3.93.88l-.32.9c1.08,1.5,4.76,1.41,4.67-.43Z"/><path class="cls-72" d="M143.45,165c.81-.37,1-1.37,1.79-1.33a2.48,2.48,0,0,1,.75.34c.93.49,1.63,2,1.83,3.57.72,5.55-1.79,6.32-1.51,13.12.05,1.27.42,4.85.75,7.22-.43,5.61-11.68,6.18-12.24-.48a34,34,0,0,0,.05-4.86c-.37-5.47-1.68-10.66-1.19-11.86a6.66,6.66,0,0,1,2.31-3.18c1.25-.86,1.63-1.26,2.82-2.14C141.13,166.49,143.2,165.72,143.45,165Z"/><path class="cls-24" d="M127.66,176a7.28,7.28,0,0,1-2-2.2,3.35,3.35,0,0,0-1.18-1.11c-.64-.38-2.22-.13-3.55-.35a1,1,0,0,0-1.2,1c-.08.81.91,1.3,1.6,1.92a7.61,7.61,0,0,0,1.77,1.31c.55.29,1.29.46,1.85.76l1.38,1,1.24-2.17,0,0Z"/><path class="cls-73" d="M133.83,179.3l-7-4.34a6.4,6.4,0,0,0-2.2,2.49,100.81,100.81,0,0,0,9.77,7.31c1.14.67,1.65.36,2.37-.73C138.06,182.12,135.75,180.49,133.83,179.3Z"/><path class="cls-73" d="M134.87,168.47c-1.06.92-1.14,1.17-1.36,1.83-.69,2-.38,6.13-.43,9.54.15,2.81-.47,4.5,2.3,4.73,1.31.18,1.66-.3,1.91-1.58l1.66-8.27C139.36,169.88,136.31,167.82,134.87,168.47Z"/><path class="cls-15" d="M138.15,183.1l0,7.07a.91.91,0,0,0,0,.17h0a.5.5,0,0,0,0,.13h0a.43.43,0,0,1,0,.07.68.68,0,0,0,.12.12l-1.21-.71a.68.68,0,0,1-.12-.12h0l0-.06h0s0,0,0,0a.06.06,0,0,1,0,0v-.06h0v-.17h0V182.4Z"/><path class="cls-13" d="M138.63,182h0l-.14.16h0a1,1,0,0,0-.11.17h0l-.09.18h0a1.59,1.59,0,0,0-.07.2h0a1.29,1.29,0,0,0,0,.19h0a.65.65,0,0,0,0,.19l-1.21-.7v-.19h0s0,0,0,0,0,0,0,0V182h0a.08.08,0,0,0,0,0l0,0v0l0,0s0,0,0,0h0s0,0,0,0a.05.05,0,0,0,0,0l0,0s0,0,0,0h0a2,2,0,0,1,.1-.16h0s0,0,0,0l0,0,0,0,0,0h0l0,0,0,0,0,0,0,0h0l0,0,0,0,0,0,0,0h0l10.13-5.85h0l0,0H148l0,0h.34l.06,0,1.21.7-.11,0h-.14l-.14,0h0l-.16.08-10.13,5.85-.15.11h0Z"/><path class="cls-14" d="M138.93,181.75l10.13-5.85c.44-.25.79-.05.79.45l0,7.07a1.74,1.74,0,0,1-.78,1.35L139,190.62c-.43.25-.78,0-.78-.45l0-7.07A1.74,1.74,0,0,1,138.93,181.75Z"/><path class="cls-34" d="M143.91,195.23l0-10.43,1-.58,0,10.43a2.13,2.13,0,0,1-.31,1.2,1.23,1.23,0,0,1-.43.42l-1,.59A1.79,1.79,0,0,0,143.91,195.23Z"/><polygon class="cls-34" points="143.94 184.81 144.94 184.22 144.27 183.84 143.27 184.42 143.94 184.81"/><path class="cls-35" d="M141.37,195.91c1,.59,1.86.11,1.87-1.07l0-10.42.67.38,0,10.43c0,1.61-1.15,2.25-2.54,1.45Z"/><path class="cls-42" d="M124.53,141.61a6.16,6.16,0,0,0-1.78-1.71c1.69-2,5.64-7.3,7.48-4.5C131.59,137.47,126.06,140.54,124.53,141.61Z"/><path class="cls-25" d="M124.17,140c.44.45.89,1.2.4,1.8-.77.94-2.63,1.45-3.77,1.82l-.8-.86C120.58,141.45,122.12,137.91,124.17,140Z"/><path class="cls-24" d="M118.39,141.83a2.45,2.45,0,0,0,1.19-.05c.61-.12,1.35-.49,1.6-.46l2.09.24c.66.13.86.45.74.62s-.7.25-1.35.23a6.77,6.77,0,0,1,2.19,1.82c.56.7-.81,1.25-1.1,1.25-1.33,0-2.22-1-3.51-1a7,7,0,0,1-3.2-.93Z"/><path class="cls-74" d="M115.65,130.88c-.52,3.29-3.66,8.28-5.13,10.92l-2.56-.37c0-.16-.32-.67-.26-.84,1-3.37,2.35-8.42,3.94-11.18.65-1.15,1.79-1.83,2.69-1.48C115.63,128.43,115.84,129.67,115.65,130.88Z"/><path class="cls-74" d="M110.06,138.78c3,.51,6.44,2,9.38,2.75.3.5-.43,2.5-.84,2.84-3-.62-6.09-1-9-1.73-1.58-.39-2-1.13-1.94-1.94A2.06,2.06,0,0,1,110.06,138.78Z"/><path class="cls-8" d="M196.42,59.08c-4.3-2.48-7.8-.48-7.82,4.46A17.14,17.14,0,0,0,196.37,77c4.31,2.49,7.81.49,7.82-4.46S200.73,61.57,196.42,59.08Z"/><path class="cls-75" d="M191.14,58.35l-1.26.74c8.76-3,16.33,13.9,11,19,4.27-1.77,3.83-7.33,2.32-11a18.83,18.83,0,0,0-2.52-4.38,13.81,13.81,0,0,0-4.94-4.15,7.23,7.23,0,0,0-1.42-.49,5.26,5.26,0,0,0-2.09-.07h0A3.64,3.64,0,0,0,191.14,58.35Z"/><path class="cls-75" d="M192.12,60c-7.22,1.76-2.27,13.45,3.25,16.4,1.54.82,3.8,1,4.87-.18a4,4,0,0,1-2.16,0,7,7,0,0,1-2.1-.93,11.2,11.2,0,0,1-2-1.61,12.3,12.3,0,0,1-1-1.15,14.8,14.8,0,0,1-1.49-2.27,15,15,0,0,1-1-2.3,12.24,12.24,0,0,1-.45-1.68,9.43,9.43,0,0,1-.16-2.31,4.92,4.92,0,0,1,1-2.92A5.84,5.84,0,0,1,192.12,60Z"/><path class="cls-76" d="M195.38,76A14.15,14.15,0,0,1,189,64.88c0-4.07,2.9-5.71,6.44-3.67a14.1,14.1,0,0,1,6.4,11.09c0,4.07-2.89,5.71-6.44,3.67Zm.05-16.34c-4.31-2.49-7.81-.49-7.82,4.46s3.46,11,7.77,13.46,7.8.49,7.82-4.46S199.73,62.12,195.43,59.63Z"/><path class="cls-77" d="M196.5,69.94,199,76.3l-.21,0L196.3,70A.6.6,0,0,0,196.5,69.94Z"/><polygon class="cls-78" points="197.59 69.31 200.04 75.67 198.95 76.31 196.5 69.94 197.59 69.31"/><path class="cls-77" d="M190.77,62.52l0,0,4.38,5a.71.71,0,0,0-.3.64v0Z"/><polygon class="cls-78" points="191.87 61.87 196.26 66.87 195.17 67.5 190.79 62.5 191.87 61.87"/><path class="cls-79" d="M195.48,67.44a.29.29,0,0,0-.16,0h0a.34.34,0,0,0-.14,0l1.09-.63.05,0,.05,0h.11a.08.08,0,0,1,.07,0h.07l.09,0h0l0,0h0l.14.07a.94.94,0,0,1,.18.12l.05,0,.1.08,0,0,.08.09.08.1a.7.7,0,0,1,.06.09l0,0h0l0,0a.41.41,0,0,1,0,.09l.05.08,0,.09,0,0h0v0l0,.09,0,.1,0,.09a.64.64,0,0,0,0,.07h0v0a.68.68,0,0,1,0,.14,1.23,1.23,0,0,1,0,.19.71.71,0,0,1-.29.63l-1.09.63a.69.69,0,0,0,.29-.63,2.46,2.46,0,0,0,0-.37h0a2.65,2.65,0,0,0-.12-.37h0a2.37,2.37,0,0,0-.19-.35h0a2.42,2.42,0,0,0-.25-.31l-.12-.11-.06,0a1.13,1.13,0,0,0-.18-.12l-.18-.09h0Z"/><path class="cls-80" d="M194.87,68.14v0a2.14,2.14,0,0,0,1,1.68.81.81,0,0,0,.44.13.6.6,0,0,0,.2,0,.66.66,0,0,0,.35-.66,2.22,2.22,0,0,0-.63-1.43,1.59,1.59,0,0,0-.36-.28.86.86,0,0,0-.38-.13.53.53,0,0,0-.31.06A.71.71,0,0,0,194.87,68.14Z"/><polygon class="cls-78" points="196.98 63.66 197.31 67.22 196.22 67.85 195.89 64.29 196.98 63.66"/><path class="cls-77" d="M195.86,64.27l0,0,.33,3.56a1.59,1.59,0,0,0-.36-.28.86.86,0,0,0-.38-.13Z"/></g></g></svg>